<svg width="26" height="26" viewBox="0 0 26 26" fill="none" xmlns="http://www.w3.org/2000/svg">
<path d="M2.91176 20.4118C2.56074 20.4118 2.2241 20.2723 1.97589 20.0241C1.72768 19.7759 1.58824 19.4393 1.58824 19.0882V10.0882C1.58824 9.87763 1.50457 9.67565 1.35564 9.52672C1.20672 9.37779 1.00473 9.29413 0.794118 9.29413C0.583504 9.29413 0.381518 9.37779 0.232592 9.52672C0.0836657 9.67565 0 9.87763 0 10.0882L0 19.0882C0 19.8605 0.306774 20.6011 0.852836 21.1472C1.3989 21.6932 2.13952 22 2.91176 22H11.9118C12.1224 22 12.3244 21.9163 12.4733 21.7674C12.6222 21.6185 12.7059 21.4165 12.7059 21.2059C12.7059 20.9953 12.6222 20.7933 12.4733 20.6444C12.3244 20.4954 12.1224 20.4118 11.9118 20.4118H2.91176Z" fill="black"/>
<path d="M10.3234 18.8235C10.534 18.8235 10.736 18.7399 10.8849 18.591C11.0339 18.442 11.1175 18.24 11.1175 18.0294V14.853C11.1175 14.6423 11.0339 14.4404 10.8849 14.2914C10.736 14.1425 10.534 14.0588 10.3234 14.0588C10.1128 14.0588 9.91081 14.1425 9.76189 14.2914C9.61296 14.4404 9.5293 14.6423 9.5293 14.853V18.0294C9.5293 18.24 9.61296 18.442 9.76189 18.591C9.91081 18.7399 10.1128 18.8235 10.3234 18.8235Z" fill="black"/>
<path d="M3.9699 18.8235C4.18051 18.8235 4.3825 18.7399 4.53142 18.591C4.68035 18.442 4.76402 18.24 4.76402 18.0294V14.853C4.76402 14.6423 4.68035 14.4404 4.53142 14.2914C4.3825 14.1425 4.18051 14.0588 3.9699 14.0588C3.75929 14.0588 3.5573 14.1425 3.40837 14.2914C3.25945 14.4404 3.17578 14.6423 3.17578 14.853V18.0294C3.17578 18.24 3.25945 18.442 3.40837 18.591C3.5573 18.7399 3.75929 18.8235 3.9699 18.8235Z" fill="black"/>
<path d="M7.14763 18.8235C7.35825 18.8235 7.56023 18.7399 7.70916 18.5909C7.85809 18.442 7.94175 18.24 7.94175 18.0294V12.2059C7.94175 11.9953 7.85809 11.7933 7.70916 11.6444C7.56023 11.4954 7.35825 11.4118 7.14763 11.4118C6.93702 11.4118 6.73503 11.4954 6.58611 11.6444C6.43718 11.7933 6.35352 11.9953 6.35352 12.2059V18.0294C6.35352 18.24 6.43718 18.442 6.58611 18.5909C6.73503 18.7399 6.93702 18.8235 7.14763 18.8235Z" fill="black"/>
<path fill-rule="evenodd" clip-rule="evenodd" d="M10.4999 5.70526C10.7038 5.70526 10.8848 5.83573 10.9493 6.02916L11.6441 8.11368L13.7286 8.80852C13.9221 8.87299 14.0525 9.05401 14.0525 9.25789C14.0525 9.46178 13.9221 9.6428 13.7286 9.70727L11.6441 10.4021L10.9493 12.4866C10.8848 12.6801 10.7038 12.8105 10.4999 12.8105C10.296 12.8105 10.115 12.6801 10.0505 12.4866L9.35568 10.4021L7.27116 9.70727C7.07773 9.6428 6.94727 9.46178 6.94727 9.25789C6.94727 9.05401 7.07773 8.87299 7.27116 8.80852L9.35568 8.11368L10.0505 6.02916C10.115 5.83573 10.296 5.70526 10.4999 5.70526ZM10.4999 7.67687L10.1795 8.63795C10.1324 8.77939 10.0214 8.89039 9.87995 8.93753L8.91887 9.25789L9.87995 9.57826C10.0214 9.6254 10.1324 9.7364 10.1795 9.87784L10.4999 10.8389L10.8203 9.87784C10.8674 9.7364 10.9784 9.6254 11.1198 9.57826L12.0809 9.25789L11.1198 8.93753C10.9784 8.89039 10.8674 8.77939 10.8203 8.63795L10.4999 7.67687Z" fill="black"/>
<path fill-rule="evenodd" clip-rule="evenodd" d="M14.2894 4C14.4117 4 14.5203 4.07828 14.559 4.19434L14.9285 5.30294L16.0371 5.67248C16.1532 5.71116 16.2315 5.81977 16.2315 5.94211C16.2315 6.06444 16.1532 6.17305 16.0371 6.21173L14.9285 6.58127L14.559 7.68988C14.5203 7.80593 14.4117 7.88421 14.2894 7.88421C14.167 7.88421 14.0584 7.80593 14.0197 7.68988L13.6502 6.58127L12.5416 6.21173C12.4255 6.17305 12.3473 6.06444 12.3473 5.94211C12.3473 5.81977 12.4255 5.71116 12.5416 5.67248L13.6502 5.30294L14.0197 4.19434C14.0584 4.07828 14.167 4 14.2894 4Z" fill="black"/>
</svg>
