<svg width="19" height="19" viewBox="0 0 19 19" fill="none" xmlns="http://www.w3.org/2000/svg">
<path d="M15.6992 3.12669C15.3509 2.77751 14.9372 2.50038 14.4818 2.31113C14.0263 2.12188 13.5381 2.02423 13.0448 2.02374C12.5516 2.02325 12.0632 2.11994 11.6074 2.30829C11.1515 2.49664 10.7373 2.77296 10.3883 3.12145L1.95906 11.5447C1.88943 11.6142 1.80678 11.6694 1.71583 11.7071C1.62488 11.7447 1.5274 11.7641 1.42897 11.764C1.33054 11.764 1.23308 11.7446 1.14215 11.7069C1.05123 11.6692 0.968615 11.6139 0.899038 11.5443C0.82946 11.4747 0.774278 11.392 0.736642 11.3011C0.699006 11.2101 0.679653 11.1126 0.679688 11.0142C0.679722 10.9158 0.699144 10.8183 0.736845 10.7274C0.774545 10.6365 0.829786 10.5538 0.899413 10.4843L9.32938 2.06105C9.81622 1.56826 10.3957 1.17663 11.0346 0.908723C11.6734 0.640813 12.3589 0.501913 13.0516 0.50002C13.7443 0.498126 14.4306 0.633276 15.0708 0.897688C15.7111 1.1621 16.2928 1.55055 16.7823 2.04068C17.2718 2.5308 17.6596 3.11292 17.9232 3.75351C18.1869 4.39411 18.3212 5.08052 18.3184 5.77324C18.3157 6.46596 18.176 7.15129 17.9073 7.78979C17.6386 8.42828 17.2463 9.00732 16.7529 9.49357L8.64068 17.5953C8.05229 18.1771 7.25749 18.5024 6.43 18.5C5.60251 18.4976 4.80963 18.1677 4.22465 17.5824C3.63967 16.9971 3.31018 16.2041 3.30818 15.3766C3.30618 14.5491 3.63185 13.7545 4.21399 13.1664L12.3277 5.05115C12.469 4.91464 12.6583 4.8391 12.8548 4.84081C13.0513 4.84252 13.2393 4.92133 13.3782 5.06027C13.5172 5.19922 13.596 5.38718 13.5977 5.58367C13.5994 5.78015 13.5239 5.96945 13.3874 6.11079L5.27364 14.2268C4.97265 14.5339 4.80503 14.9474 4.8072 15.3774C4.80938 15.8074 4.98117 16.2192 5.28524 16.5233C5.58932 16.8274 6.0011 16.9992 6.43113 17.0013C6.86115 17.0035 7.27465 16.8359 7.58178 16.5349L15.694 8.43317C16.3978 7.72989 16.7937 6.776 16.7947 5.78102C16.7957 4.78604 16.4017 3.83136 15.6992 3.12669Z" fill="#151515"/>
</svg>
