<svg width="47" height="26" viewBox="0 0 47 26" fill="none" xmlns="http://www.w3.org/2000/svg">
<path d="M13.5 11V17C13.5 17.4148 13.1648 17.75 12.75 17.75C12.3352 17.75 12 17.4148 12 17V11C12 10.5852 12.3352 10.25 12.75 10.25C13.1648 10.25 13.5 10.5852 13.5 11ZM9.75 5C9.33525 5 9 5.33525 9 5.75V22.25C9 22.6647 9.33525 23 9.75 23C10.1648 23 10.5 22.6647 10.5 22.25V5.75C10.5 5.33525 10.1648 5 9.75 5ZM15.75 8C15.3352 8 15 8.33525 15 8.75V19.25C15 19.6648 15.3352 20 15.75 20C16.1647 20 16.5 19.6648 16.5 19.25V8.75C16.5 8.33525 16.1647 8 15.75 8ZM6.75 8C6.33525 8 6 8.33525 6 8.75V19.25C6 19.6648 6.33525 20 6.75 20C7.16475 20 7.5 19.6648 7.5 19.25V8.75C7.5 8.33525 7.16475 8 6.75 8ZM3.75 10.25C3.33525 10.25 3 10.5852 3 11V17C3 17.4148 3.33525 17.75 3.75 17.75C4.16475 17.75 4.5 17.4148 4.5 17V11C4.5 10.5852 4.16475 10.25 3.75 10.25ZM0.75 11.75C0.33525 11.75 0 12.0852 0 12.5V15.5C0 15.9148 0.33525 16.25 0.75 16.25C1.16475 16.25 1.5 15.9148 1.5 15.5V12.5C1.5 12.0852 1.16475 11.75 0.75 11.75Z" fill="black"/>
<path d="M36.763 14.9475H40.8155M36.763 12.0528H38.7893M40.0456 18.647C42.4678 18.4866 44.3969 16.5298 44.5555 14.0733C44.5862 13.5928 44.5862 13.0949 44.5555 12.6144C44.3969 10.1585 42.4678 8.20288 40.0456 8.04135C39.2089 7.98622 38.3696 7.98622 37.533 8.04135C35.1107 8.2023 33.1816 10.1585 33.023 12.615C32.9923 13.1008 32.9923 13.5881 33.023 14.0739C33.0809 14.9684 33.4763 15.7968 33.9424 16.4962C34.2127 16.9854 34.0344 17.5962 33.7525 18.1306C33.5498 18.5156 33.4479 18.7078 33.5296 18.8467C33.6106 18.9857 33.793 18.9903 34.1571 18.999C34.8779 19.0163 35.3637 18.8125 35.7492 18.5283C35.9675 18.3668 36.0769 18.2863 36.1522 18.277C36.2274 18.2678 36.3762 18.3291 36.6726 18.4507C36.939 18.5607 37.2487 18.6284 37.5324 18.6476C38.3574 18.702 39.2194 18.702 40.0461 18.6476" stroke="black" stroke-linecap="round" stroke-linejoin="round"/>
<path d="M21.1667 13.25C21.1667 13.9864 21.7636 14.5833 22.5 14.5833C23.2364 14.5833 23.8333 13.9864 23.8333 13.25C23.8333 12.5136 23.2364 11.9167 22.5 11.9167C21.7636 11.9167 21.1667 12.5136 21.1667 13.25ZM25.6667 13.25C25.6667 13.9864 26.2636 14.5833 27 14.5833C27.7364 14.5833 28.3333 13.9864 28.3333 13.25C28.3333 12.5136 27.7364 11.9167 27 11.9167C26.2636 11.9167 25.6667 12.5136 25.6667 13.25ZM22.5 13.5H27V13H22.5V13.5Z" fill="black" fill-opacity="0.6"/>
</svg>
