<svg width="33" height="33" viewBox="0 0 33 33" fill="none" xmlns="http://www.w3.org/2000/svg">
<g clip-path="url(#clip0_479_43464)">
<path fill-rule="evenodd" clip-rule="evenodd" d="M32.862 7.54875C32.8222 6.03885 32.6567 4.53489 32.367 3.0525C32.2848 2.5285 32.0338 2.04568 31.652 1.6775C30.4387 1.18956 29.1501 0.9151 27.8432 0.866251C23.0529 0.432394 18.242 0.267135 13.4332 0.371252C10.2112 0.372912 6.9938 0.616513 3.80823 1.1C2.8181 1.19765 1.87736 1.57968 1.09948 2.2C0.583355 3.18102 0.301004 4.26807 0.274482 5.37625C-0.0254144 9.20034 -0.0897026 13.0393 0.0819823 16.8713C0.162628 21.1983 0.594885 25.5117 1.37448 29.7688C1.48021 30.3655 1.73041 30.9272 2.10323 31.405C2.86421 31.8704 3.7288 32.1397 4.61948 32.1888C7.65961 32.531 10.7178 32.6871 13.777 32.6563C19.4887 32.7318 25.1989 32.4194 30.8682 31.7213C30.9236 31.7149 30.977 31.6969 31.025 31.6686C31.073 31.6403 31.1145 31.6023 31.1469 31.5569C31.1793 31.5116 31.2018 31.4599 31.213 31.4054C31.2242 31.3508 31.2239 31.2944 31.212 31.24C31.1918 31.1316 31.1304 31.0352 31.0407 30.9711C30.9509 30.907 30.8398 30.8802 30.7307 30.8963C25.0911 31.4907 19.4177 31.702 13.7495 31.5288C10.7472 31.5044 7.74909 31.3024 4.77073 30.9238C4.14194 30.8887 3.52786 30.72 2.96948 30.4288C2.62916 29.6944 2.43756 28.9 2.40573 28.0913C1.94305 24.3542 1.68142 20.5951 1.62198 16.83C1.47796 13.0518 1.56061 9.26833 1.86948 5.5C1.87383 4.71584 2.03269 3.94023 2.33698 3.2175C2.46189 3.12602 2.60135 3.05629 2.74948 3.01125C3.36326 2.80955 3.99361 2.66231 4.63323 2.57125C8.56856 2.07412 12.5331 1.84442 16.4995 1.88375C20.9957 1.88375 25.5057 1.99375 28.352 2.29625C29.2025 2.33614 30.0441 2.48872 30.8545 2.75C30.6757 2.90125 31.102 3.3275 31.1982 3.86375C31.5208 6.00841 31.7045 8.17166 31.7482 10.34C31.9682 16.4038 31.8445 24.475 31.7482 29.59C31.7464 29.6532 31.757 29.7162 31.7795 29.7752C31.8021 29.8343 31.836 29.8884 31.8794 29.9344C31.9228 29.9804 31.9749 30.0173 32.0326 30.0432C32.0903 30.069 32.1525 30.0832 32.2157 30.085C32.341 30.0851 32.4614 30.0362 32.5513 29.9489C32.6411 29.8616 32.6934 29.7427 32.697 29.6175C32.8895 23.6638 33.1645 13.75 32.862 7.54875Z" fill="#3FBDCB"/>
<path fill-rule="evenodd" clip-rule="evenodd" d="M29.0816 16.8988C29.26 16.6498 29.3777 16.3625 29.4254 16.06C29.6311 14.46 29.691 12.8446 29.6041 11.2338C29.5642 9.63283 29.3987 8.03751 29.1091 6.4625C29.0572 6.15929 28.9187 5.87756 28.7104 5.65126C28.5545 5.51269 28.3647 5.41782 28.1604 5.37626C27.1956 5.18954 26.2142 5.102 25.2316 5.11501C22.7735 5.06859 20.3152 5.19725 17.8754 5.50001C17.2154 5.61001 16.9404 6.49 16.9404 6.5175C16.8441 8.67625 16.6654 12.3063 16.7341 14.5613C16.7465 15.2154 16.8342 15.8659 16.9954 16.5C17.0666 16.6835 17.1852 16.8448 17.3391 16.9675C17.8356 17.2009 18.3725 17.3363 18.9204 17.3663C20.6779 17.5626 22.4456 17.6545 24.2141 17.6413C25.5977 17.6852 26.9818 17.5699 28.3391 17.2975C28.6176 17.2329 28.8739 17.0953 29.0816 16.8988ZM27.9129 15.3038V15.7438C27.9129 15.8813 27.5554 15.895 27.3354 15.9225C25.9396 16.0939 24.534 16.172 23.1279 16.1563C21.5191 16.1563 19.8966 16.1563 18.8791 16.0325C18.6316 16.0325 18.3841 15.895 18.2191 15.8675C18.188 15.7922 18.165 15.7139 18.1504 15.6338C17.9974 14.6043 17.9055 13.5666 17.8754 12.5263V6.54501C17.8754 6.20126 17.6966 6.36625 18.0129 6.325C19.7043 6.17441 21.4036 6.13308 23.1004 6.20126C24.4529 6.21691 25.8031 6.31794 27.1429 6.50376C27.4041 6.50376 27.6516 6.71 27.7754 6.69625C27.8991 6.68251 27.7754 7.05376 27.7754 7.21876C27.9364 8.56524 28.0282 9.91911 28.0504 11.275C28.0834 12.6195 28.0375 13.9647 27.9129 15.3038Z" fill="#020202"/>
<path fill-rule="evenodd" clip-rule="evenodd" d="M11.2202 8.11251C11.4903 8.13326 11.7615 8.13326 12.0315 8.11251C12.2969 8.13288 12.5635 8.13288 12.829 8.11251C13.6127 8.00251 14.2865 7.85126 14.6852 7.79626C14.7972 7.77713 14.8988 7.71901 14.972 7.6322C15.0453 7.54538 15.0854 7.43546 15.0854 7.32188C15.0854 7.2083 15.0453 7.09838 14.972 7.01156C14.8988 6.92475 14.7972 6.86664 14.6852 6.84751C14.2865 6.84751 13.599 6.66876 12.7877 6.61376H11.9765C11.7108 6.6001 11.4446 6.6001 11.179 6.61376C10.4365 6.72376 9.80398 6.90251 9.33648 6.98501C9.27506 6.97384 9.21193 6.9763 9.15155 6.99222C9.09118 7.00814 9.03505 7.03712 8.98711 7.07713C8.93918 7.11713 8.90062 7.16718 8.87416 7.22373C8.8477 7.28028 8.83398 7.34195 8.83398 7.40438C8.83398 7.46681 8.8477 7.52849 8.87416 7.58504C8.90062 7.64158 8.93918 7.69163 8.98711 7.73163C9.03505 7.77164 9.09118 7.80062 9.15155 7.81654C9.21193 7.83246 9.27506 7.83492 9.33648 7.82376C9.95804 7.95769 10.5871 8.05412 11.2202 8.11251Z" fill="#020202"/>
<path fill-rule="evenodd" clip-rule="evenodd" d="M4.97719 12.2787C4.92302 12.2787 4.86938 12.2894 4.81933 12.3101C4.76929 12.3309 4.72381 12.3613 4.68551 12.3996C4.6472 12.4379 4.61682 12.4833 4.59609 12.5334C4.57536 12.5834 4.56469 12.6371 4.56469 12.6912C4.56285 12.7454 4.57171 12.7994 4.59077 12.8502C4.60982 12.9009 4.63868 12.9474 4.67572 12.987C4.71275 13.0266 4.75722 13.0585 4.80659 13.0809C4.85596 13.1033 4.90926 13.1157 4.96344 13.1175C5.45844 13.1175 6.80594 13.3512 8.38719 13.42H9.83094C10.3122 13.42 10.8209 13.42 11.2884 13.3375C12.9109 13.2137 14.2722 13.035 14.6709 13.0075C14.7829 12.9884 14.8845 12.9303 14.9577 12.8434C15.031 12.7566 15.0711 12.6467 15.0711 12.5331C15.0711 12.4195 15.031 12.3096 14.9577 12.2228C14.8845 12.136 14.7829 12.0779 14.6709 12.0587C14.2722 12.0587 12.8834 11.9075 11.2609 11.8387H9.80344C9.32219 11.8387 8.82719 11.8387 8.42844 11.9075C6.87469 12.0175 5.49969 12.2375 4.97719 12.2787Z" fill="#020202"/>
<path fill-rule="evenodd" clip-rule="evenodd" d="M5.0043 17.5038C5.48555 17.5038 6.83305 17.7375 8.4143 17.8063H9.8718C10.3668 17.8063 10.848 17.8063 11.3155 17.7238C12.938 17.6 14.2993 17.4213 14.698 17.3938C14.7594 17.3938 14.8202 17.3817 14.877 17.3582C14.9337 17.3347 14.9852 17.3002 15.0286 17.2568C15.072 17.2134 15.1065 17.1619 15.13 17.1052C15.1535 17.0484 15.1655 16.9876 15.1655 16.9263C15.1656 16.801 15.1168 16.6806 15.0295 16.5907C14.9422 16.5009 14.8233 16.4486 14.698 16.445C14.2993 16.445 12.9243 16.2938 11.288 16.225H9.83055C9.3493 16.225 8.8543 16.225 8.3868 16.2938C6.83305 16.4175 5.4993 16.6375 5.01805 16.6788C4.96273 16.6769 4.90761 16.6862 4.85596 16.7061C4.80432 16.726 4.75721 16.7561 4.71744 16.7946C4.67766 16.8331 4.64604 16.8792 4.62446 16.9302C4.60287 16.9811 4.59177 17.0359 4.5918 17.0913C4.5918 17.2007 4.63526 17.3056 4.71262 17.3829C4.78997 17.4603 4.8949 17.5038 5.0043 17.5038Z" fill="#020202"/>
<path fill-rule="evenodd" clip-rule="evenodd" d="M28.2422 21.615C28.2422 21.4874 28.1915 21.3649 28.1012 21.2747C28.011 21.1844 27.8886 21.1337 27.7609 21.1337C26.8534 21.1337 23.6359 20.9137 19.9097 20.7762C18.8097 20.7762 17.6822 20.7762 16.5409 20.6937C15.3997 20.6112 14.2584 20.6937 13.1584 20.6937C9.55594 20.6937 6.40719 20.9137 5.27969 20.9825C5.17138 20.9859 5.06844 21.0305 4.99182 21.1071C4.91519 21.1837 4.87063 21.2867 4.86719 21.395C4.86716 21.4503 4.87826 21.5051 4.89985 21.5561C4.92143 21.6071 4.95305 21.6532 4.99283 21.6916C5.0326 21.7301 5.07971 21.7602 5.13135 21.7801C5.183 21.8 5.23812 21.8093 5.29344 21.8075C6.42094 21.8075 9.54219 22.0825 13.1447 22.22C14.2447 22.22 15.3859 22.22 16.5134 22.2887C17.6409 22.3575 18.7959 22.2887 19.8959 22.2887C23.6359 22.2887 26.8534 22.1375 27.7609 22.0962C27.8886 22.0962 28.011 22.0455 28.1012 21.9553C28.1915 21.865 28.2422 21.7426 28.2422 21.615Z" fill="#020202"/>
<path fill-rule="evenodd" clip-rule="evenodd" d="M16.1979 25.3825C15.4004 25.3825 14.5616 25.3 13.7366 25.2863C12.9116 25.2725 12.0729 25.2863 11.2616 25.2863C8.62164 25.2863 6.32539 25.5063 5.50039 25.5613C5.39086 25.5681 5.28783 25.6156 5.21152 25.6944C5.1352 25.7733 5.09111 25.8778 5.08789 25.9875C5.08786 26.0429 5.09897 26.0976 5.12055 26.1486C5.14214 26.1996 5.17376 26.2457 5.21353 26.2842C5.2533 26.3227 5.30041 26.3527 5.35206 26.3727C5.4037 26.3926 5.45882 26.4019 5.51414 26.4C6.33914 26.4 8.60789 26.675 11.2479 26.8125C12.0454 26.8125 12.8704 26.8813 13.7091 26.895C14.5479 26.9088 15.3729 26.895 16.1704 26.895C18.9204 26.895 21.2579 26.7438 21.9316 26.7163C22.0569 26.7127 22.1758 26.6604 22.2631 26.5705C22.3504 26.4807 22.3992 26.3603 22.3991 26.235C22.3991 26.111 22.3499 25.9921 22.2622 25.9044C22.1745 25.8168 22.0556 25.7675 21.9316 25.7675C21.2716 25.7125 18.9341 25.52 16.1979 25.3825Z" fill="#020202"/>
</g>
<defs>
<clipPath id="clip0_479_43464">
<rect width="33" height="33" fill="white"/>
</clipPath>
</defs>
</svg>
