<svg width="33" height="33" viewBox="0 0 33 33" fill="none" xmlns="http://www.w3.org/2000/svg">
<g clip-path="url(#clip0_479_43322)">
<path d="M13.9568 15.3588C14.326 15.6342 14.7117 15.8868 15.1118 16.115C15.3787 16.2539 15.6774 16.3203 15.978 16.3075C16.4885 16.2362 16.9667 16.0162 17.353 15.675C17.7707 15.3109 18.1404 14.895 18.453 14.4375C19.6758 14.7596 20.9573 14.7879 22.193 14.52C22.7452 14.4265 23.258 14.1736 23.6684 13.7925C24.0788 13.4114 24.3689 12.9188 24.503 12.375C24.5364 12.1782 24.4921 11.976 24.3793 11.8113C24.1687 11.5461 23.9237 11.3102 23.6505 11.11L21.588 9.22627C20.9968 8.70377 20.4193 8.16752 19.8418 7.63127C18.4668 6.38002 17.0918 5.08752 15.8543 3.78127C15.5459 3.47998 15.2098 3.20836 14.8505 2.97002C14.5827 2.80217 14.2905 2.67693 13.9843 2.59877C13.7409 2.53835 13.4922 2.50151 13.2418 2.48877C13.1436 2.49299 13.0477 2.52005 12.9618 2.56778C12.8759 2.61552 12.8023 2.68262 12.7468 2.76377C12.3374 3.40311 12.0788 4.12721 11.9905 4.88127C11.9086 5.95956 12.0394 7.04345 12.3755 8.07127C12.3755 8.07127 11.3443 8.74502 10.8768 9.17127C10.6195 9.40582 10.4296 9.7049 10.3268 10.0375C10.2356 10.5183 10.2499 11.0132 10.3686 11.488C10.4873 11.9628 10.7076 12.4062 11.0143 12.7875C11.8437 13.8038 12.8385 14.6731 13.9568 15.3588ZM11.7568 9.69377C12.0929 9.35054 12.4462 9.0247 12.8155 8.71752C12.9655 8.64847 13.0825 8.52354 13.1416 8.36939C13.2007 8.21525 13.1972 8.04411 13.1318 7.89252C12.9405 7.11019 12.8618 6.30458 12.898 5.50002C12.9524 4.87001 13.1448 4.2597 13.4618 3.71252C13.7524 3.80431 14.0298 3.93374 14.2868 4.09752C14.5065 4.28498 14.7132 4.48711 14.9055 4.70252C15.813 5.67877 16.7205 6.66877 17.6555 7.60377C18.5905 8.53877 19.608 9.44627 20.6255 10.3538C20.6255 10.3538 23.0593 12.2925 23.2105 12.3888C23.1063 12.6509 22.9428 12.8853 22.7329 13.0738C22.523 13.2622 22.2723 13.3995 22.0005 13.475C20.8357 13.7999 19.6041 13.7999 18.4393 13.475C18.3842 13.4556 18.3259 13.4473 18.2676 13.4506C18.2093 13.4539 18.1523 13.4688 18.0998 13.4944C18.0473 13.52 18.0005 13.5558 17.962 13.5997C17.9235 13.6436 17.8941 13.6947 17.8755 13.75C17.8629 13.8089 17.8629 13.8699 17.8755 13.9288C17.5728 14.2739 17.2314 14.583 16.858 14.85C16.6229 15.0258 16.3401 15.1264 16.0468 15.1388C15.923 15.1388 15.8268 15.0288 15.7168 14.9463C15.3868 14.7125 15.0843 14.41 14.8643 14.2313C13.8577 13.6025 12.9418 12.8392 12.1418 11.9625C11.6813 11.5084 11.4193 10.8905 11.413 10.2438C11.4705 10.0304 11.5902 9.83894 11.7568 9.69377Z" fill="#020202"/>
<path d="M21.6983 4.12501C21.3763 3.86609 21.014 3.66172 20.6258 3.52001C19.7922 3.26595 18.9019 3.26595 18.0683 3.52001C17.9662 3.53642 17.8748 3.59272 17.8142 3.67652C17.7536 3.76033 17.7288 3.86477 17.7452 3.96688C17.7616 4.06899 17.8179 4.1604 17.9017 4.221C17.9855 4.28159 18.0899 4.30642 18.1921 4.29001C18.8562 4.32333 19.5025 4.51674 20.0758 4.85376C20.3147 4.97956 20.5444 5.12199 20.7633 5.28001C21.1593 5.4906 21.494 5.80008 21.735 6.17837C21.9759 6.55666 22.1149 6.99086 22.1383 7.43876C22.1267 7.55705 22.162 7.67518 22.2365 7.76774C22.3111 7.86031 22.419 7.91992 22.5371 7.93376C22.6523 7.93839 22.7653 7.90023 22.8541 7.82662C22.9429 7.75301 23.0014 7.64914 23.0183 7.53501C23.1267 7.02473 23.1161 6.49634 22.9874 5.99082C22.8586 5.4853 22.6151 5.01623 22.2758 4.62001C22.1048 4.43147 21.9108 4.26517 21.6983 4.12501Z" fill="#3FBDCB"/>
<path d="M17.7528 1.155C18.9249 0.999761 20.1158 1.22638 21.149 1.80125C21.6038 2.01824 22.0406 2.27112 22.4553 2.5575C22.8698 2.83085 23.2566 3.144 23.6103 3.4925C24.037 3.85853 24.3733 4.31836 24.5928 4.83599C24.8122 5.35362 24.9089 5.91502 24.8753 6.47625C24.8585 6.5923 24.8859 6.71044 24.9521 6.80722C25.0183 6.904 25.1185 6.97236 25.2328 6.99875C25.3476 7.01871 25.4657 6.99228 25.5611 6.92525C25.6565 6.85822 25.7214 6.75608 25.7415 6.64125C25.9058 5.91599 25.8916 5.16168 25.7 4.44316C25.5084 3.72463 25.1451 3.06338 24.6415 2.51625C24.241 2.04369 23.7785 1.62742 23.2665 1.27875C22.7644 0.941745 22.2245 0.664851 21.6578 0.453745C20.3336 -0.0493478 18.876 -0.0784986 17.5328 0.371245C17.4365 0.402769 17.3565 0.470965 17.3102 0.56105C17.2639 0.651135 17.2549 0.75585 17.2853 0.852495C17.2931 0.904582 17.3118 0.954414 17.3404 0.998682C17.3689 1.04295 17.4065 1.08064 17.4508 1.10925C17.495 1.13786 17.5448 1.15674 17.5968 1.16463C17.6489 1.17251 17.7021 1.16923 17.7528 1.155Z" fill="#3FBDCB"/>
<path d="M33.0009 19.8138C32.8938 18.4843 32.7101 17.1621 32.4509 15.8538C32.1759 14.4788 31.8184 13.1725 31.5159 12.0038C31.3088 11.0665 31.0283 10.147 30.6771 9.25375C30.463 8.75161 30.0977 8.32868 29.6321 8.04375C28.7679 7.65697 27.7969 7.57929 26.8821 7.82375C25.6525 8.08693 24.5084 8.65423 23.5546 9.47375C23.4744 9.53757 23.4228 9.63064 23.4112 9.7325C23.3996 9.83435 23.4289 9.93665 23.4928 10.0169C23.5566 10.0971 23.6496 10.1487 23.7515 10.1603C23.8534 10.1719 23.9557 10.1426 24.0359 10.0788C24.7779 9.53379 25.6256 9.14976 26.5246 8.95125C27.3294 8.70186 28.1987 8.7657 28.9584 9.13C29.2476 9.39462 29.441 9.74758 29.5084 10.1338C29.7559 10.9313 29.8934 11.8663 30.0309 12.4438C30.3471 13.5988 30.6634 14.8775 30.9796 16.2113C31.2959 17.545 31.5571 18.7275 31.7359 19.9925C31.9258 21.2711 31.9811 22.5661 31.9009 23.8563C30.322 23.4981 28.6908 23.4329 27.0884 23.6637C25.4299 23.8957 23.805 24.325 22.2484 24.9425C21.7583 25.1437 21.2962 25.4071 20.8734 25.7262C20.3367 26.1577 19.8227 26.6167 19.3334 27.1012L18.9759 27.4038C18.9759 26.3863 18.9071 25.3687 18.8246 24.3512C18.8246 23.8288 18.7284 23.32 18.6459 22.8113C18.5775 22.2931 18.4811 21.779 18.3571 21.2713C18.0529 20.0974 17.6857 18.9407 17.2571 17.8063C17.246 17.7566 17.2248 17.7098 17.1949 17.6687C17.165 17.6276 17.1269 17.5931 17.0831 17.5673C17.0392 17.5415 16.9906 17.525 16.9401 17.5188C16.8896 17.5126 16.8384 17.5168 16.7896 17.5313C16.7116 17.5512 16.6418 17.595 16.59 17.6567C16.5382 17.7183 16.507 17.7947 16.5009 17.875C16.6934 19.0575 16.8034 20.2263 16.9546 21.4088C16.9546 21.9175 17.0921 22.4125 17.1746 22.9075C17.2571 23.4025 17.3396 23.9113 17.4359 24.4063C17.6009 25.3275 17.7796 26.2488 17.9584 27.1563C17.6146 26.9775 17.2159 26.7438 16.7071 26.51C16.164 26.2513 15.6034 26.0308 15.0296 25.85C13.0394 25.2497 10.9293 25.1646 8.89713 25.6025C7.09534 26.0373 5.39844 26.8273 3.90588 27.9263C3.93231 26.7414 3.87718 25.5561 3.74088 24.3787C3.59593 23.0743 3.35232 21.7827 3.01213 20.515L1.48588 14.6438C1.46133 14.5149 1.47419 14.3816 1.52291 14.2598C1.57164 14.138 1.65421 14.0327 1.76088 13.9563C2.08923 13.6498 2.46543 13.399 2.87463 13.2137C3.98396 12.6373 5.14969 12.1765 6.35338 11.8388C7.12095 11.6163 7.92024 11.5234 8.71838 11.5638C8.83474 11.5797 8.95277 11.55 9.04765 11.4808C9.14253 11.4115 9.20687 11.3082 9.22713 11.1925C9.24287 11.0777 9.21271 10.9614 9.14321 10.8687C9.0737 10.7761 8.97046 10.7145 8.85588 10.6975C7.93818 10.5833 7.0076 10.6298 6.10588 10.835C4.80363 11.0914 3.53173 11.4831 2.31088 12.0038C1.62727 12.2603 1.01122 12.6694 0.509628 13.2C0.28935 13.4355 0.132231 13.7229 0.0528944 14.0354C-0.0264419 14.3479 -0.0254155 14.6755 0.0558779 14.9875C0.138378 15.29 0.537128 16.9675 0.963378 18.5487C1.22463 19.47 1.48588 20.3638 1.67838 20.9138C2.13046 22.1032 2.48905 23.326 2.75088 24.5713C2.99838 25.8225 3.23213 28.6963 3.23213 28.8475C3.24004 29.3904 3.42333 29.9161 3.75463 30.3463C3.93881 30.5726 4.17172 30.7545 4.43599 30.8783C4.70026 31.0021 4.98907 31.0646 5.28088 31.0613C5.59434 31.0637 5.90591 31.0126 6.20213 30.91C6.77963 30.7313 7.37088 30.4013 7.90713 30.2775C8.6297 30.1023 9.36555 29.9873 10.1071 29.9338C10.8339 29.8574 11.5666 29.8574 12.2934 29.9338C13.5178 29.9665 14.6855 30.4571 15.5659 31.3088C15.9998 31.837 16.5321 32.276 17.1334 32.6012C17.7197 32.8275 18.3555 32.8939 18.9759 32.7938C19.7957 32.713 20.5813 32.4243 21.2584 31.955C22.035 31.248 22.7439 30.4701 23.3759 29.6313C23.6425 29.3486 23.9537 29.1117 24.2971 28.93C24.8837 28.6329 25.4957 28.389 26.1259 28.2013C26.7635 28.0041 27.4166 27.8615 28.0784 27.775C28.7362 27.6994 29.4005 27.6994 30.0584 27.775C30.1959 27.775 31.0896 28.0088 31.4334 28.0225C31.5348 28.0329 31.6372 28.0197 31.7326 27.9839C31.828 27.9482 31.9138 27.8908 31.9834 27.8162C32.237 27.4653 32.4064 27.0607 32.4784 26.6338C32.8096 24.3752 32.9842 22.0964 33.0009 19.8138ZM31.5021 26.8538C31.0984 26.7244 30.6738 26.6731 30.2509 26.7025C29.5178 26.597 28.7753 26.5739 28.0371 26.6338C27.2979 26.6928 26.5658 26.8217 25.8509 27.0188C25.1374 27.1959 24.4423 27.4399 23.7746 27.7475C23.2666 27.9789 22.8016 28.2951 22.3996 28.6825C21.7703 29.4557 21.0757 30.1734 20.3234 30.8275C19.8398 31.1535 19.2817 31.3521 18.7009 31.405C17.5321 31.5563 17.1884 31.02 16.6246 30.4563C16.0883 29.866 15.4319 29.3972 14.6996 29.0813C13.9517 28.8181 13.1682 28.6697 12.3759 28.6413C11.563 28.599 10.7479 28.6359 9.94213 28.7513C9.14241 28.8627 8.35195 29.0328 7.57713 29.26C7.04088 29.425 6.43588 29.7963 5.85838 30.0163C5.66274 30.101 5.45274 30.1477 5.23963 30.1538C5.07644 30.1674 4.91228 30.1436 4.75974 30.084C4.6072 30.0244 4.47033 29.9307 4.35963 29.81C4.13895 29.5449 4.00461 29.2186 3.97463 28.875C5.52265 27.8094 7.28076 27.0874 9.13088 26.7575C10.9785 26.4509 12.8741 26.631 14.6309 27.28C15.808 27.7311 16.952 28.264 18.0546 28.875C18.3093 28.9698 18.585 28.9936 18.8521 28.9438C19.2726 28.8436 19.6636 28.6458 19.9934 28.3662C20.7899 27.4866 21.7175 26.7352 22.7434 26.1388C24.1759 25.4995 25.6813 25.0377 27.2259 24.7638C28.7206 24.4817 30.2549 24.4817 31.7496 24.7638C31.7771 24.75 31.5159 26.7163 31.4609 26.8538H31.5021Z" fill="#020202"/>
</g>
<defs>
<clipPath id="clip0_479_43322">
<rect width="33" height="33" fill="white"/>
</clipPath>
</defs>
</svg>
