<svg width="22" height="22" viewBox="0 0 22 22" fill="none" xmlns="http://www.w3.org/2000/svg">
<path opacity="0.5" d="M15.4004 11.2H10.9004" stroke="#151515" stroke-width="3.5" stroke-linecap="round"/>
<path d="M2 6.455C2 5.6603 2 5.2634 2.063 4.9322C2.1973 4.22106 2.54282 3.5669 3.05449 3.05508C3.56615 2.54325 4.2202 2.19752 4.9313 2.063C5.2634 2 5.6612 2 6.455 2C6.8024 2 6.977 2 7.1444 2.0153C7.86534 2.08301 8.54911 2.36655 9.1064 2.8289C9.236 2.936 9.3584 3.0584 9.605 3.305L10.1 3.8C10.8344 4.5344 11.2016 4.9016 11.6408 5.1455C11.8822 5.28004 12.1383 5.38634 12.404 5.4623C12.8882 5.6 13.4075 5.6 14.4452 5.6H14.7818C17.1506 5.6 18.3359 5.6 19.1054 6.293C19.1768 6.356 19.244 6.4232 19.307 6.4946C20 7.2641 20 8.4494 20 10.8182V12.8C20 16.1939 20 17.8913 18.9452 18.9452C17.8904 19.9991 16.1939 20 12.8 20H9.2C5.8061 20 4.1087 20 3.0548 18.9452C2.0009 17.8904 2 16.1939 2 12.8V6.455Z" stroke="#151515" stroke-width="2.5"/>
</svg>
