<svg width="20" height="20" viewBox="0 0 20 20" fill="none" xmlns="http://www.w3.org/2000/svg">
<path opacity="0.5" d="M15.4004 8.19995H10.9004" stroke="#151515" stroke-width="1.5" stroke-linecap="round"/>
<path d="M1 5.455C1 4.6603 1 4.2634 1.063 3.9322C1.1973 3.22106 1.54282 2.5669 2.05449 2.05508C2.56615 1.54325 3.2202 1.19752 3.9313 1.063C4.2634 1 4.6612 1 5.455 1C5.8024 1 5.977 1 6.1444 1.0153C6.86534 1.08301 7.54911 1.36655 8.1064 1.8289C8.236 1.936 8.3584 2.0584 8.605 2.305L9.1 2.8C9.8344 3.5344 10.2016 3.9016 10.6408 4.1455C10.8822 4.28004 11.1383 4.38634 11.404 4.4623C11.8882 4.6 12.4075 4.6 13.4452 4.6H13.7818C16.1506 4.6 17.3359 4.6 18.1054 5.293C18.1768 5.356 18.244 5.4232 18.307 5.4946C19 6.2641 19 7.4494 19 9.8182V11.8C19 15.1939 19 16.8913 17.9452 17.9452C16.8904 18.9991 15.1939 19 11.8 19H8.2C4.8061 19 3.1087 19 2.0548 17.9452C1.0009 16.8904 1 15.1939 1 11.8V5.455Z" stroke="#151515" stroke-width="1.5"/>
</svg>
