<svg width="24" height="26" viewBox="0 0 24 26" fill="none" xmlns="http://www.w3.org/2000/svg">
<path d="M14.664 7.54246e-08C15.2097 0.000141518 15.7415 0.171971 16.1841 0.49115C16.6267 0.810329 16.9577 1.26068 17.1301 1.7784L17.836 3.9H22.1C22.4448 3.9 22.7754 4.03696 23.0192 4.28076C23.263 4.52456 23.4 4.85522 23.4 5.2C23.4 5.54478 23.263 5.87544 23.0192 6.11924C22.7754 6.36304 22.4448 6.5 22.1 6.5L22.0961 6.5923L20.969 22.3782C20.8987 23.3618 20.4583 24.2822 19.7366 24.9542C19.015 25.6262 18.0655 25.9999 17.0794 26H6.3206C5.33449 25.9999 4.38504 25.6262 3.66336 24.9542C2.94167 24.2822 2.50134 23.3618 2.431 22.3782L1.3039 6.591C1.30155 6.56072 1.30025 6.53037 1.3 6.5C0.955219 6.5 0.624558 6.36304 0.380761 6.11924C0.136964 5.87544 0 5.54478 0 5.2C0 4.85522 0.136964 4.52456 0.380761 4.28076C0.624558 4.03696 0.955219 3.9 1.3 3.9H5.564L6.2699 1.7784C6.44241 1.26046 6.77356 0.809968 7.21643 0.49077C7.65929 0.171572 8.19139 -0.00013138 8.7373 7.54246e-08H14.6627H14.664ZM19.4961 6.5H3.9039L5.0245 22.1923C5.04784 22.5202 5.19451 22.827 5.43499 23.0511C5.67547 23.2752 5.9919 23.3998 6.3206 23.4H17.0794C17.4081 23.3998 17.7245 23.2752 17.965 23.0511C18.2055 22.827 18.3522 22.5202 18.3755 22.1923L19.4961 6.5ZM9.1 10.4C9.41841 10.4 9.72574 10.5169 9.96368 10.7285C10.2016 10.9401 10.3536 11.2317 10.3909 11.5479L10.4 11.7V18.2C10.3996 18.5313 10.2728 18.85 10.0453 19.091C9.81784 19.3319 9.50696 19.4769 9.17619 19.4963C8.84541 19.5157 8.51971 19.4081 8.26562 19.1955C8.01153 18.9828 7.84823 18.6811 7.8091 18.3521L7.8 18.2V11.7C7.8 11.3552 7.93696 11.0246 8.18076 10.7808C8.42456 10.537 8.75522 10.4 9.1 10.4V10.4ZM14.3 10.4C14.6448 10.4 14.9754 10.537 15.2192 10.7808C15.463 11.0246 15.6 11.3552 15.6 11.7V18.2C15.6 18.5448 15.463 18.8754 15.2192 19.1192C14.9754 19.363 14.6448 19.5 14.3 19.5C13.9552 19.5 13.6246 19.363 13.3808 19.1192C13.137 18.8754 13 18.5448 13 18.2V11.7C13 11.3552 13.137 11.0246 13.3808 10.7808C13.6246 10.537 13.9552 10.4 14.3 10.4V10.4ZM14.664 2.6H8.736L8.3031 3.9H15.0969L14.6627 2.6H14.664Z" fill="black"/>
</svg>
