<svg width="26" height="26" viewBox="0 0 26 26" fill="none" xmlns="http://www.w3.org/2000/svg">
<path d="M9.47368 15.3684C10.5205 15.3684 11.3684 14.5205 11.3684 13.4737V12.5263C11.3684 11.4795 10.5205 10.6316 9.47368 10.6316H1.89474C0.847895 10.6316 0 11.4795 0 12.5263V13.4737C0 14.5205 0.847895 15.3684 1.89474 15.3684V17.5C1.89474 18.9353 3.06474 20.1053 4.5 20.1053H4.73684C4.73684 21.1521 5.58474 22 6.63158 22H9.47368C10.5205 22 11.3684 21.1521 11.3684 20.1053V19.1579C11.3684 18.1111 10.5205 17.2632 9.47368 17.2632H6.63158C5.75053 17.2632 5.01632 17.8695 4.80316 18.6842H4.5C3.84632 18.6842 3.31579 18.1537 3.31579 17.5V15.3684H9.47368ZM6.1579 19.1579C6.1579 18.8974 6.37105 18.6842 6.63158 18.6842H9.47368C9.73421 18.6842 9.94737 18.8974 9.94737 19.1579V20.1053C9.94737 20.3658 9.73421 20.579 9.47368 20.579H6.63158C6.37105 20.579 6.1579 20.3658 6.1579 20.1053V19.1579ZM1.42105 13.4737V12.5263C1.42105 12.2658 1.63421 12.0526 1.89474 12.0526H9.47368C9.73421 12.0526 9.94737 12.2658 9.94737 12.5263V13.4737C9.94737 13.7342 9.73421 13.9474 9.47368 13.9474H1.89474C1.63421 13.9474 1.42105 13.7342 1.42105 13.4737Z" fill="black"/>
<path fill-rule="evenodd" clip-rule="evenodd" d="M13.4999 5.70526C13.7038 5.70526 13.8848 5.83573 13.9493 6.02916L14.6441 8.11368L16.7286 8.80852C16.9221 8.87299 17.0525 9.05401 17.0525 9.25789C17.0525 9.46178 16.9221 9.6428 16.7286 9.70727L14.6441 10.4021L13.9493 12.4866C13.8848 12.6801 13.7038 12.8105 13.4999 12.8105C13.296 12.8105 13.115 12.6801 13.0505 12.4866L12.3557 10.4021L10.2712 9.70727C10.0777 9.6428 9.94727 9.46178 9.94727 9.25789C9.94727 9.05401 10.0777 8.87299 10.2712 8.80852L12.3557 8.11368L13.0505 6.02916C13.115 5.83573 13.296 5.70526 13.4999 5.70526ZM13.4999 7.67687L13.1795 8.63795C13.1324 8.77939 13.0214 8.89039 12.88 8.93753L11.9189 9.25789L12.88 9.57826C13.0214 9.6254 13.1324 9.7364 13.1795 9.87784L13.4999 10.8389L13.8203 9.87784C13.8674 9.7364 13.9784 9.6254 14.1198 9.57826L15.0809 9.25789L14.1198 8.93753C13.9784 8.89039 13.8674 8.77939 13.8203 8.63795L13.4999 7.67687Z" fill="black"/>
<path fill-rule="evenodd" clip-rule="evenodd" d="M17.2894 4C17.4117 4 17.5203 4.07828 17.559 4.19434L17.9285 5.30294L19.0371 5.67248C19.1532 5.71116 19.2315 5.81977 19.2315 5.94211C19.2315 6.06444 19.1532 6.17305 19.0371 6.21173L17.9285 6.58127L17.559 7.68988C17.5203 7.80593 17.4117 7.88421 17.2894 7.88421C17.167 7.88421 17.0584 7.80593 17.0197 7.68988L16.6502 6.58127L15.5416 6.21173C15.4255 6.17305 15.3473 6.06444 15.3473 5.94211C15.3473 5.81977 15.4255 5.71116 15.5416 5.67248L16.6502 5.30294L17.0197 4.19434C17.0584 4.07828 17.167 4 17.2894 4Z" fill="black"/>
</svg>
