<svg width="26" height="26" viewBox="0 0 26 26" fill="none" xmlns="http://www.w3.org/2000/svg">
<path d="M11.25 7.0745V5.75C11.25 5.33525 10.914 5 10.5 5C10.086 5 9.75 5.33525 9.75 5.75V6.5H8.25V5.75C8.25 5.33525 7.914 5 7.5 5C7.086 5 6.75 5.33525 6.75 5.75V6.5H5.25V5.75C5.25 5.33525 4.914 5 4.5 5C4.086 5 3.75 5.33525 3.75 5.75V6.5H2.25V5.75C2.25 5.33525 1.914 5 1.5 5C1.086 5 0.75 5.33525 0.75 5.75V7.0745C0.29025 7.487 0 8.08475 0 8.75V19.25C0 21.3177 1.68225 23 3.75 23H8.25C10.3177 23 12 21.3177 12 19.25V8.75C12 8.0855 11.7098 7.487 11.25 7.0745ZM10.5 19.25C10.5 20.4905 9.4905 21.5 8.25 21.5H3.75C2.5095 21.5 1.5 20.4905 1.5 19.25V8.75C1.5 8.336 1.83675 8 2.25 8H9.75C10.1632 8 10.5 8.336 10.5 8.75V19.25ZM9 11C9 11.4148 8.664 11.75 8.25 11.75H3.75C3.336 11.75 3 11.4148 3 11C3 10.5852 3.336 10.25 3.75 10.25H8.25C8.664 10.25 9 10.5852 9 11ZM9 14C9 14.4148 8.664 14.75 8.25 14.75H3.75C3.336 14.75 3 14.4148 3 14C3 13.5852 3.336 13.25 3.75 13.25H8.25C8.664 13.25 9 13.5852 9 14ZM6.75 17C6.75 17.4148 6.414 17.75 6 17.75H3.75C3.336 17.75 3 17.4148 3 17C3 16.5852 3.336 16.25 3.75 16.25H6C6.414 16.25 6.75 16.5852 6.75 17ZM15.75 5C14.5095 5 13.5 6.0095 13.5 7.25V19.8185C13.5 20.609 13.8203 21.3815 14.379 21.9395L15.2197 22.7803C15.366 22.9265 15.558 23 15.75 23C15.942 23 16.134 22.9265 16.2803 22.7803L17.121 21.9395C17.6797 21.3815 18 20.609 18 19.8185V7.25C18 6.0095 16.9905 5 15.75 5ZM16.5 19.8185C16.5 20.213 16.3403 20.6 16.0605 20.879L15.75 21.1895L15.4395 20.879C15.1597 20.6 15 20.213 15 19.8185V7.25C15 6.836 15.3368 6.5 15.75 6.5C16.1632 6.5 16.5 6.836 16.5 7.25V19.8185Z" fill="black"/>
</svg>
