<svg width="24" height="24" viewBox="0 0 24 24" fill="none" xmlns="http://www.w3.org/2000/svg">
<path d="M9 14L9.493 14.082C9.5049 14.0104 9.50108 13.9371 9.48178 13.8671C9.46249 13.7971 9.4282 13.7322 9.38129 13.6768C9.33438 13.6214 9.27597 13.5769 9.21013 13.5464C9.14428 13.5159 9.07258 13.5 9 13.5V14ZM20 14V14.5C20.1326 14.5 20.2598 14.4473 20.3536 14.3536C20.4473 14.2598 20.5 14.1326 20.5 14H20ZM18 3.5H6.64V4.5H18V3.5ZM5.44 14.5H9V13.5H5.44V14.5ZM8.507 13.918L7.701 18.753L8.687 18.918L9.493 14.082L8.507 13.918ZM9.18 20.5H9.393V19.5H9.18V20.5ZM12.306 18.941L14.822 15.168L13.99 14.613L11.475 18.387L12.306 18.941ZM16.07 14.5H20V13.5H16.07V14.5ZM20.5 14V6H19.5V14H20.5ZM4.188 5.51L2.988 11.51L3.968 11.706L5.168 5.706L4.188 5.51ZM14.822 15.168C14.959 14.9625 15.1445 14.7941 15.3622 14.6775C15.58 14.561 15.8231 14.5 16.07 14.5V13.5C15.6585 13.5 15.2533 13.6016 14.8905 13.7957C14.5276 13.9899 14.2183 14.2706 13.99 14.613L14.822 15.168ZM7.701 18.753C7.66513 18.9679 7.67649 19.188 7.73429 19.398C7.79209 19.608 7.89494 19.8029 8.03569 19.9692C8.17645 20.1355 8.35172 20.2691 8.54934 20.3607C8.74695 20.4524 8.96216 20.4999 9.18 20.5V19.5C9.10734 19.5001 9.03552 19.4844 8.96955 19.4539C8.90359 19.4234 8.84506 19.379 8.79803 19.3236C8.75101 19.2682 8.71663 19.2032 8.69728 19.1331C8.67793 19.0631 8.67408 18.9897 8.686 18.918L7.701 18.753ZM5.44 13.5C5.21808 13.5 4.99892 13.4508 4.79832 13.3559C4.59773 13.2609 4.42069 13.1227 4.27998 12.9511C4.13927 12.7795 4.03839 12.5788 3.98461 12.3635C3.93084 12.1482 3.9245 11.9236 3.968 11.706L2.988 11.51C2.91553 11.8726 2.92538 12.2467 3.01492 12.6054C3.10445 12.9641 3.27243 13.2985 3.50677 13.5845C3.7411 13.8705 4.03595 14.1009 4.37008 14.2592C4.7042 14.4175 5.06927 14.4998 5.439 14.5L5.44 13.5ZM6.64 3.5C6.06192 3.49989 5.50168 3.70011 5.05461 4.06658C4.60755 4.43306 4.3013 4.94314 4.188 5.51L5.168 5.706C5.23601 5.36575 5.41987 5.0596 5.68828 4.8397C5.95668 4.6198 6.29302 4.49975 6.64 4.5V3.5ZM9.394 20.5C9.97038 20.5001 10.5379 20.3578 11.046 20.0859C11.5542 19.8139 11.9874 19.4206 12.307 18.941L11.475 18.387C11.2467 18.7294 10.9374 19.0101 10.5745 19.2043C10.2117 19.3984 9.80653 19.5 9.395 19.5L9.394 20.5ZM18 4.5C18.3978 4.5 18.7794 4.65804 19.0607 4.93934C19.342 5.22064 19.5 5.60218 19.5 6H20.5C20.5 5.6717 20.4353 5.34661 20.3097 5.04329C20.1841 4.73998 19.9999 4.46438 19.7678 4.23223C19.5356 4.00009 19.26 3.81594 18.9567 3.6903C18.6534 3.56466 18.3283 3.5 18 3.5V4.5Z" fill="#151515"/>
<path d="M16 14V4" stroke="#151515"/>
</svg>
