<svg width="26" height="26" viewBox="0 0 26 26" fill="none" xmlns="http://www.w3.org/2000/svg">
<path d="M10.3274 12.0792C10.1442 12.2624 9.99891 12.48 9.89983 12.7194C9.80075 12.9588 9.74984 13.2154 9.75 13.4745V16.25H12.5428C13.0661 16.25 13.5687 16.042 13.9393 15.6715L22.1726 7.43384C22.3562 7.25069 22.5018 7.03313 22.6012 6.7936C22.7006 6.55407 22.7518 6.29729 22.7518 6.03797C22.7518 5.77864 22.7006 5.52186 22.6012 5.28233C22.5018 5.04281 22.3562 4.82524 22.1726 4.64209L21.359 3.82851C21.1758 3.64475 20.9582 3.49895 20.7186 3.39947C20.4789 3.29999 20.222 3.24878 19.9626 3.24878C19.7031 3.24878 19.4462 3.29999 19.2066 3.39947C18.967 3.49895 18.7493 3.64475 18.5662 3.82851L10.3274 12.0792Z" stroke="black" stroke-width="1.8" stroke-linecap="round" stroke-linejoin="round"/>
<path d="M22.75 12.9999C22.75 17.5965 22.75 19.8942 21.3222 21.322C19.8943 22.7499 17.5955 22.7499 13 22.7499C8.4045 22.7499 6.10567 22.7499 4.67783 21.322C3.25 19.8942 3.25 17.5954 3.25 12.9999C3.25 8.40438 3.25 6.10554 4.67783 4.67771C6.10567 3.24988 8.4045 3.24988 13 3.24988" stroke="black" stroke-width="1.8" stroke-linecap="round" stroke-linejoin="round"/>
</svg>
