<svg width="26" height="26" viewBox="0 0 26 26" fill="none" xmlns="http://www.w3.org/2000/svg">
<path d="M13.875 17.75C13.875 18.3717 13.3717 18.875 12.75 18.875C12.1283 18.875 11.625 18.3717 11.625 17.75C11.625 17.1283 12.1283 16.625 12.75 16.625C13.3717 16.625 13.875 17.1283 13.875 17.75ZM17.7803 22.7803C17.634 22.9265 17.442 23 17.25 23C17.058 23 16.866 22.9265 16.7197 22.7803L15.3533 21.4137C14.6175 21.938 13.7205 22.25 12.75 22.25C10.269 22.25 8.25 20.231 8.25 17.75C8.25 15.269 10.269 13.25 12.75 13.25C15.231 13.25 17.25 15.269 17.25 17.75C17.25 18.7205 16.938 19.6175 16.4137 20.3533L17.7803 21.7197C18.0735 22.013 18.0735 22.487 17.7803 22.7803ZM15.5557 18.3717C15.8062 17.996 15.8062 17.504 15.5557 17.1275C15.0817 16.4158 14.1908 15.4992 12.75 15.4992C11.2725 15.4992 10.374 16.4622 9.90975 17.18C9.68925 17.5205 9.68925 17.978 9.90975 18.3185C10.3748 19.0362 11.274 19.9993 12.75 19.9993C14.3947 19.9993 15.3397 18.6957 15.5557 18.371V18.3717ZM8.25 22.25C8.25 22.6647 7.914 23 7.5 23H3.75C1.68225 23 0 21.3177 0 19.25V8.75C0 6.68225 1.68225 5 3.75 5H7.13625C8.5395 5 9.858 5.54675 10.8488 6.53825L13.4618 9.15125C14.1285 9.81725 14.6032 10.652 14.8365 11.564C14.8935 11.789 14.8448 12.0268 14.7023 12.2098C14.5598 12.3927 14.3415 12.5 14.1097 12.5H9.75C8.5095 12.5 7.5 11.4905 7.5 10.25V6.51725C7.38 6.50525 7.2585 6.5 7.13625 6.5H3.75C2.5095 6.5 1.5 7.5095 1.5 8.75V19.25C1.5 20.4905 2.5095 21.5 3.75 21.5H7.5C7.914 21.5 8.25 21.8353 8.25 22.25ZM9 10.25C9 10.664 9.33675 11 9.75 11H13.0043C12.8393 10.7127 12.6375 10.448 12.4012 10.2118L9.78825 7.59875C9.54975 7.36025 9.285 7.15775 9 6.99425V10.25Z" fill="black"/>
</svg>
