<svg width="26" height="26" viewBox="0 0 26 26" fill="none" xmlns="http://www.w3.org/2000/svg">
<path fill-rule="evenodd" clip-rule="evenodd" d="M13.9819 8.93982C13.6136 8.90973 13.1372 8.9091 12.4363 8.9091H11.4545C11.0027 8.9091 10.6363 8.54278 10.6363 8.09091C10.6363 7.63905 11.0027 7.27273 11.4545 7.27273L12.4701 7.27273C13.1287 7.27272 13.6723 7.27271 14.1151 7.30889C14.575 7.34647 14.9978 7.42711 15.3949 7.62944C16.0107 7.94321 16.5113 8.44387 16.8251 9.05967C17.0274 9.45676 17.1081 9.87952 17.1456 10.3394C17.1818 10.7822 17.1818 11.3258 17.1818 11.9844V14.8334C17.1818 15.492 17.1818 16.0355 17.1456 16.4783C17.1081 16.9382 17.0274 17.361 16.8251 17.7581C16.5113 18.3739 16.0107 18.8745 15.3949 19.1883C14.9978 19.3906 14.575 19.4713 14.1151 19.5088C13.6723 19.545 13.1287 19.545 12.4701 19.545H12.2984L10.4394 21.7142C10.284 21.8956 10.057 22 9.81816 22C9.57929 22 9.35235 21.8956 9.19691 21.7142L7.33792 19.545H6.92625C6.37835 19.545 5.92609 19.545 5.55585 19.5198C5.17196 19.4936 4.81686 19.4375 4.47506 19.296C3.67298 18.9638 3.03573 18.3266 2.70356 17.5245C2.56202 17.1827 2.50596 16.8276 2.47978 16.4437C2.45452 16.0734 2.45453 15.6212 2.45453 15.0733L2.45453 15.0452C2.45453 14.5934 2.82085 14.227 3.27271 14.227C3.72458 14.227 4.0909 14.5934 4.0909 15.0452C4.0909 15.6281 4.09134 16.0244 4.11234 16.3323C4.13285 16.6329 4.17018 16.7892 4.21541 16.8984C4.38149 17.2994 4.70012 17.618 5.10116 17.7841C5.21037 17.8293 5.36663 17.8667 5.66722 17.8872C5.97516 17.9082 6.37138 17.9086 6.9543 17.9086H7.71428C7.95316 17.9086 8.1801 18.013 8.33554 18.1944L9.81817 19.9245L11.3008 18.1944C11.4563 18.013 11.6832 17.9086 11.9221 17.9086H12.4363C13.1372 17.9086 13.6136 17.908 13.9819 17.8779C14.3406 17.8486 14.524 17.7955 14.652 17.7303C14.9599 17.5734 15.2102 17.3231 15.3671 17.0152C15.4323 16.8872 15.4854 16.7038 15.5147 16.3451C15.5448 15.9768 15.5454 15.5004 15.5454 14.7995V12.0182C15.5454 11.3173 15.5448 10.8409 15.5147 10.4727C15.4854 10.114 15.4323 9.93053 15.3671 9.80257C15.2102 9.49466 14.9599 9.24433 14.652 9.08745C14.524 9.02225 14.3406 8.96913 13.9819 8.93982Z" fill="black"/>
<path fill-rule="evenodd" clip-rule="evenodd" d="M4.5 4C4.85217 4 5.16483 4.22535 5.27619 4.55945L6.06728 6.93271L8.44055 7.7238C8.77464 7.83517 9 8.14783 9 8.5C9 8.85217 8.77464 9.16483 8.44055 9.27619L6.06728 10.0673L5.27619 12.4405C5.16483 12.7746 4.85217 13 4.5 13C4.14783 13 3.83517 12.7746 3.7238 12.4405L2.93271 10.0673L0.55945 9.27619C0.225352 9.16483 0 8.85217 0 8.5C0 8.14783 0.225352 7.83517 0.55945 7.7238L2.93271 6.93271L3.7238 4.55945C3.83517 4.22535 4.14783 4 4.5 4ZM4.5 7.4055L4.35574 7.83828C4.2743 8.08259 4.08259 8.2743 3.83828 8.35574L3.4055 8.5L3.83828 8.64426C4.08259 8.7257 4.2743 8.91741 4.35574 9.16172L4.5 9.5945L4.64426 9.16172C4.7257 8.91741 4.91741 8.7257 5.16172 8.64426L5.5945 8.5L5.16172 8.35574C4.91741 8.2743 4.7257 8.08259 4.64426 7.83828L4.5 7.4055Z" fill="black"/>
<path fill-rule="evenodd" clip-rule="evenodd" d="M9.81818 10.8727C10.0295 10.8727 10.2171 11.0079 10.2839 11.2084L10.8199 12.8164L12.428 13.3525C12.6284 13.4193 12.7636 13.6069 12.7636 13.8182C12.7636 14.0295 12.6284 14.2171 12.428 14.2839L10.8199 14.8199L10.2839 16.428C10.2171 16.6284 10.0295 16.7636 9.81818 16.7636C9.60688 16.7636 9.41928 16.6284 9.35246 16.428L8.81644 14.8199L7.20839 14.2839C7.00794 14.2171 6.87272 14.0295 6.87272 13.8182C6.87272 13.6069 7.00794 13.4193 7.20839 13.3525L8.81644 12.8164L9.35246 11.2084C9.41928 11.0079 9.60688 10.8727 9.81818 10.8727Z" fill="black"/>
</svg>
