<svg width="36" height="36" viewBox="0 0 36 36" fill="none" xmlns="http://www.w3.org/2000/svg">
<rect x="2" y="2" width="32" height="32" rx="16" fill="#EBFEFF"/>
<rect x="2" y="2" width="32" height="32" rx="16" stroke="#DFF8FF" stroke-width="4"/>
<path d="M19.3327 11.5129V14.2666C19.3327 14.64 19.3327 14.8266 19.4053 14.9692C19.4693 15.0947 19.5712 15.1967 19.6967 15.2606C19.8393 15.3333 20.026 15.3333 20.3993 15.3333H23.153M23.3327 16.6587V21.4666C23.3327 22.5867 23.3327 23.1467 23.1147 23.5746C22.9229 23.9509 22.617 24.2569 22.2407 24.4486C21.8128 24.6666 21.2528 24.6666 20.1327 24.6666H15.866C14.7459 24.6666 14.1859 24.6666 13.758 24.4486C13.3817 24.2569 13.0757 23.9509 12.884 23.5746C12.666 23.1467 12.666 22.5867 12.666 21.4666V14.5333C12.666 13.4131 12.666 12.8531 12.884 12.4253C13.0757 12.0489 13.3817 11.743 13.758 11.5512C14.1859 11.3333 14.7459 11.3333 15.866 11.3333H18.0072C18.4964 11.3333 18.741 11.3333 18.9711 11.3885C19.1752 11.4375 19.3703 11.5183 19.5493 11.628C19.7511 11.7517 19.924 11.9246 20.2699 12.2705L22.3954 14.396C22.7413 14.7419 22.9143 14.9148 23.038 15.1167C23.1476 15.2956 23.2284 15.4907 23.2774 15.6948C23.3327 15.925 23.3327 16.1696 23.3327 16.6587Z" stroke="#3FBDCB" stroke-width="1.33333" stroke-linecap="round" stroke-linejoin="round"/>
</svg>
