<svg width="38" height="39" viewBox="0 0 38 39" fill="none" xmlns="http://www.w3.org/2000/svg">
<path d="M21 9.76946V13.9C21 14.4601 21 14.7401 21.109 14.954C21.2049 15.1422 21.3578 15.2951 21.546 15.391C21.7599 15.5 22.0399 15.5 22.6 15.5H26.7305M27 17.4882V24.7C27 26.3802 27 27.2202 26.673 27.862C26.3854 28.4265 25.9265 28.8854 25.362 29.173C24.7202 29.5 23.8802 29.5 22.2 29.5H15.8C14.1198 29.5 13.2798 29.5 12.638 29.173C12.0735 28.8854 11.6146 28.4265 11.327 27.862C11 27.2202 11 26.3802 11 24.7V14.3C11 12.6198 11 11.7798 11.327 11.138C11.6146 10.5735 12.0735 10.1146 12.638 9.82698C13.2798 9.5 14.1198 9.5 15.8 9.5H19.0118C19.7455 9.5 20.1124 9.5 20.4577 9.58289C20.7638 9.65638 21.0564 9.77759 21.3249 9.94208C21.6276 10.1276 21.887 10.387 22.4059 10.9059L25.5941 14.0941C26.113 14.613 26.3724 14.8724 26.5579 15.1751C26.7224 15.4436 26.8436 15.7362 26.9171 16.0423C27 16.3876 27 16.7545 27 17.4882Z" stroke="#3FBDCB" stroke-width="1.33333" stroke-linecap="round" stroke-linejoin="round"/>
</svg>
