<svg width="49" height="33" viewBox="0 0 49 33" fill="none" xmlns="http://www.w3.org/2000/svg">
<path fill-rule="evenodd" clip-rule="evenodd" d="M40.84 15.9725C40.84 11.4505 41.0262 3.52438 39.8408 0.831577C39.5697 0.238793 38.8414 0.204925 38.147 0.137188C30.881 -0.225638 23.5968 0.13163 16.4013 1.20413C15.9254 1.29549 15.7267 1.8676 16.0436 2.23408C16.1908 2.40411 16.4174 2.48279 16.6383 2.44059C18.1965 2.15262 19.5682 2.11875 28.663 1.40734C31.9259 1.35593 35.1889 1.49731 38.435 1.83078C39.248 4.59132 38.9939 8.99474 38.9262 15.9725C38.5198 28.1834 38.6721 26.3034 37.0462 26.7607C34.5059 27.489 29.8484 26.8455 20.0087 27.1333C13.4205 27.3196 11.0494 28.014 8.15335 28.1325C6.59436 28.2131 5.0312 28.1108 3.49583 27.8277C3.08941 27.5228 3.20803 25.3212 3.1403 24.6098C2.0902 13.1102 1.80223 9.19794 1.64991 7.31816C1.62525 6.70974 2.00458 6.15812 2.58138 5.96325C4.86255 5.10525 7.19947 4.40357 9.57599 3.86306C10.0055 3.88738 10.3003 3.43736 10.1064 3.05335C9.98919 2.82096 9.7271 2.70042 9.47439 2.76225C8.57679 2.84701 1.26034 3.82919 0.345718 5.06565C-0.568903 6.30211 0.532081 12.9747 1.32808 24.7792C1.41283 25.9477 1.02326 28.3188 2.29341 29.3351C3.10903 29.7934 4.03408 30.0218 4.96937 29.9954C7.54337 30.2386 10.1379 30.1589 12.6922 29.7583C21.8885 28.6914 34.3027 29.7583 37.6052 28.8439C39.0617 28.4373 40.6198 28.4034 40.7553 26.1341C40.8739 24.9994 40.6368 28.1327 40.84 15.9725Z" fill="#151515"/>
<path fill-rule="evenodd" clip-rule="evenodd" d="M35.5386 7.50431C36.0209 7.50431 36.3224 6.98204 36.0812 6.56433C35.9693 6.37049 35.7625 6.251 35.5386 6.251C29.865 6.11553 25.5462 5.59048 18.7379 7.33496C18.3143 7.41312 18.134 7.9208 18.4137 8.24854C18.5434 8.40069 18.7445 8.47207 18.9411 8.43577C22.1251 8.16483 22.9888 8.84237 35.5386 7.50431Z" fill="#151515"/>
<path fill-rule="evenodd" clip-rule="evenodd" d="M18.0781 15.7352C23.548 15.9965 29.03 15.6442 34.4215 14.6853C34.9038 14.6396 35.156 14.0889 34.8753 13.6939C34.7451 13.5107 34.5267 13.4108 34.3029 13.432C27.8333 13.6184 27.4439 13.0086 17.9597 14.6344C17.5296 14.6214 17.2465 15.0787 17.4503 15.4577C17.5713 15.683 17.8299 15.7974 18.0781 15.7352Z" fill="#151515"/>
<path fill-rule="evenodd" clip-rule="evenodd" d="M10.9317 21.6122C10.3728 21.6122 9.23808 21.6122 9.03469 22.188C8.94542 22.4775 9.1033 22.7856 9.3904 22.8824C9.94688 23.0175 10.5275 23.0175 11.084 22.8824C19.276 22.8699 27.4579 22.304 35.5736 21.1888C36.056 21.1888 36.3575 20.6665 36.1162 20.2488C36.0044 20.055 35.7975 19.9355 35.5736 19.9355C19.7554 20.3251 22.2279 20.1557 10.9317 21.6122Z" fill="#151515"/>
<path d="M8.59448 13.8814C8.9108 14.2522 9.16589 14.6691 9.3505 15.1169C9.37311 15.173 9.39749 15.2283 9.41831 15.285L9.47385 15.4577C9.49149 15.5155 9.51221 15.5723 9.527 15.6309L9.5677 15.8077C9.5801 15.8669 9.59695 15.9249 9.60535 15.9849L9.6305 16.1646L9.64282 16.2544C9.64706 16.284 9.65116 16.3139 9.65329 16.3469C9.65827 16.4115 9.6608 16.4782 9.65909 16.5477C9.65738 16.6726 9.63662 16.7965 9.59748 16.9154C9.57315 16.9847 9.54061 17.0509 9.50052 17.1128C9.45587 17.1787 9.40176 17.2381 9.33984 17.2889L9.33545 17.2926C9.28419 17.3346 9.22112 17.3605 9.15452 17.3669C9.08792 17.3733 9.0209 17.3599 8.96226 17.3283C8.90363 17.2968 8.85611 17.2487 8.82596 17.1903C8.79581 17.1318 8.78443 17.0659 8.79332 17.001C8.83479 16.7006 8.89371 16.4027 8.96978 16.1088C9.09353 15.6175 9.28527 15.1449 9.5397 14.7043C9.80042 14.2537 10.1411 13.8522 10.5459 13.5185C10.9603 13.1838 11.4389 12.9333 11.9536 12.7819C12.4824 12.6282 13.0414 12.6025 13.5826 12.707C13.6621 12.7231 13.7345 12.7629 13.7899 12.8209C13.8453 12.8789 13.8808 12.9523 13.8916 13.031C13.9025 13.1096 13.8881 13.1896 13.8504 13.2599C13.8127 13.3302 13.7536 13.3873 13.6813 13.4233L13.6741 13.4268C13.498 13.5119 13.3093 13.5694 13.1149 13.5971C12.9361 13.6216 12.7553 13.6286 12.5752 13.6181C12.4025 13.6097 12.238 13.5897 12.0799 13.5676C11.9222 13.5449 11.7717 13.5228 11.6084 13.4937C11.3734 13.455 11.1435 13.3914 10.9227 13.304C10.8018 13.2544 10.6862 13.1933 10.5776 13.1216C10.4667 13.0476 10.3643 12.962 10.2723 12.8665C10.1014 12.6834 9.9617 12.4745 9.85868 12.248C9.76324 12.0387 9.68833 11.8211 9.63495 11.598C9.41951 10.7335 9.43771 9.82906 9.68776 8.9735L9.68813 8.97225C9.71002 8.89768 9.75373 8.831 9.81389 8.78042C9.87405 8.72984 9.94803 8.69756 10.0267 8.68758C10.1054 8.67759 10.1854 8.69032 10.2567 8.7242C10.3281 8.75808 10.3878 8.81164 10.4284 8.87827C10.5558 9.09469 10.6248 9.33925 10.6288 9.58893C10.633 9.8078 10.6052 10.0261 10.5465 10.2374C10.5206 10.3393 10.4869 10.4336 10.4549 10.5288C10.4191 10.6228 10.3842 10.7172 10.3416 10.8083C10.2605 10.992 10.1654 11.1694 10.0571 11.3391C9.62657 12.0244 9.0025 12.5734 8.2601 12.9198C7.78781 13.1362 7.27494 13.2551 6.75353 13.2691C6.54895 13.276 6.34466 13.2486 6.14956 13.188C6.10999 13.1751 6.073 13.1617 6.03849 13.1476C6.00408 13.1321 5.97213 13.1164 5.94264 13.1002C5.88865 13.072 5.83843 13.0374 5.7931 12.9972C5.67386 12.8921 5.69651 12.8076 5.81495 12.7523C5.93384 12.6982 6.14865 12.6696 6.44048 12.641L6.58031 12.6262L6.72179 12.6077C6.81646 12.5936 6.9124 12.5818 7.00794 12.5643C7.19868 12.5314 7.38724 12.4873 7.57261 12.4323C7.93033 12.3236 8.26616 12.1552 8.56533 11.9348C9.1699 11.4905 9.60902 10.8648 9.81554 10.1535C9.86486 9.9914 9.88988 9.82319 9.88984 9.6541C9.89204 9.51454 9.85371 9.37723 9.7793 9.25811L10.4152 9.17635C10.3505 9.42802 10.31 9.68508 10.2943 9.94414C10.264 10.4225 10.3307 10.9143 10.415 11.3662C10.4733 11.6883 10.5755 11.9932 10.7416 12.2275C10.8199 12.3403 10.919 12.4376 11.0339 12.5147C11.1592 12.5926 11.2957 12.6517 11.4388 12.6902C11.6021 12.7343 11.7679 12.7688 11.9354 12.7934C12.1139 12.8216 12.2915 12.8499 12.4587 12.8666C12.795 12.902 13.1047 12.8886 13.3415 12.7751L13.4233 13.4186L13.3059 13.3969L13.2473 13.3855L13.1878 13.3787L13.0687 13.3646L12.9484 13.3587C12.6749 13.3485 12.4015 13.3798 12.1378 13.4515C11.8694 13.5252 11.612 13.633 11.3723 13.7722C11.131 13.9117 10.9084 14.0797 10.7093 14.2726C10.5084 14.4685 10.3299 14.6851 10.177 14.9188C9.75732 15.5528 9.50976 16.3036 9.40698 17.0709L8.94261 16.8263C8.97031 16.8035 8.99126 16.7738 9.00327 16.7404C9.0226 16.6884 9.03362 16.6338 9.03594 16.5785C9.03961 16.5098 9.03775 16.4409 9.03039 16.3725L8.997 16.1436C8.98556 16.0672 8.96974 15.9914 8.94961 15.9167L8.92305 15.8036C8.91496 15.7656 8.89978 15.7295 8.88854 15.6923C8.8634 15.6188 8.84197 15.5439 8.81413 15.4711L8.72296 15.2553C8.59085 14.9701 8.42658 14.7002 8.23322 14.4506C8.03527 14.2026 7.81122 13.9757 7.56477 13.7736C7.25356 13.5248 6.91482 13.3109 6.55489 13.1358C6.53325 13.1247 6.51198 13.1128 6.49019 13.1023L6.42381 13.0738L6.29189 13.0154C6.20525 12.9724 6.11503 12.9438 6.02661 12.909L5.89408 12.8573C5.85069 12.842 5.8077 12.8283 5.76444 12.8176C5.67899 12.7916 5.58754 12.7912 5.50186 12.8165C5.4809 12.8243 5.46184 12.8339 5.44678 12.8406C5.44647 12.8407 5.44619 12.8409 5.44595 12.8412C5.44572 12.8414 5.44553 12.8417 5.44541 12.842L5.44368 12.8468C5.43801 12.864 5.43923 12.8827 5.44707 12.8991C5.45417 12.9142 5.46434 12.9277 5.47696 12.9387C5.49975 12.9586 5.52827 12.9712 5.55862 12.9747C5.57297 12.9766 5.58757 12.9755 5.60145 12.9714C5.61387 12.9691 5.62609 12.9659 5.63803 12.9618C5.65814 12.9544 5.6728 12.9497 5.68112 12.9549C5.68918 12.9598 5.69157 12.9753 5.6797 13.0017C5.67101 13.0178 5.65944 13.0323 5.64555 13.0444C5.62886 13.0639 5.60714 13.0787 5.58263 13.0872C5.52387 13.1105 5.45857 13.1126 5.39839 13.0931C5.35389 13.0787 5.31395 13.0532 5.28247 13.0193C5.25987 12.9946 5.24204 12.9662 5.22984 12.9353C5.21586 12.8987 5.20952 12.8597 5.2112 12.8207C5.21236 12.791 5.22222 12.7624 5.23961 12.7381L5.28323 12.677C5.30609 12.6448 5.33288 12.6155 5.36301 12.5897C5.37981 12.5754 5.39766 12.5622 5.41642 12.5504C5.43641 12.5394 5.45714 12.5298 5.47848 12.5216C5.57932 12.4841 5.68659 12.466 5.79444 12.4681C5.87871 12.4685 5.96281 12.4757 6.04586 12.4897L6.2742 12.5252L6.33165 12.5349L6.38794 12.5488L6.50091 12.5773C6.80546 12.6547 7.09958 12.7671 7.37713 12.9121C7.83557 13.163 8.24392 13.4928 8.58254 13.8855C8.5864 13.8842 8.58998 13.8829 8.59448 13.8814Z" fill="#3FBDCB"/>
<path fill-rule="evenodd" clip-rule="evenodd" d="M47.7377 5.22982C46.9609 4.62555 46.0285 4.16121 45.0043 3.86853C44.3171 3.69992 43.6164 3.56803 42.9069 3.47375C41.5316 3.47375 41.4284 4.19524 42.2708 4.5764C42.648 4.7868 43.0748 4.93495 43.5258 5.01201C44.6086 5.22125 45.6076 5.64253 46.4312 6.23717C46.5835 6.38922 46.6954 6.56404 46.7604 6.75116C46.8254 6.93828 46.8421 7.13386 46.8094 7.3262C46.775 8.21103 46.3452 9.17755 46.3452 9.83097C46.1905 10.9744 45.9842 12.1179 45.7951 13.2614C45.3137 15.984 44.7808 18.7066 44.3166 21.3338L42.374 32.2241C38.9357 32.1016 35.4974 31.8158 32.1966 31.4618C30.9245 31.3257 28.0879 30.6995 27.1595 30.7267C25.6982 30.7267 25.6295 31.7205 27.2799 31.9927C28.9302 32.265 30.7182 32.4692 32.0935 32.5781C35.5318 32.8322 38.9701 32.9728 42.4084 33.0001C43.8181 32.932 43.1476 32.8367 45.7091 21.5653C46.1905 19.2647 46.775 16.9777 47.2564 14.7588C47.5773 13.207 47.8523 11.6551 48.0816 10.1032C48.4026 9.06842 48.5869 8.01001 48.6317 6.94504C48.6119 6.30542 48.2934 5.69432 47.7377 5.22982Z" fill="#3FBDCB"/>
</svg>
