<svg width="26" height="26" viewBox="0 0 26 26" fill="none" xmlns="http://www.w3.org/2000/svg">
<path d="M15.3516 5.4763L11.0865 4.16662C9.12574 3.56879 7.03146 4.66468 6.41712 6.59695L6.2761 7.00125H3.74976C1.68248 7.00125 0 8.68373 0 10.7518V18.2528C0 20.3208 1.68248 22.0033 3.75051 22.0033H8.25112C9.44829 22.0033 10.5044 21.4287 11.1915 20.5526C11.3648 20.5766 11.5373 20.5916 11.7076 20.5916C13.3331 20.5916 14.816 19.531 15.2893 17.9182L17.8494 10.1194C18.4248 8.15941 17.3041 6.07638 15.3508 5.47705L15.3516 5.4763ZM8.25112 20.5031H3.75051C2.50984 20.5031 1.5002 19.4935 1.5002 18.2528V10.7518C1.5002 9.51109 2.50984 8.50146 3.75051 8.50146H8.25112C9.49179 8.50146 10.5014 9.51109 10.5014 10.7518V18.2528C10.5014 19.4935 9.49179 20.5031 8.25112 20.5031ZM16.4175 9.67312L13.8581 17.4719C13.5896 18.3826 12.7982 18.9886 11.9056 19.0711C11.9649 18.8064 12.0016 18.5341 12.0016 18.252V10.7518C12.0016 8.68373 10.3192 7.00125 8.25112 7.00125H7.87082C8.27138 5.87535 9.49329 5.24526 10.6462 5.60081L14.9113 6.91049C16.0829 7.26979 16.7558 8.52021 16.4175 9.67387V9.67312Z" fill="black"/>
</svg>
