<svg width="38" height="38" viewBox="0 0 38 38" fill="none" xmlns="http://www.w3.org/2000/svg">
<path d="M11.9144 19.5948C12.4758 17.6991 14.2499 16.375 16.2277 16.375H30.4863C31.435 16.375 32.3 16.8881 32.2436 17.8351C32.1951 18.6504 31.9812 19.5541 31.8294 20.0616L30.1058 26.9421C29.3723 29.389 27.2078 31 24.7035 31H10.5757C9.93103 31 9.32127 30.8684 8.74414 30.6681L11.9144 19.5948Z" fill="#3FBDCB"/>
<path d="M7.30633 29.2232C6.6415 28.3615 6.24414 27.2905 6.24414 26.125V11.5C6.24414 9.2944 8.03855 7.5 10.2442 7.5H12.4942C12.9391 7.5 13.3845 7.60477 13.7804 7.80271L17.3297 9.57794L17.3298 9.57796C17.5555 9.69084 17.8066 9.74887 18.0563 9.74887H23.7443C26.4012 9.74887 28.593 11.7821 28.8452 14.3739H17.0213C13.8317 14.3739 10.9762 16.5066 10.0685 19.5728L10.0685 19.5728L10.0672 19.5772L7.30633 29.2232Z" stroke="#151515" stroke-opacity="0.9"/>
</svg>
