<svg width="23" height="22" viewBox="0 0 23 22" fill="none" xmlns="http://www.w3.org/2000/svg">
<path d="M20.489 9.20463H19.7507V9.16659H11.5007V12.8333H16.6812C15.9254 14.9677 13.8945 16.4999 11.5007 16.4999C8.46328 16.4999 6.00065 14.0373 6.00065 10.9999C6.00065 7.96254 8.46328 5.49992 11.5007 5.49992C12.9027 5.49992 14.1782 6.02884 15.1494 6.89279L17.7422 4.3C16.1051 2.77421 13.9152 1.83325 11.5007 1.83325C6.43836 1.83325 2.33398 5.93763 2.33398 10.9999C2.33398 16.0622 6.43836 20.1666 11.5007 20.1666C16.5629 20.1666 20.6673 16.0622 20.6673 10.9999C20.6673 10.3853 20.6041 9.78534 20.489 9.20463Z" fill="#FFC107"/>
<path d="M3.39062 6.73329L6.40233 8.942C7.21725 6.92442 9.19083 5.49992 11.5004 5.49992C12.9024 5.49992 14.178 6.02883 15.1492 6.89279L17.742 4.3C16.1048 2.77421 13.9149 1.83325 11.5004 1.83325C7.97946 1.83325 4.92604 3.82104 3.39062 6.73329Z" fill="#FF3D00"/>
<path d="M11.5005 20.1667C13.8682 20.1667 16.0196 19.2606 17.6463 17.7871L14.8092 15.3863C13.8581 16.1101 12.6956 16.5014 11.5005 16.5001C9.11622 16.5001 7.09176 14.9798 6.32909 12.8582L3.33984 15.1613C4.85693 18.1299 7.93784 20.1667 11.5005 20.1667Z" fill="#4CAF50"/>
<path d="M20.4884 9.20479H19.75V9.16675H11.5V12.8334H16.6805C16.319 13.8493 15.6678 14.737 14.8073 15.3868L14.8087 15.3859L17.6458 17.7866C17.445 17.969 20.6667 15.5834 20.6667 11.0001C20.6667 10.3855 20.6034 9.7855 20.4884 9.20479Z" fill="#1976D2"/>
</svg>
