<svg width="33" height="33" viewBox="0 0 33 33" fill="none" xmlns="http://www.w3.org/2000/svg">
<g clip-path="url(#clip0_479_43377)">
<path fill-rule="evenodd" clip-rule="evenodd" d="M27.8584 31.0475C22.3584 30.6075 17.2571 31.3088 11.9084 31.3088C10.6296 31.3088 9.30963 31.3088 7.98963 31.1575C7.23338 31.1575 5.33588 31.1575 3.69963 30.9375C2.77838 30.8138 1.91213 30.69 1.60963 30.2363C1.4892 29.9018 1.45607 29.5421 1.51338 29.1913C1.51338 28.3113 1.63713 27.3213 1.63713 26.9225C1.63713 24.0488 1.56838 20.2538 1.63713 16.8163C1.63713 15.2763 1.63713 13.805 1.74713 12.5125C1.74713 11.7288 1.82963 10.945 1.84338 10.1475C1.93963 7.02626 1.84338 3.90501 2.00838 0.78376C2.01228 0.727952 2.00439 0.671948 1.98522 0.619389C1.96606 0.56683 1.93605 0.518891 1.89714 0.47869C1.85824 0.438488 1.81131 0.406922 1.75941 0.386045C1.70751 0.365168 1.65179 0.355446 1.59588 0.357511C1.49473 0.35727 1.39726 0.395485 1.32322 0.464417C1.24918 0.533348 1.20411 0.627843 1.19713 0.72876C0.977134 3.47876 0.922134 6.22876 0.784634 8.97876C0.729634 10.1063 0.647134 11.275 0.550884 12.375C0.399634 14.135 0.303384 16.1563 0.234634 18.2463C0.152134 21.2713 0.152134 24.4338 0.138384 26.9225C0.138384 27.39 -0.0128663 28.6138 0.000883743 29.5763C-0.00765781 30.0979 0.115288 30.6134 0.358384 31.075C0.979928 31.7611 1.83082 32.1963 2.75088 32.2988C4.45263 32.5013 6.16612 32.5886 7.87963 32.56C9.25463 32.6425 10.6296 32.6563 11.9221 32.56C17.2571 32.4363 22.2759 31.5975 27.8034 31.8863C27.9184 31.8871 28.0297 31.8454 28.1159 31.7693C28.2022 31.6932 28.2574 31.588 28.2709 31.4738C28.2647 31.365 28.2197 31.2622 28.1439 31.1839C28.0682 31.1056 27.9668 31.0572 27.8584 31.0475Z" fill="#020202"/>
<path fill-rule="evenodd" clip-rule="evenodd" d="M9.62574 8.6625C9.52585 8.38599 9.36911 8.13349 9.16564 7.92129C8.96217 7.70908 8.71648 7.54187 8.44441 7.43045C8.17235 7.31904 7.87995 7.26588 7.58607 7.27442C7.2922 7.28295 7.00338 7.35298 6.73824 7.48C6.30615 7.72047 5.94128 8.06549 5.67704 8.48347C5.4128 8.90145 5.25763 9.37903 5.22574 9.8725C5.19646 10.1385 5.22637 10.4077 5.31333 10.6608C5.40029 10.9139 5.54215 11.1447 5.72875 11.3365C5.91534 11.5284 6.14205 11.6766 6.39265 11.7705C6.64324 11.8645 6.91151 11.9019 7.17824 11.88C7.38234 11.875 7.58526 11.8474 7.78324 11.7975C8.05221 11.7123 8.31424 11.6066 8.56699 11.4813C8.62019 11.4559 8.66735 11.4195 8.7053 11.3745C8.74325 11.3294 8.7711 11.2767 8.78699 11.22C9.14572 10.9099 9.41331 10.5081 9.56106 10.0576C9.70882 9.60704 9.73118 9.12478 9.62574 8.6625ZM8.15449 10.505C8.08323 10.5362 8.02151 10.5857 7.97562 10.6485C7.92973 10.7113 7.9013 10.7851 7.89324 10.8625H7.71449C7.55934 10.8831 7.40214 10.8831 7.24699 10.8625C7.0768 10.8507 6.91616 10.7795 6.79304 10.6614C6.66993 10.5433 6.59214 10.3858 6.57324 10.2163C6.57873 10.0103 6.63042 9.80827 6.72449 9.625C6.85939 9.29412 7.1015 9.01811 7.41199 8.84125C7.96199 8.525 8.47074 9.00625 8.60824 9.515C8.57151 9.57249 8.55199 9.63928 8.55199 9.7075C8.55199 9.77572 8.57151 9.84252 8.60824 9.9C8.59104 10.0314 8.54024 10.1561 8.46076 10.262C8.38127 10.368 8.27578 10.4517 8.15449 10.505Z" fill="#020202"/>
<path fill-rule="evenodd" clip-rule="evenodd" d="M27.5017 6.24251C27.8835 6.56694 28.3768 6.72971 28.8767 6.69626C29.0812 6.69684 29.2848 6.66907 29.4817 6.61376C29.7492 6.537 30.0075 6.43094 30.2517 6.29751C30.3065 6.27231 30.3555 6.23611 30.3957 6.19117C30.4359 6.14623 30.4665 6.0935 30.4855 6.03626C30.9261 5.80226 31.2569 5.40412 31.4062 4.92802C31.5554 4.45193 31.5112 3.93621 31.283 3.49251C31.186 3.21526 31.0318 2.96154 30.8302 2.74791C30.6287 2.53428 30.3844 2.36553 30.1132 2.25266C29.8421 2.13979 29.5502 2.08533 29.2566 2.09285C28.963 2.10036 28.6742 2.16967 28.4092 2.29626C27.9761 2.53895 27.6107 2.88636 27.3464 3.30672C27.0822 3.72708 26.9276 4.20697 26.8967 4.70251C26.8834 4.83509 26.8834 4.96868 26.8967 5.10126C26.9661 5.53827 27.179 5.93977 27.5017 6.24251ZM29.8667 5.32126C29.7937 5.34985 29.7303 5.39867 29.6841 5.46198C29.6378 5.5253 29.6105 5.6005 29.6055 5.67876H29.4267C29.272 5.70545 29.1139 5.70545 28.9592 5.67876C28.8423 5.6663 28.7297 5.6277 28.6297 5.56582C28.5298 5.50393 28.445 5.42035 28.3817 5.32126L28.478 5.21126C28.5594 5.12889 28.6051 5.01772 28.6051 4.90188C28.6051 4.78604 28.5594 4.67488 28.478 4.59251C28.478 4.59251 28.3817 4.59251 28.3405 4.59251C28.335 4.54684 28.335 4.50068 28.3405 4.45501C28.4656 4.11478 28.7099 3.83144 29.028 3.65751C29.578 3.32751 30.0867 3.83626 30.2242 4.34501C30.2781 4.52736 30.2695 4.7225 30.1997 4.89939C30.13 5.07629 30.0031 5.22478 29.8392 5.32126H29.8667Z" fill="#020202"/>
<path fill-rule="evenodd" clip-rule="evenodd" d="M10.1905 11L10.3692 11.1238L11.9917 12.2238C12.088 12.2238 12.3355 12.4988 12.528 12.6088C12.6556 12.674 12.7972 12.707 12.9405 12.705C13.1971 12.6785 13.4359 12.5615 13.6142 12.375C13.9451 12.0085 14.2355 11.6075 14.4805 11.1788C14.9549 10.5414 15.4645 9.93086 16.0067 9.35001C17.1067 8.18126 17.2992 8.55251 18.2205 8.95126L20.888 10.175C21.218 10.34 21.658 10.6288 22.0842 10.8213C22.3149 10.9302 22.5605 11.0043 22.813 11.0413C22.9154 11.0535 23.0192 11.0426 23.1168 11.0092C23.2144 10.9759 23.3032 10.9211 23.3767 10.8488C23.4592 10.7663 23.638 10.505 23.6655 10.4775L24.5867 9.35001C25.178 8.63501 25.7967 7.97501 26.4292 7.24626C27.0342 6.57251 26.6905 5.87126 25.9755 6.24251L25.6455 6.54501C24.9442 7.20501 24.2705 7.92001 23.6105 8.58001L22.648 9.63876L22.4692 9.54251C22.1392 9.35001 21.7955 9.10251 21.5342 8.93751L20.4205 8.36001C19.8705 8.09876 19.3067 7.86501 18.7567 7.61751C18.316 7.40356 17.8555 7.23316 17.3817 7.10876C17.0473 6.9956 16.6849 6.9956 16.3505 7.10876C15.7698 7.42949 15.2563 7.85897 14.838 8.37376C14.317 9.05232 13.8481 9.76937 13.4355 10.5188C13.3392 10.6563 13.0092 11.0688 12.7617 11.4125L12.5692 11.3438L10.8917 10.395L10.5205 10.175C9.62671 10.1475 9.54421 10.45 10.1905 11Z" fill="#3FBDCB"/>
<path fill-rule="evenodd" clip-rule="evenodd" d="M6.98682 22.385C6.7167 22.2632 6.42377 22.2002 6.12744 22.2002C5.83112 22.2002 5.53818 22.2632 5.26807 22.385C4.84048 22.6343 4.47957 22.9833 4.21619 23.4023C3.9528 23.8213 3.79476 24.2979 3.75557 24.7913C3.72524 25.0593 3.75547 25.3306 3.84405 25.5854C3.93262 25.8401 4.07727 26.0717 4.26732 26.2631C4.45736 26.4545 4.68796 26.6007 4.94208 26.691C5.19621 26.7814 5.46737 26.8135 5.73557 26.785C5.94014 26.7865 6.14387 26.7587 6.34057 26.7025C6.61374 26.6295 6.87695 26.5233 7.12432 26.3863C7.17861 26.3626 7.22671 26.3267 7.26487 26.2814C7.30303 26.2361 7.33022 26.1826 7.34432 26.125C7.78738 25.8934 8.12113 25.4963 8.27304 25.02C8.42494 24.5437 8.38273 24.0266 8.15557 23.5813C7.92468 23.0535 7.50909 22.6281 6.98682 22.385ZM6.71182 25.465C6.64161 25.4939 6.58038 25.5409 6.53445 25.6014C6.48852 25.6618 6.45956 25.7334 6.45057 25.8088H6.27182C6.11666 25.8292 5.95948 25.8292 5.80432 25.8088C5.63321 25.7997 5.47107 25.7294 5.34741 25.6108C5.22375 25.4922 5.1468 25.3331 5.13057 25.1625C5.12257 24.9375 5.17478 24.7144 5.28182 24.5163C5.41289 24.183 5.656 23.9059 5.96932 23.7325C6.51932 23.4025 7.04182 23.8975 7.16557 24.42C7.23881 24.6191 7.23253 24.8388 7.14803 25.0334C7.06353 25.228 6.90731 25.3826 6.71182 25.465Z" fill="#020202"/>
<path fill-rule="evenodd" clip-rule="evenodd" d="M32.824 12.9938C32.7238 12.7174 32.5671 12.4649 32.3639 12.2524C32.1607 12.0398 31.9155 11.872 31.6438 11.7594C31.3722 11.6469 31.0801 11.5922 30.7862 11.5987C30.4922 11.6053 30.2029 11.673 29.9365 11.7975C29.505 12.0421 29.1409 12.39 28.8769 12.81C28.613 13.2299 28.4573 13.7089 28.424 14.2038C28.403 14.6914 28.5378 15.173 28.809 15.5788C29.2543 15.9692 29.8137 16.2055 30.404 16.2525C30.6086 16.254 30.8123 16.2262 31.009 16.17C31.2799 16.0961 31.5425 15.9948 31.7928 15.8675C31.848 15.8416 31.8966 15.8033 31.9348 15.7556C31.9729 15.7079 31.9996 15.6521 32.0128 15.5925C32.2393 15.478 32.4405 15.3191 32.6046 15.1254C32.7686 14.9316 32.8921 14.707 32.9678 14.4646C33.0434 14.2223 33.0697 13.9673 33.045 13.7146C33.0203 13.462 32.9451 13.2169 32.824 12.9938ZM31.3803 14.8363C31.3063 14.8634 31.242 14.9118 31.1955 14.9754C31.149 15.0391 31.1224 15.115 31.119 15.1938H30.9403C30.7856 15.2205 30.6275 15.2205 30.4728 15.1938C30.3029 15.1879 30.1409 15.1205 30.017 15.0042C29.893 14.8879 29.8156 14.7304 29.799 14.5613C29.7899 14.3317 29.8421 14.1039 29.9503 13.9013C30.0852 13.5704 30.3273 13.2944 30.6378 13.1175C31.1878 12.7875 31.7103 13.2963 31.834 13.805C31.9032 14.0024 31.8948 14.2187 31.8106 14.4102C31.7263 14.6016 31.5725 14.7539 31.3803 14.8363Z" fill="#020202"/>
<path fill-rule="evenodd" clip-rule="evenodd" d="M28.7537 16.8163C29.2762 16.2525 28.9737 15.4413 28.3137 15.9363C28.1624 16.0738 27.9974 16.1975 27.8462 16.3488C27.4062 16.775 26.9662 17.2288 26.5674 17.7238C26.1687 18.2188 25.8249 18.8238 24.8899 18.2188C24.3653 17.7985 23.8735 17.3388 23.4187 16.8438C23.1134 16.5199 22.7666 16.2379 22.3874 16.005C22.2606 15.9344 22.1201 15.8917 21.9755 15.8799C21.8308 15.868 21.6853 15.8872 21.5487 15.9363C20.9719 16.1816 20.4345 16.5105 19.9537 16.9125C19.108 17.6814 18.322 18.5134 17.6024 19.4013C17.0487 20.0913 16.3898 20.6899 15.6499 21.175C15.5276 21.0298 15.4128 20.8784 15.3062 20.7213C14.8524 20.3088 14.3299 19.7588 13.7662 19.3463C13.3621 19.0156 12.8939 18.7721 12.3912 18.6313C11.9083 18.4875 11.3894 18.5267 10.9337 18.7413C10.4201 19.0608 9.9567 19.4546 9.55866 19.91L7.94991 21.4225C7.27616 22.1925 7.94991 22.385 8.82991 21.8213L10.2049 20.5838C10.537 20.2288 10.922 19.9274 11.3462 19.69C11.5584 19.6072 11.794 19.6072 12.0062 19.69C12.3498 19.8169 12.6635 20.0135 12.9274 20.2675C13.4362 20.6938 13.8899 21.2438 14.3024 21.6425C14.3024 21.6425 14.8387 22.2475 15.0587 22.4263C15.1743 22.5253 15.3144 22.5916 15.4643 22.6182C15.6142 22.6448 15.7685 22.6307 15.9112 22.5775C16.4812 22.3122 17.0093 21.9648 17.4787 21.5463C18.3006 20.7665 19.0722 19.9352 19.7887 19.0575C20.3443 18.3643 21.0083 17.7653 21.7549 17.2838C22.0113 17.3989 22.2516 17.5468 22.4699 17.7238C23.0906 18.3468 23.7776 18.9001 24.5187 19.3738C24.9194 19.5953 25.3672 19.7179 25.8249 19.7313C26.0632 19.7176 26.2903 19.6257 26.4712 19.47C26.8011 19.1277 27.0917 18.7495 27.3374 18.3425C27.7087 17.8888 28.0937 17.435 28.5062 16.9675L28.7262 16.7475L28.7537 16.8163Z" fill="#3FBDCB"/>
</g>
<defs>
<clipPath id="clip0_479_43377">
<rect width="33" height="33" fill="white"/>
</clipPath>
</defs>
</svg>
