<svg width="34" height="33" viewBox="0 0 34 33" fill="none" xmlns="http://www.w3.org/2000/svg">
<g clip-path="url(#clip0_479_43337)">
<path d="M33.1965 22.5913C32.9271 21.6303 32.5391 20.7065 32.0415 19.8413C31.2901 18.5829 30.283 17.4962 29.0853 16.6513C29.2818 16.2299 29.4563 15.7984 29.6078 15.3588C29.9322 14.4519 30.0588 13.4861 29.979 12.5263C29.9322 12.0792 29.784 11.6486 29.5458 11.2674C29.3075 10.8862 28.9854 10.5643 28.604 10.3263C28.1816 10.0588 27.6822 9.93926 27.1844 9.98655C26.6865 10.0338 26.2186 10.2453 25.854 10.5875C25.0741 11.2739 24.4224 12.0933 23.929 13.0075C23.4797 13.9014 23.0804 14.8195 22.7328 15.7575C21.9296 15.8596 21.1516 16.1066 20.4365 16.4863C20.0542 16.689 19.6986 16.9384 19.3778 17.2288C19.0575 17.5374 18.7759 17.8837 18.539 18.26L18.154 19.1125C17.9203 20.13 18.264 20.6663 18.8553 20.8863C19.3909 21.0645 19.9697 21.0645 20.5053 20.8863C20.5053 20.8863 18.9378 24.1038 18.924 24.2413C18.7247 24.8557 18.5775 25.4859 18.484 26.125C18.4243 26.5814 18.4243 27.0437 18.484 27.5C18.5268 27.7616 18.5912 28.0191 18.6765 28.27C18.7565 28.4642 18.8962 28.628 19.0753 28.7375C19.3466 28.8911 19.6662 28.9354 19.969 28.8613C20.3621 28.7558 20.7341 28.5837 21.069 28.3525L21.8665 27.5963L22.6228 26.6338C22.7669 26.6035 22.9058 26.5526 23.0353 26.4825C23.3219 26.2994 23.5891 26.0874 23.8328 25.85C24.1908 25.4913 24.509 25.0948 24.7815 24.6675C25.0102 24.2878 25.2123 23.8927 25.3865 23.485C25.4726 23.5313 25.5654 23.5638 25.6615 23.5813C25.9618 23.6629 26.2716 23.7045 26.5828 23.705H27.1328C27.0711 23.9168 27.0251 24.1328 26.9953 24.3513C26.968 24.5704 26.968 24.7921 26.9953 25.0113C27.0385 25.228 27.103 25.4398 27.1878 25.6438C27.4114 26.1312 27.7514 26.5561 28.1778 26.8813C28.2176 26.9233 28.2656 26.9568 28.3188 26.9797C28.372 27.0025 28.4293 27.0143 28.4872 27.0143C28.5451 27.0143 28.6024 27.0025 28.6556 26.9797C28.7087 26.9568 28.7567 26.9233 28.7965 26.8813C28.878 26.7989 28.9237 26.6878 28.9237 26.5719C28.9237 26.4561 28.878 26.3449 28.7965 26.2625C28.6963 26.0798 28.6179 25.886 28.5628 25.685C28.5628 25.4788 28.5628 25.2725 28.4803 25.0525C28.3978 24.8325 28.4803 24.64 28.384 24.42C28.1915 23.43 28.1778 23.1825 28.1228 23.045C28.139 22.9468 28.1166 22.8461 28.0602 22.7641C28.0038 22.682 27.9178 22.625 27.8203 22.605C27.7399 22.5868 27.6558 22.5958 27.5811 22.6307C27.5064 22.6655 27.4454 22.7242 27.4078 22.7975C27.2018 22.8113 26.9951 22.8113 26.789 22.7975C26.5031 22.7572 26.225 22.6737 25.964 22.55C25.403 22.23 24.9486 21.7518 24.6578 21.175C24.4653 20.8175 24.3828 20.4188 24.8503 20.1575L25.3178 19.9375C25.7052 19.8343 26.1129 19.8343 26.5003 19.9375C26.9356 20.0583 27.352 20.2388 27.7378 20.4738C27.7852 20.5068 27.8388 20.5298 27.8953 20.5415C27.9519 20.5532 28.0102 20.5532 28.0668 20.5416C28.1234 20.5301 28.177 20.5071 28.2245 20.4742C28.2719 20.4412 28.3122 20.399 28.3428 20.35C28.4071 20.2548 28.4316 20.1382 28.411 20.0251C28.3905 19.9121 28.3265 19.8116 28.2328 19.745C27.9744 19.5446 27.7034 19.3609 27.4215 19.195C27.4832 19.1828 27.5418 19.1582 27.5938 19.1228C27.6458 19.0873 27.6901 19.0418 27.724 18.9888C27.999 18.503 28.274 17.9942 28.549 17.4625C29.3911 18.3725 30.0952 19.4009 30.639 20.515C31.0514 21.3406 31.4142 22.19 31.7253 23.0588C32.2162 24.409 32.6294 25.7863 32.9628 27.1838C32.9861 27.2997 33.0538 27.402 33.1514 27.4687C33.249 27.5355 33.3688 27.5615 33.4853 27.5413C33.5423 27.5298 33.5965 27.5072 33.6447 27.4747C33.6929 27.4421 33.7342 27.4003 33.7662 27.3518C33.7981 27.3032 33.8201 27.2487 33.8309 27.1916C33.8417 27.1344 33.8411 27.0757 33.829 27.0188C33.7358 25.5285 33.5243 24.048 33.1965 22.5913ZM19.4465 19.8413C19.3929 19.8222 19.3454 19.7889 19.309 19.745L19.7215 19.0163C20.0005 18.615 20.3233 18.246 20.684 17.9163C20.9232 17.6819 21.1757 17.4615 21.4403 17.2563C21.6929 17.0749 21.9596 16.914 22.2378 16.775C22.2115 16.8463 22.1793 16.9153 22.1415 16.9813L20.9178 19.7313C20.45 19.8187 19.9768 19.8738 19.5015 19.8963L19.4465 19.8413ZM19.914 27.3625C19.914 27.2525 19.639 26.2213 19.6115 25.7813C19.584 25.3413 19.6115 25.0525 19.6115 24.695C20.0162 25.1041 20.448 25.4854 20.904 25.8363C21.1018 25.9819 21.3085 26.1151 21.5228 26.235C21.5228 26.235 20.1203 27.3625 19.969 27.4175L19.914 27.3625ZM27.0915 18.5213C27.0541 18.5861 27.0344 18.6596 27.0344 18.7344C27.0344 18.8092 27.0541 18.8828 27.0915 18.9475C26.9513 18.8695 26.804 18.805 26.6515 18.755C26.2083 18.6112 25.7384 18.5689 25.2765 18.6313L24.4103 18.8925C24.1777 18.9751 23.9641 19.1035 23.7822 19.2702C23.6002 19.4369 23.4536 19.6384 23.351 19.8628C23.2484 20.0873 23.1919 20.33 23.1849 20.5767C23.1779 20.8234 23.2206 21.0689 23.3103 21.2988C23.464 21.7567 23.7177 22.1747 24.0528 22.5225C24.2136 22.6844 24.3884 22.8317 24.5753 22.9625C24.4103 23.1963 24.2728 23.4438 24.094 23.6638C23.7719 24.0778 23.3923 24.4436 22.9665 24.75C22.8565 24.8325 22.4165 25.1213 22.4853 25.1213C22.0831 25.0415 21.6911 24.917 21.3165 24.75C20.8628 24.5163 20.4365 24.255 19.9415 24.0075C20.244 23.4025 20.519 22.8663 20.7665 22.3988C21.5915 20.845 22.224 19.8138 23.3378 17.6688C23.9428 16.445 24.479 15.0563 25.1665 13.7913C25.5601 13.0021 26.0855 12.286 26.7203 11.6738C26.8601 11.5282 27.0457 11.4351 27.2459 11.4101C27.4462 11.385 27.649 11.4296 27.8203 11.5363C28.0379 11.6499 28.2266 11.8118 28.372 12.0097C28.5174 12.2075 28.6156 12.4359 28.659 12.6775C28.7633 13.4698 28.7025 14.275 28.4803 15.0425C28.4665 15.3588 27.3528 17.9575 27.0915 18.5213Z" fill="#020202"/>
<path d="M22.9673 28.5725C21.2712 29.5381 19.4955 30.357 17.6598 31.02C16.5161 31.4562 15.2735 31.5657 14.0711 31.3363C13.5351 31.1508 13.0597 30.8228 12.6961 30.3875C12.0808 29.6589 11.546 28.866 11.1011 28.0225C10.3586 26.7575 9.72607 25.4788 9.07982 24.1725C8.13107 22.1925 7.29232 20.185 6.41232 18.15C5.94482 17.1188 5.55982 16.0738 5.18857 15.0288C4.58357 13.4475 4.07482 11.825 3.52482 10.2025C3.41482 9.88627 2.78232 8.82752 2.47982 8.20877C2.9435 8.18224 3.40377 8.1132 3.85482 8.00252C6.19423 7.39944 8.49096 6.64152 10.7298 5.73378C13.2581 4.78523 15.7124 3.65002 18.0723 2.33752C18.296 2.19592 18.4995 2.0248 18.6773 1.82877C19.0423 2.36143 19.3642 2.92238 19.6398 3.50627C20.3411 5.07377 21.1386 7.63127 21.9223 9.66628C22.1561 10.23 22.3898 10.7525 22.6098 11.1925C22.6348 11.2451 22.67 11.2923 22.7134 11.3312C22.7567 11.3701 22.8073 11.4 22.8623 11.4192C22.9174 11.4384 22.9756 11.4465 23.0338 11.443C23.0919 11.4394 23.1488 11.4244 23.2011 11.3988C23.3048 11.3456 23.3841 11.2545 23.4225 11.1444C23.4609 11.0343 23.4555 10.9137 23.4073 10.8075C23.1685 10.3249 22.9573 9.82914 22.7748 9.32253C22.0186 7.30127 21.2898 4.67502 20.6023 3.08002C20.1628 2.15969 19.5674 1.32233 18.8423 0.605025C18.742 0.547098 18.6282 0.516602 18.5123 0.516602C18.3965 0.516602 18.2827 0.547098 18.1823 0.605025C17.8248 0.838775 18.0723 1.00377 17.3298 1.44377C14.4971 2.86779 11.5653 4.08554 8.55732 5.08752C6.81019 5.72516 5.02352 6.24876 3.20857 6.65502C1.72357 6.87502 2.01232 6.49002 1.42107 6.77877C1.27945 6.85359 1.16177 6.9668 1.08152 7.10542C1.00127 7.24403 0.961692 7.40245 0.967324 7.56252C1.25442 8.6366 1.6411 9.68154 2.12232 10.6838C2.67232 12.375 3.18107 13.9425 3.71732 15.5375C4.11607 16.61 4.52857 17.6825 5.00982 18.755C5.94482 20.7763 6.82482 22.7838 7.75982 24.75C8.43357 26.125 9.13482 27.3625 9.95982 28.6413C10.4691 29.5451 11.0779 30.3891 11.7748 31.1575C12.2914 31.7234 12.9595 32.129 13.6998 32.3263C15.0874 32.5796 16.5184 32.4317 17.8248 31.9C19.6815 31.1581 21.4788 30.2756 23.2011 29.26C23.2903 29.2107 23.3564 29.128 23.3848 29.0301C23.4131 28.9321 23.4015 28.8269 23.3523 28.7375C23.3109 28.6758 23.2525 28.6274 23.1842 28.5981C23.1159 28.5688 23.0406 28.5599 22.9673 28.5725Z" fill="#020202"/>
<path d="M11.4731 10.7113C12.1913 10.592 12.9176 10.5277 13.6456 10.5188C14.469 10.5032 15.2888 10.4065 16.0931 10.23C17.2257 9.99319 18.2412 9.37125 18.9669 8.47004C19.0483 8.38767 19.094 8.27651 19.094 8.16067C19.094 8.04483 19.0483 7.93366 18.9669 7.85129C18.927 7.80927 18.8791 7.7758 18.8259 7.75293C18.7727 7.73006 18.7154 7.71826 18.6575 7.71826C18.5996 7.71826 18.5423 7.73006 18.4891 7.75293C18.4359 7.7758 18.388 7.80927 18.3481 7.85129C17.8554 8.33888 17.244 8.68957 16.5744 8.86879C15.7466 9.03486 14.9005 9.09035 14.0581 9.03379C13.1078 9.01428 12.1582 9.09726 11.2256 9.28129C10.5011 9.47084 9.81961 9.79757 9.21812 10.2438C8.43601 10.8586 7.77012 11.6083 7.25187 12.4575C7.21982 12.5366 7.21397 12.6239 7.23517 12.7065C7.25638 12.7891 7.30352 12.8628 7.36969 12.9166C7.43585 12.9705 7.51754 13.0017 7.60275 13.0057C7.68797 13.0097 7.77222 12.9862 7.84312 12.9388C8.33698 12.3682 8.91135 11.8725 9.54812 11.4675C10.127 11.0781 10.784 10.82 11.4731 10.7113Z" fill="#3FBDCB"/>
<path d="M19.9429 13.75C20.0243 13.6676 20.07 13.5565 20.07 13.4406C20.07 13.3248 20.0243 13.2136 19.9429 13.1313C19.9031 13.0892 19.8551 13.0558 19.8019 13.0329C19.7487 13.01 19.6914 12.9982 19.6335 12.9982C19.5756 12.9982 19.5183 13.01 19.4651 13.0329C19.4119 13.0558 19.364 13.0892 19.3241 13.1313C18.767 13.5046 18.1404 13.7618 17.4816 13.8875C16.4504 14.1213 15.3641 14.1488 14.2641 14.3C13.6398 14.4188 13.0309 14.6079 12.4491 14.8638C12.057 15.041 11.6838 15.2575 11.3354 15.51C10.4723 16.0854 9.74886 16.8465 9.21789 17.7375C9.16433 17.8241 9.14589 17.9278 9.16634 18.0275C9.18679 18.1272 9.24459 18.2153 9.32789 18.2738C9.3707 18.3042 9.41929 18.3256 9.47067 18.3366C9.52206 18.3476 9.57515 18.3479 9.62667 18.3376C9.67819 18.3273 9.72706 18.3066 9.77027 18.2767C9.81347 18.2468 9.8501 18.2084 9.87789 18.1638C10.3368 17.6113 10.8909 17.1456 11.5141 16.7888C11.9871 16.5259 12.4844 16.3094 12.9991 16.1425C13.5091 15.9543 14.0332 15.8071 14.5666 15.7025C15.6666 15.4413 16.7804 15.3038 17.8254 14.9463C18.6092 14.7047 19.3315 14.2966 19.9429 13.75Z" fill="#3FBDCB"/>
<path d="M14.5796 20.405C14.2992 20.4888 14.0276 20.5993 13.7684 20.735C13.5143 20.86 13.2746 21.0121 13.0534 21.1888C12.5463 21.6211 12.0855 22.105 11.6784 22.6325C11.6077 22.7067 11.5684 22.8051 11.5684 22.9075C11.5684 23.0099 11.6077 23.1084 11.6784 23.1825C11.7142 23.2191 11.757 23.2482 11.8042 23.268C11.8514 23.2878 11.9021 23.2981 11.9534 23.2981C12.0046 23.2981 12.0553 23.2878 12.1025 23.268C12.1497 23.2482 12.1925 23.2191 12.2284 23.1825C12.8204 22.8336 13.4309 22.5169 14.0571 22.2338C14.3459 22.0963 14.6209 21.9313 14.9096 21.78C15.1984 21.6288 15.4734 21.45 15.7759 21.3125C16.0732 21.1806 16.3814 21.0748 16.6971 20.9963C16.755 20.9911 16.8113 20.9745 16.8627 20.9475C16.9141 20.9204 16.9597 20.8835 16.9968 20.8387C17.0338 20.794 17.0617 20.7423 17.0787 20.6868C17.0957 20.6312 17.1015 20.5728 17.0959 20.515C17.0926 20.4564 17.0772 20.3992 17.0508 20.3468C17.0244 20.2944 16.9874 20.2481 16.9422 20.2106C16.8971 20.1732 16.8446 20.1455 16.7883 20.1293C16.7319 20.113 16.6728 20.1086 16.6146 20.1163C15.9246 20.093 15.2359 20.1907 14.5796 20.405Z" fill="#3FBDCB"/>
</g>
<defs>
<clipPath id="clip0_479_43337">
<rect width="33" height="33" fill="white" transform="translate(0.966797)"/>
</clipPath>
</defs>
</svg>
