<svg width="40" height="40" viewBox="0 0 40 40" fill="none" xmlns="http://www.w3.org/2000/svg">
<rect width="40" height="40" rx="20" fill="#151515"/>
<path d="M26.9844 19.3171C27.3616 19.3171 27.6673 19.6228 27.6673 20C27.6673 20.3772 27.3616 20.6829 26.9844 20.6829V19.3171ZM12.5315 20.4829C12.2648 20.2162 12.2648 19.7838 12.5315 19.5171L16.8777 15.1709C17.1444 14.9042 17.5768 14.9042 17.8436 15.1709C18.1103 15.4376 18.1103 15.87 17.8436 16.1367L13.9803 20L17.8436 23.8633C18.1103 24.13 18.1103 24.5624 17.8436 24.8291C17.5768 25.0958 17.1444 25.0958 16.8777 24.8291L12.5315 20.4829ZM26.9844 20.6829H13.0144V19.3171H26.9844V20.6829Z" fill="white"/>
</svg>
