<svg width="33" height="33" viewBox="0 0 33 33" fill="none" xmlns="http://www.w3.org/2000/svg">
<g clip-path="url(#clip0_479_43355)">
<path fill-rule="evenodd" clip-rule="evenodd" d="M27.2931 16.995C26.9071 17.2186 26.5551 17.4964 26.2481 17.82C26.1596 17.8881 26.1015 17.9882 26.086 18.0988C26.0706 18.2093 26.0992 18.3215 26.1656 18.4113C26.5093 18.865 26.8806 18.315 27.5406 18.0538C28.7918 17.5725 30.5243 19.1675 30.5106 19.9238C30.5389 20.726 30.2583 21.5085 29.7268 22.11C29.8643 22.11 26.9768 19.8275 26.0006 18.975C25.957 18.9297 25.9046 18.8936 25.8468 18.869C25.7889 18.8444 25.7266 18.8317 25.6637 18.8317C25.6008 18.8317 25.5385 18.8444 25.4806 18.869C25.4228 18.8936 25.3704 18.9297 25.3268 18.975C24.7493 19.5525 25.7393 19.8963 28.8606 22.9213C28.4068 23.595 28.2968 23.6363 23.1818 28.9163C22.8867 28.2721 22.4658 27.6934 21.944 27.2141C21.4222 26.7348 20.8099 26.3645 20.1431 26.125C21.7243 24.145 24.9143 20.4738 24.7768 20.625C24.8443 20.5338 24.8728 20.4196 24.856 20.3074C24.8393 20.1953 24.7786 20.0944 24.6874 20.0269C24.5963 19.9594 24.482 19.9309 24.3699 19.9477C24.2577 19.9645 24.1568 20.0251 24.0893 20.1163C19.9643 24.4338 17.6268 26.7575 17.5443 27.4725C17.2006 30.6075 16.9668 32.0513 17.4068 32.5188C18.2731 33.4538 21.7518 32.4088 22.4806 31.955C25.6787 28.771 28.66 25.3763 31.4043 21.7938C33.4943 18.48 29.6306 15.7575 27.2931 16.995ZM21.6143 30.5113C20.7101 30.9219 19.7433 31.1776 18.7543 31.2675C18.7543 28.7925 19.0156 27.7613 18.9056 27.7063C18.7956 27.6513 19.0706 27.4313 19.2493 27.1975C19.3185 27.0902 19.3967 26.989 19.4831 26.895C20.3537 27.9433 21.3409 28.889 22.4256 29.7138C22.1691 29.9934 21.8983 30.2596 21.6143 30.5113Z" fill="#020202"/>
<path d="M10.8757 2.98376C8.24948 3.50626 7.46573 4.97751 7.79573 6.76501C8.55198 10.7938 15.5232 9.15751 13.9557 4.88126C13.7586 4.24598 13.338 3.70366 12.7717 3.35477C12.2053 3.00588 11.5318 2.87407 10.8757 2.98376ZM9.04698 6.46251C8.33198 3.96001 12.0307 2.83251 12.6357 5.28001C13.2407 7.72751 9.62448 8.33251 9.04698 6.46251Z" fill="#3FBDCB"/>
<path d="M26.1242 1.03125C26.0858 0.99175 26.0398 0.960354 25.989 0.938916C25.9383 0.917478 25.8837 0.906433 25.8286 0.906433C25.7735 0.906433 25.7189 0.917478 25.6681 0.938916C25.6174 0.960354 25.5714 0.99175 25.533 1.03125C25.3542 1.22375 25.533 1.2375 25.533 2.035C25.533 2.8325 24.7492 15.6475 26.1242 15.6887C26.1861 15.6925 26.248 15.6835 26.3063 15.6624C26.3646 15.6413 26.4179 15.6085 26.463 15.566C26.5081 15.5235 26.544 15.4722 26.5685 15.4152C26.593 15.3583 26.6056 15.297 26.6055 15.235C26.743 13.695 26.908 11.9487 26.9767 10.2162C27.073 6.2425 26.5505 1.375 26.1242 1.03125Z" fill="#020202"/>
<path d="M3.4368 19.8138C2.62555 19.5938 2.87305 19.6213 2.8318 19.0163C2.79055 18.4113 2.37805 3.64376 2.8318 1.95251C4.2068 1.59501 13.4606 1.41626 15.2068 1.43001C24.2681 1.54001 24.5293 1.87001 24.5431 1.14126C24.5468 1.01589 24.5015 0.894002 24.4168 0.801545C24.332 0.709088 24.2145 0.653371 24.0893 0.646261C1.74555 -0.302489 1.5668 0.151261 1.2643 1.76001C0.7418 4.57876 1.03055 19.3875 1.71805 20.3775C2.90055 22.0138 14.0931 21.5738 16.0731 21.4913C16.1713 21.4734 16.2601 21.4216 16.3241 21.345C16.388 21.2684 16.4231 21.1717 16.4231 21.0719C16.4231 20.9721 16.388 20.8754 16.3241 20.7988C16.2601 20.7221 16.1713 20.6704 16.0731 20.6525C15.1931 20.625 6.58555 20.625 3.4368 19.8138Z" fill="#020202"/>
<path d="M24.9695 11.4813C23.1958 8.73125 20.597 7.05375 17.517 8.73125C14.767 10.3538 13.392 13.8463 12.2233 16.7475C12.1545 16.8988 12.2233 16.94 11.9483 16.445C11.2944 15.3946 10.3348 14.5693 9.19829 14.08C6.11829 12.925 4.64704 13.6125 3.16204 15.29C2.77704 15.7713 2.95579 16.9263 3.36829 16.4863C4.85329 14.85 5.49954 14.5888 8.62079 15.62C9.93166 16.0353 11.0524 16.9027 11.7833 18.0675C11.7833 18.2463 11.4808 19.1813 11.2883 19.8275C11.192 20.2125 12.0995 20.6113 12.2508 19.8275C13.6945 15.7025 17.0633 8.525 20.9133 9.6525C22.0005 10.0685 22.9786 10.7268 23.7733 11.5775C24.0469 11.8777 24.3459 12.1537 24.667 12.4025C25.107 12.6913 25.2308 11.8113 24.9695 11.4813Z" fill="#3FBDCB"/>
</g>
<defs>
<clipPath id="clip0_479_43355">
<rect width="33" height="33" fill="white"/>
</clipPath>
</defs>
</svg>
