<svg width="33" height="37" viewBox="0 0 33 37" fill="none" xmlns="http://www.w3.org/2000/svg">
<path d="M13.7972 13.8238C14.6301 14.1364 15.4497 14.487 16.2499 14.8812C16.4606 14.9885 16.6747 15.0909 16.8833 15.2033C17.0914 15.3168 17.2989 15.4315 17.5041 15.5487C18.5894 16.1912 19.6318 16.9035 20.6248 17.681C21.6138 18.4602 22.5554 19.2976 23.4445 20.189C24.5361 21.2869 25.5428 22.4661 26.4561 23.7163C26.6889 24.0251 26.9013 24.3483 27.1234 24.6644C27.2311 24.8248 27.3351 24.9877 27.4412 25.1492L27.5996 25.3918L27.751 25.6388L28.0528 26.1335L28.3405 26.6363C28.4386 26.8028 28.5284 26.9737 28.6191 27.1442C28.7087 27.3151 28.8036 27.4834 28.889 27.6565C28.9923 27.8653 29.1031 28.0715 29.2175 28.2755C29.327 28.4819 29.4371 28.6875 29.5481 28.8903C29.6351 29.0562 29.7388 29.2128 29.8576 29.3576C29.9436 29.4606 30.0471 29.5478 30.1633 29.6149C30.456 29.7775 30.558 29.4531 30.3507 28.8395C30.286 28.6455 30.1991 28.4507 30.1119 28.2541C30.0677 28.1561 30.022 28.0584 29.9756 27.9615C29.927 27.8658 29.8763 27.7716 29.8264 27.6788C29.3705 26.8223 28.8866 25.9846 28.3747 25.1657C27.8633 24.3464 27.3239 23.5453 26.7565 22.7623C26.5968 22.5487 26.4384 22.3267 26.2717 22.1135C26.102 21.9029 25.929 21.697 25.7512 21.5075C25.1716 20.9126 24.5992 20.312 24.0042 19.7324C23.856 19.5871 23.7029 19.4467 23.5525 19.3036L23.326 19.0901L23.0934 18.8832C22.9376 18.7462 22.7843 18.6064 22.6255 18.4731L22.1451 18.0787C21.1873 17.3018 20.1868 16.5791 19.1483 15.9139C17.2911 14.7416 15.3101 13.7782 13.2413 13.0412C12.4774 12.7637 11.6832 12.5783 10.8754 12.489C10.5397 12.4478 10.5383 12.5475 10.896 12.7015L11.0872 12.7824C11.1514 12.8088 11.2168 12.8323 11.2819 12.8573C11.4131 12.9046 11.5424 12.9616 11.6738 13.0136L12.0688 13.1716C12.202 13.22 12.3339 13.2733 12.4667 13.323C12.9043 13.4836 13.3555 13.6431 13.7969 13.8131L13.7972 13.8238Z" fill="#151515"/>
<path d="M31.2989 22.7617C31.507 22.5324 31.6973 22.2875 31.8681 22.0292C32.0352 21.77 32.1818 21.4983 32.3068 21.2165C32.4354 20.9167 32.5428 20.6082 32.6283 20.2934C32.8273 19.6022 32.8873 18.8784 32.8047 18.1639C32.7244 17.4437 32.4997 16.7471 32.1438 16.1158L32.1401 16.1093C32.0915 16.0241 32.0158 15.9574 31.9251 15.9199C31.8343 15.8825 31.7337 15.8763 31.6391 15.9023C31.4908 15.9433 31.3419 15.983 31.1982 16.0374L31.0897 16.076L30.9837 16.1205C30.9136 16.1515 30.8413 16.1778 30.7736 16.2136C29.7839 16.685 28.9828 17.4773 28.5004 18.4616L28.4552 18.553L28.4154 18.6469C28.3893 18.7098 28.3614 18.7719 28.3374 18.8355C28.2927 18.964 28.2449 19.0914 28.2114 19.2229C28.1715 19.3527 28.1461 19.4857 28.1173 19.6178C28.1048 19.6842 28.0959 19.7511 28.0852 19.8177L28.07 19.9178L28.0604 20.0184C28.0064 20.5536 28.0392 21.094 28.1577 21.6188C28.2324 21.9332 28.3516 22.2353 28.5118 22.5159C28.5722 22.63 28.6533 22.7319 28.7511 22.8162C28.8231 22.8767 28.9079 22.9201 28.999 22.9434C29.0208 22.9517 29.0441 22.9552 29.0673 22.9535C29.0905 22.9519 29.1131 22.9452 29.1335 22.9338C29.1538 22.9225 29.1714 22.9069 29.1851 22.888C29.1988 22.8692 29.2081 22.8476 29.2126 22.8247C29.239 22.7277 29.2178 22.5872 29.1573 22.4107C29.0822 22.1867 28.9895 21.9507 28.9172 21.7189C28.8324 21.4522 28.7783 21.1765 28.7561 20.8975C28.7322 20.6186 28.741 20.3378 28.7823 20.0609C28.8603 19.5118 29.0709 18.99 29.3959 18.5406C29.5736 18.2948 29.795 18.075 29.9821 17.8517C30.2194 17.5684 30.5055 17.3299 30.8268 17.1474C31.1462 16.9648 31.4898 16.8281 31.8473 16.7413L31.3968 16.5507C31.4952 16.7294 31.5928 16.909 31.6742 17.0971C31.9662 17.7422 32.0677 18.4702 32.0392 19.1797C32.0146 19.8178 31.8573 20.4438 31.5773 21.0177C31.2922 21.5984 30.8922 22.1152 30.4016 22.5369C30.2021 22.7053 30.0084 22.8688 29.8226 23.0257C29.7768 23.0682 29.7279 23.1046 29.6819 23.1457C29.6355 23.186 29.592 23.2319 29.5453 23.2708C29.4521 23.349 29.3672 23.4445 29.2742 23.5203C29.1903 23.5939 29.1584 23.6536 29.1829 23.6974C29.2069 23.7401 29.289 23.7706 29.4298 23.7719C29.4796 23.7722 29.5304 23.7728 29.5804 23.77C29.6281 23.7623 29.6753 23.7516 29.7217 23.7379C29.8164 23.7141 29.9094 23.6843 30.0003 23.6486C30.0924 23.6141 30.18 23.57 30.2687 23.5263C30.3583 23.4841 30.443 23.4332 30.5281 23.3826C30.8052 23.204 31.0599 22.9929 31.2868 22.7537C31.2908 22.7564 31.2945 22.7588 31.2989 22.7617Z" fill="#3FBDCB"/>
<path d="M23.583 15.1082C23.2856 14.6666 23.0739 14.1731 22.9588 13.6533C22.8933 13.3712 22.859 13.0828 22.8566 12.7932C22.8615 12.1643 22.9567 11.5394 23.1394 10.9376C23.3207 10.331 23.5664 9.74562 23.8725 9.19146L23.2175 9.21902C23.3081 9.35199 23.402 9.48258 23.4894 9.61679L23.7492 10.0193C23.8168 10.1249 23.8833 10.2301 23.948 10.3368C24.0108 10.444 24.0756 10.5505 24.1361 10.6583C24.2603 10.8728 24.3764 11.0898 24.4875 11.308C24.5985 11.5262 24.6986 11.7476 24.7931 11.9701C24.8839 12.1936 24.9676 12.4188 25.0375 12.6466C25.1073 12.8717 25.163 13.1009 25.2043 13.3329C25.2161 13.3902 25.2247 13.448 25.2319 13.506C25.2394 13.564 25.2487 13.6217 25.2549 13.6797C25.2642 13.7959 25.278 13.9118 25.2796 14.0279C25.2867 14.1441 25.2835 14.2598 25.282 14.3754C25.282 14.4333 25.2752 14.4905 25.2723 14.548C25.2682 14.6054 25.2665 14.663 25.2587 14.7197C25.2374 14.9463 25.1974 15.1707 25.1391 15.3907C25.0736 15.6543 24.9921 15.9136 24.895 16.1672C24.851 16.2726 24.8224 16.3837 24.8101 16.4972C24.7989 16.5926 24.8048 16.6892 24.8275 16.7826C24.8598 16.9142 24.9406 16.989 25.0578 16.9848C25.1287 16.9793 25.1971 16.9566 25.2572 16.9186C25.2972 16.8961 25.334 16.8684 25.3666 16.8362C25.4057 16.7995 25.4423 16.7604 25.4764 16.7191C25.6603 16.4795 25.7973 16.2073 25.8804 15.917C26.0671 15.2742 26.1368 14.6031 26.086 13.9357C26.0637 13.6082 26.0191 13.2826 25.9524 12.9612C25.8839 12.6427 25.797 12.3285 25.6922 12.02C25.5883 11.6776 25.444 11.3488 25.2625 11.0404C25.0215 10.6593 24.7832 10.2838 24.5398 9.91509L23.8217 8.81263C23.7899 8.76383 23.7461 8.724 23.6945 8.69695C23.6429 8.6699 23.5852 8.65653 23.527 8.65812C23.4687 8.65971 23.4119 8.67621 23.3618 8.70603C23.3118 8.73586 23.2702 8.77801 23.2411 8.82848L23.2362 8.83726C23.1869 8.92375 23.1392 9.01106 23.093 9.09918C23.0482 9.188 23.006 9.27808 22.9653 9.36868C22.634 10.1164 22.3672 10.901 22.2514 11.721C22.143 12.4558 22.1672 13.2042 22.323 13.9305C22.3636 14.1127 22.4138 14.2927 22.4736 14.4695C22.5356 14.6458 22.6072 14.8186 22.6883 14.987C22.8496 15.3239 23.0505 15.6405 23.2866 15.93C23.4667 16.1563 23.6847 16.3496 23.9308 16.5015C24.0471 16.5714 24.1695 16.6306 24.2965 16.6784C24.3576 16.7014 24.42 16.7208 24.4834 16.7364C24.5439 16.7539 24.6054 16.7679 24.6675 16.7782C24.7808 16.7964 24.8423 16.7808 24.8564 16.7336C24.8621 16.702 24.8574 16.6694 24.8428 16.6407C24.8337 16.6191 24.8229 16.5983 24.8106 16.5784C24.7971 16.5536 24.7797 16.5312 24.7591 16.5119C24.6375 16.3934 24.523 16.2689 24.4071 16.1494L24.3218 16.058L24.2404 15.9627C24.1835 15.9027 24.132 15.8366 24.0766 15.7758C23.8927 15.569 23.7244 15.3488 23.573 15.1171L23.583 15.1082Z" fill="#3FBDCB"/>
<path d="M15.5096 10.9818C15.325 10.8215 15.1533 10.6468 14.9964 10.4594C14.8392 10.2701 14.6998 10.0667 14.5799 9.85181C14.5498 9.79404 14.5153 9.73784 14.4881 9.67842L14.4055 9.50001L14.3366 9.31582C14.3131 9.25452 14.299 9.19007 14.2812 9.12708C14.1448 8.57807 14.1181 8.00752 14.2026 7.44817C14.2852 6.89462 14.474 6.36223 14.7584 5.88023L14.0072 5.95931L14.601 6.62172C14.9145 6.97262 15.2313 7.31894 15.5342 7.67569C15.8318 8.0354 16.1369 8.39804 16.3951 8.75513C16.6475 9.08829 16.8449 9.45971 16.9798 9.85529C17.0913 10.2482 17.1274 10.6587 17.0864 11.0651C17.0669 11.3226 17.0599 11.5952 17.0442 11.8695C17.0331 11.9772 17.0449 12.0861 17.0788 12.189C17.1127 12.2918 17.168 12.3864 17.241 12.4664C17.432 12.6687 17.7088 12.5716 17.8457 12.2C17.9323 11.95 17.9845 11.6893 18.0007 11.4252C18.0258 11.1134 18.0284 10.8002 18.0086 10.488C17.9862 10.165 17.9252 9.84581 17.8268 9.53735C17.776 9.38446 17.7166 9.23456 17.649 9.08833C17.5811 8.94425 17.5068 8.80538 17.429 8.67025C17.2722 8.40112 17.1001 8.14911 16.9265 7.90654C16.7343 7.63825 16.5427 7.36731 16.3137 7.15184C16.1635 7.01314 16.0217 6.86743 15.8832 6.71904C15.7441 6.57104 15.6071 6.42143 15.4721 6.27023C15.2012 5.96848 14.9356 5.66295 14.6638 5.36465L14.6529 5.35267C14.6168 5.31313 14.5734 5.28108 14.525 5.25833C14.4766 5.23559 14.4241 5.22261 14.3707 5.22012C14.3173 5.21764 14.2639 5.2257 14.2136 5.24386C14.1632 5.26201 14.117 5.28989 14.0775 5.32592C14.0432 5.35738 14.0144 5.39435 13.9924 5.43532C13.9456 5.52301 13.8982 5.61037 13.8541 5.69915C13.814 5.78975 13.7721 5.87955 13.7361 5.97156C13.438 6.71334 13.3104 7.51267 13.3628 8.31042C13.4189 9.01782 13.6293 9.70434 13.9791 10.3217C14.3262 10.9301 14.7962 11.4595 15.3592 11.8763C15.8036 12.2055 16.3163 12.3958 16.7959 12.3628C16.9053 12.3573 16.9633 12.3262 16.974 12.2704C16.9761 12.2551 16.9758 12.2395 16.9733 12.2243C16.9694 12.2053 16.9634 12.1869 16.9553 12.1694C16.9454 12.1475 16.9337 12.1265 16.9205 12.1066C16.9061 12.0825 16.8881 12.0608 16.8671 12.0422C16.8359 12.0162 16.8049 11.9899 16.7752 11.9605C16.7442 11.9362 16.7118 11.9135 16.6783 11.8927C16.6119 11.8518 16.5491 11.8028 16.4842 11.7591C16.4186 11.7166 16.3571 11.6665 16.2934 11.6212C16.229 11.5771 16.1691 11.5257 16.107 11.479C15.9065 11.3207 15.6906 11.1722 15.5014 10.9938L15.5096 10.9818Z" fill="#3FBDCB"/>
<path d="M8.66488 13.0521C8.4295 13.1432 8.18828 13.2183 7.94283 13.277C7.69758 13.3328 7.44837 13.3696 7.19743 13.387C6.93104 13.404 6.66355 13.3874 6.40131 13.3376C5.83351 13.2235 5.29135 13.0065 4.80157 12.6974C4.31611 12.392 3.88614 12.0062 3.53007 11.5566L3.43774 12.2185L3.60949 12.1025C3.66734 12.0647 3.72706 12.0296 3.7856 11.9928C3.90476 11.9225 4.02544 11.8543 4.14976 11.7929C4.94521 11.4082 5.82168 11.2211 6.70486 11.2472C6.92134 11.2544 7.13704 11.277 7.3503 11.3149C7.56538 11.3551 7.77796 11.4078 7.98696 11.4725C8.19781 11.5384 8.40479 11.616 8.60693 11.7051C8.81015 11.7935 9.00839 11.8928 9.20077 12.0028C9.43454 12.1319 9.67882 12.2501 9.91294 12.3802C10.0961 12.4909 10.3154 12.5254 10.5238 12.4762C10.5831 12.467 10.6379 12.4386 10.6797 12.3955C10.7214 12.3523 10.748 12.2967 10.7552 12.237C10.7678 12.1178 10.7098 11.9617 10.5647 11.811C10.3715 11.6169 10.1496 11.4538 9.90671 11.3274C9.3626 11.0331 8.78946 10.796 8.19647 10.6199C7.89837 10.5297 7.59443 10.4602 7.28679 10.4117C6.97657 10.3641 6.66362 10.3365 6.34987 10.3289C6.00475 10.3199 5.63832 10.3303 5.31362 10.4278C4.89338 10.5513 4.48114 10.7006 4.07925 10.8747C3.6773 11.0484 3.29328 11.2608 2.93262 11.5091L2.92496 11.5145C2.88195 11.545 2.84537 11.5836 2.81729 11.6282C2.78922 11.6728 2.7702 11.7225 2.76133 11.7745C2.75246 11.8264 2.75391 11.8796 2.7656 11.931C2.77729 11.9824 2.79899 12.031 2.82945 12.074C2.83586 12.083 2.8431 12.0923 2.85008 12.1007C2.91406 12.1766 2.97754 12.253 3.04341 12.327C3.11296 12.3976 3.18058 12.47 3.25314 12.5371C3.8318 13.0909 4.51632 13.5221 5.26568 13.805C5.59965 13.9254 5.94451 14.0131 6.29542 14.0669C6.64735 14.122 7.00428 14.1382 7.35975 14.1151C8.05907 14.0641 8.74381 13.8895 9.38222 13.5996C9.62752 13.4907 9.8572 13.3497 10.0652 13.1801C10.2557 13.0187 10.4187 12.8273 10.5478 12.6136C10.6646 12.4295 10.5594 12.3351 10.3332 12.4058C10.2939 12.4193 10.2541 12.4321 10.2126 12.4427C10.1724 12.4548 10.1348 12.4707 10.096 12.4846C10.0211 12.5165 9.93742 12.5351 9.86396 12.5688C9.79123 12.6038 9.71471 12.6331 9.64068 12.6658C9.56722 12.6997 9.49081 12.728 9.41634 12.7591C9.1703 12.8576 8.92731 12.9809 8.67153 13.0647L8.66488 13.0521Z" fill="#3FBDCB"/>
<path d="M15.5292 20.1969C15.1563 20.6566 14.7275 21.0681 14.2529 21.4219C14.0063 21.6083 13.7376 21.7635 13.4528 21.8839C13.0759 22.0405 12.6794 22.1448 12.2743 22.1941C11.88 22.246 11.4799 22.2318 11.0903 22.1519L10.9479 22.1205C10.901 22.1088 10.8554 22.0926 10.8091 22.0792C10.7169 22.0521 10.6264 22.0196 10.538 21.9818C10.4933 21.965 10.4496 21.9457 10.4071 21.9237L10.2781 21.862C10.2698 21.8583 10.2617 21.8541 10.2538 21.8494C10.2474 21.8461 10.2416 21.842 10.2354 21.8384C10.2234 21.8308 10.2123 21.8229 10.2024 21.8153C10.1895 21.806 10.1778 21.7952 10.1676 21.783C10.1809 21.8011 10.1888 21.8225 10.1907 21.8449C10.1951 21.872 10.1946 21.8997 10.1891 21.9266C10.1846 21.9503 10.1761 21.973 10.164 21.9939C10.1455 22.0224 10.1521 22.0075 10.19 21.9744L10.312 21.8621L10.8003 21.4102C11.1969 21.0356 11.6093 20.6718 12.0121 20.3177C12.406 19.9671 12.82 19.6397 13.2518 19.3371C13.4623 19.1919 13.68 19.0575 13.9042 18.9344C14.1234 18.8155 14.3499 18.7106 14.5823 18.6204C15.0361 18.4404 15.5181 18.3417 16.0062 18.3289C16.2931 18.3165 16.5805 18.325 16.8662 18.3543C16.9291 18.3641 16.9927 18.3687 17.0563 18.3681C17.113 18.3686 17.1696 18.3651 17.2257 18.3576C17.3278 18.3424 17.4271 18.3118 17.52 18.2667C17.6506 18.2016 17.7125 18.0992 17.6807 17.9751C17.6582 17.9005 17.6177 17.8326 17.5628 17.7773C17.4841 17.702 17.3932 17.6404 17.294 17.5953C16.9914 17.4612 16.6643 17.391 16.3334 17.389C15.6052 17.385 14.8831 17.5211 14.2062 17.7896C13.5377 18.0518 12.9351 18.4166 12.3657 18.8106C12.0517 19.028 11.7301 19.2595 11.4805 19.5264C11.2812 19.7392 11.0801 19.9465 10.8774 20.1482C10.7755 20.249 10.6741 20.3494 10.5701 20.4475L10.2539 20.7373L9.61811 21.3133C9.59352 21.336 9.56101 21.3642 9.51976 21.4075C9.46688 21.4623 9.42243 21.5247 9.38787 21.5926C9.34424 21.6811 9.32102 21.7782 9.31992 21.8768C9.31981 21.97 9.33918 22.0622 9.37679 22.1474C9.43242 22.2691 9.51521 22.3765 9.61879 22.4613C9.65964 22.4955 9.7027 22.5271 9.7477 22.5557C9.76937 22.5701 9.79151 22.5824 9.81358 22.5953C9.83467 22.6064 9.86156 22.6217 9.87777 22.6282C10.3053 22.834 10.7653 22.9642 11.2373 23.0132C11.6992 23.063 12.1662 23.0389 12.6206 22.942C13.4143 22.772 14.1615 22.431 14.8099 21.9428C15.4359 21.4669 15.996 20.91 16.4753 20.2866C16.5722 20.1659 16.6597 20.0415 16.7428 19.9173C16.8222 19.7938 16.8951 19.6662 16.9613 19.5352C17.0258 19.4092 17.0837 19.28 17.1349 19.1482C17.1817 19.0164 17.225 18.8872 17.2616 18.7591C17.2946 18.6406 17.287 18.5704 17.239 18.5484C17.2252 18.5433 17.2105 18.5409 17.1957 18.5412C17.1758 18.5423 17.1562 18.546 17.1373 18.5521C17.1123 18.56 17.088 18.5699 17.0645 18.5817C17.0349 18.5947 17.0074 18.6123 16.9831 18.6337C16.9112 18.699 16.8385 18.765 16.765 18.8317C16.6913 18.8978 16.6269 18.9705 16.5589 19.0414C16.4919 19.1124 16.4247 19.1837 16.3573 19.2553C16.2908 19.3271 16.2213 19.396 16.159 19.4703C15.9479 19.7086 15.7554 19.9693 15.5416 20.2045C15.5375 20.202 15.5337 20.1997 15.5292 20.1969Z" fill="#3FBDCB"/>
<path d="M22.2274 24.4965C22.085 24.674 21.9293 24.8406 21.7618 24.9947C21.5926 25.1485 21.41 25.2868 21.2161 25.4079C21.012 25.5407 20.7906 25.6446 20.5581 25.7169C20.056 25.8676 19.528 25.912 19.0078 25.8474C18.7515 25.8143 18.4988 25.7571 18.2533 25.6763C18.1316 25.6365 18.0122 25.5898 17.8957 25.5364C17.8386 25.508 17.78 25.4824 17.7239 25.4524L17.6408 25.4053C17.6109 25.3937 17.5828 25.3786 17.5535 25.3655L17.6143 26.0428C17.6631 25.9954 17.7101 25.9459 17.7601 25.8999L17.912 25.7639L18.2169 25.4927C18.548 25.2096 18.8874 24.9366 19.2353 24.6738C19.5829 24.4113 19.932 24.1465 20.2802 23.9099C20.6165 23.6751 20.9745 23.4731 21.3493 23.3066C21.5283 23.2304 21.7126 23.1672 21.9007 23.1175C22.0837 23.0673 22.2709 23.0341 22.46 23.0184C22.683 22.9946 22.9072 22.9839 23.1314 22.9864C23.2276 22.9916 23.324 22.9803 23.4164 22.953C23.4595 22.9401 23.5013 22.9234 23.5414 22.9031C23.5816 22.8839 23.6202 22.8616 23.6568 22.8362C23.7656 22.7618 23.8205 22.6602 23.7951 22.5467C23.7709 22.4342 23.6635 22.3054 23.469 22.226C23.2148 22.1265 22.9416 22.0849 22.6692 22.1043C22.3693 22.1208 22.0718 22.1688 21.7819 22.2475C21.6394 22.2851 21.4992 22.3307 21.362 22.3841C21.2244 22.4358 21.0929 22.4941 20.9623 22.5549C20.4585 22.8031 19.9752 23.0908 19.5169 23.4154C19.2626 23.5766 19.0235 23.7604 18.8025 23.9647C18.268 24.502 17.6743 24.9679 17.0869 25.4437C17.0418 25.4803 17.0061 25.5271 16.9826 25.5802C16.9592 25.6333 16.9488 25.6912 16.9521 25.7492C16.9555 25.8071 16.9727 25.8634 17.0021 25.9135C17.0316 25.9635 17.0725 26.0058 17.1216 26.0368L17.1413 26.0491L17.2613 26.1242C17.3027 26.1468 17.3434 26.1709 17.3857 26.1917C17.4713 26.2309 17.5558 26.2729 17.6431 26.3073C18.3372 26.5908 19.091 26.6971 19.8365 26.6168C20.4944 26.5408 21.1271 26.3189 21.6883 25.9672C22.2396 25.6202 22.7158 25.1663 23.0889 24.6323C23.2337 24.4294 23.3474 24.2061 23.4263 23.9697C23.4638 23.8575 23.4884 23.7415 23.4998 23.6238C23.5123 23.5113 23.517 23.3981 23.5137 23.285C23.5094 23.1834 23.4812 23.129 23.4297 23.1187C23.4156 23.1168 23.4012 23.117 23.3872 23.1193C23.3696 23.1229 23.3525 23.1284 23.3363 23.136C23.316 23.1453 23.2965 23.1561 23.278 23.1685C23.2554 23.1816 23.2354 23.1987 23.2191 23.219C23.1292 23.3395 23.026 23.4533 22.9323 23.5691C22.8487 23.6899 22.7628 23.8093 22.6748 23.9253C22.5306 24.1157 22.399 24.3219 22.2391 24.5042L22.2274 24.4965Z" fill="#3FBDCB"/>
<path d="M5.33772 30.5907C5.55627 30.8469 5.73251 31.135 5.86006 31.4444C5.87568 31.4831 5.89253 31.5213 5.90691 31.5605L5.94528 31.6798C5.95747 31.7198 5.97179 31.759 5.98201 31.7995L6.01013 31.9216C6.0187 31.9625 6.03034 32.0026 6.03614 32.0441L6.05351 32.1682L6.06203 32.2303C6.06495 32.2507 6.06779 32.2714 6.06926 32.2942C6.0727 32.3388 6.07445 32.3849 6.07327 32.4329C6.07209 32.5192 6.05774 32.6048 6.0307 32.687C6.01389 32.7348 5.99141 32.7806 5.96371 32.8233C5.93286 32.8689 5.89547 32.9099 5.8527 32.9451L5.84966 32.9475C5.81425 32.9766 5.77067 32.9945 5.72466 32.9989C5.67864 33.0033 5.63234 32.994 5.59182 32.9723C5.55131 32.9505 5.51849 32.9172 5.49765 32.8769C5.47682 32.8365 5.46896 32.7909 5.4751 32.7461C5.50376 32.5386 5.54446 32.3328 5.59702 32.1297C5.68252 31.7902 5.81499 31.4637 5.99078 31.1593C6.17092 30.848 6.40632 30.5706 6.68595 30.34C6.97227 30.1088 7.30295 29.9357 7.65858 29.8311C8.02391 29.7249 8.41017 29.7071 8.78407 29.7794C8.83899 29.7905 8.88903 29.8179 8.92728 29.858C8.96553 29.8981 8.99009 29.9489 8.99758 30.0032C9.00506 30.0575 8.9951 30.1128 8.96906 30.1614C8.94303 30.2099 8.90221 30.2494 8.85224 30.2743L8.84729 30.2767C8.72561 30.3355 8.59521 30.3752 8.46089 30.3943C8.3374 30.4112 8.21249 30.4161 8.08802 30.4088C7.96871 30.4031 7.85506 30.3892 7.74582 30.3739C7.63686 30.3582 7.53289 30.343 7.42004 30.3229C7.25772 30.2962 7.09886 30.2522 6.94629 30.1918C6.86278 30.1576 6.78292 30.1153 6.70787 30.0658C6.63125 30.0146 6.56052 29.9555 6.49693 29.8895C6.37883 29.763 6.28234 29.6187 6.21117 29.4622C6.14523 29.3176 6.09347 29.1673 6.05659 29.0131C5.90774 28.4158 5.92031 27.791 6.09308 27.1998L6.09333 27.199C6.10845 27.1474 6.13866 27.1014 6.18022 27.0664C6.22179 27.0315 6.2729 27.0092 6.32726 27.0023C6.38163 26.9954 6.43687 27.0042 6.48618 27.0276C6.5355 27.051 6.57673 27.088 6.60481 27.134C6.69284 27.2836 6.74049 27.4525 6.74327 27.625C6.74612 27.7763 6.72698 27.9271 6.68641 28.0731C6.66847 28.1435 6.64523 28.2086 6.62308 28.2744C6.59834 28.3393 6.57422 28.4046 6.54485 28.4675C6.48882 28.5944 6.4231 28.717 6.34826 28.8342C6.0508 29.3077 5.61962 29.687 5.1067 29.9264C4.78038 30.0759 4.42604 30.1581 4.06579 30.1677C3.92444 30.1725 3.7833 30.1536 3.64851 30.1117C3.62117 30.1027 3.59561 30.0935 3.57177 30.0838C3.54799 30.0731 3.52591 30.0622 3.50554 30.051C3.46824 30.0315 3.43354 30.0076 3.40222 29.9798C3.31984 29.9072 3.33548 29.8488 3.41732 29.8106C3.49946 29.7732 3.64787 29.7535 3.8495 29.7337L3.94611 29.7235L4.04386 29.7107C4.10927 29.701 4.17555 29.6929 4.24157 29.6808C4.37335 29.658 4.50363 29.6275 4.6317 29.5896C4.87885 29.5144 5.11088 29.3981 5.31758 29.2458C5.73528 28.9388 6.03867 28.5066 6.18136 28.0151C6.21544 27.9031 6.23273 27.7869 6.23269 27.6701C6.23421 27.5736 6.20773 27.4788 6.15633 27.3965L6.5957 27.34C6.55095 27.5139 6.52298 27.6915 6.51216 27.8705C6.49124 28.2009 6.53731 28.5407 6.59552 28.853C6.63585 29.0755 6.70646 29.2861 6.82122 29.4481C6.87526 29.526 6.94375 29.5932 7.02313 29.6465C7.1097 29.7003 7.204 29.7412 7.30292 29.7678C7.41572 29.7982 7.53029 29.822 7.64602 29.839C7.76932 29.8585 7.89205 29.8781 8.00755 29.8896C8.23987 29.9141 8.45387 29.9048 8.61747 29.8264L8.67401 30.271L8.5929 30.256L8.55239 30.2481L8.51126 30.2434L8.42897 30.2337L8.34586 30.2296C8.15692 30.2226 7.968 30.2442 7.78583 30.2937C7.60036 30.3446 7.42253 30.4191 7.25691 30.5153C7.09025 30.6117 6.9364 30.7278 6.79889 30.8611C6.66005 30.9964 6.53673 31.1461 6.43112 31.3075C6.14114 31.7456 5.9701 32.2643 5.89908 32.7944L5.57825 32.6254C5.59739 32.6096 5.61186 32.5892 5.62016 32.5661C5.63351 32.5301 5.64112 32.4924 5.64273 32.4542C5.64526 32.4067 5.64398 32.3592 5.63889 32.3119L5.61583 32.1537C5.60792 32.1009 5.59699 32.0486 5.58308 31.997L5.56473 31.9188C5.55914 31.8926 5.54865 31.8676 5.54089 31.8419C5.52352 31.7911 5.50871 31.7394 5.48948 31.6891L5.42649 31.54C5.33521 31.3429 5.22172 31.1564 5.08813 30.984C4.95136 30.8127 4.79656 30.6559 4.62629 30.5163C4.41127 30.3444 4.17723 30.1966 3.92855 30.0756C3.9136 30.068 3.8989 30.0597 3.88384 30.0525L3.83799 30.0327L3.74684 29.9924C3.68698 29.9627 3.62465 29.943 3.56355 29.9189L3.47199 29.8832C3.44201 29.8726 3.41231 29.8631 3.38242 29.8557C3.32338 29.8378 3.26019 29.8375 3.201 29.855C3.18652 29.8604 3.17335 29.8671 3.16295 29.8717C3.16273 29.8717 3.16254 29.8719 3.16237 29.8721C3.16221 29.8722 3.16209 29.8724 3.162 29.8726L3.1608 29.8759C3.15689 29.8878 3.15773 29.9008 3.16315 29.9121C3.16805 29.9225 3.17508 29.9318 3.18379 29.9394C3.19954 29.9532 3.21924 29.9619 3.24022 29.9643C3.25013 29.9656 3.26022 29.9648 3.26981 29.9621C3.27839 29.9604 3.28683 29.9582 3.29508 29.9554C3.30897 29.9503 3.31911 29.947 3.32486 29.9506C3.33042 29.954 3.33208 29.9647 3.32387 29.9829C3.31787 29.9941 3.30988 30.0041 3.30028 30.0125C3.28875 30.0259 3.27374 30.0362 3.25681 30.0421C3.21621 30.0581 3.17109 30.0596 3.12951 30.0461C3.09877 30.0361 3.07117 30.0186 3.04942 29.9951C3.03381 29.9781 3.02149 29.9584 3.01306 29.9371C3.0034 29.9118 2.99902 29.8849 3.00018 29.8579C3.00098 29.8374 3.0078 29.8176 3.01981 29.8008L3.04995 29.7586C3.06574 29.7364 3.08425 29.7161 3.10507 29.6983C3.11668 29.6884 3.12901 29.6793 3.14197 29.6711C3.15578 29.6636 3.1701 29.6569 3.18484 29.6512C3.25452 29.6254 3.32863 29.6128 3.40315 29.6143C3.46137 29.6145 3.51948 29.6195 3.57686 29.6292L3.73462 29.6538L3.77431 29.6604L3.8132 29.67L3.89125 29.6897C4.10167 29.7432 4.30488 29.8208 4.49664 29.921C4.81338 30.0944 5.09552 30.3222 5.32947 30.5936C5.33214 30.5927 5.33461 30.5918 5.33772 30.5907Z" fill="#151515"/>
</svg>
