<svg width="16" height="12" viewBox="0 0 16 12" fill="none" xmlns="http://www.w3.org/2000/svg">
<path d="M14.9844 5.31706C15.3616 5.31706 15.6673 5.62282 15.6673 6C15.6673 6.37718 15.3616 6.68294 14.9844 6.68294V5.31706ZM0.531524 6.48291C0.264818 6.21621 0.264818 5.78379 0.531524 5.51709L4.87773 1.17088C5.14443 0.90418 5.57685 0.90418 5.84355 1.17088C6.11026 1.43759 6.11026 1.87 5.84355 2.13671L1.98026 6L5.84355 9.86329C6.11026 10.13 6.11026 10.5624 5.84355 10.8291C5.57685 11.0958 5.14443 11.0958 4.87773 10.8291L0.531524 6.48291ZM14.9844 6.68294H1.01443V5.31706H14.9844V6.68294Z" fill="black"/>
</svg>
