<svg width="33" height="33" viewBox="0 0 33 33" fill="none" xmlns="http://www.w3.org/2000/svg">
<g clip-path="url(#clip0_479_43280)">
<path d="M14.3826 3.87745C15.2213 3.87745 16.1013 4.06995 16.8988 4.0562L25.1488 3.8087C26.4001 3.8087 27.6376 3.8087 28.8751 3.7262C29.7138 3.7262 30.5526 3.62995 31.3913 3.54745C31.5166 3.53691 31.6327 3.47778 31.715 3.38271C31.7972 3.28764 31.839 3.16417 31.8313 3.0387C31.8175 2.91593 31.7569 2.80319 31.6622 2.72384C31.5675 2.64449 31.4459 2.60461 31.3226 2.61245H28.8751C27.6513 2.61245 26.4276 2.4612 25.1763 2.3787C23.7703 2.30305 22.3611 2.30305 20.9551 2.3787C19.5801 2.47495 18.2051 2.6812 16.8301 2.85995C16.0601 2.96995 15.2076 2.85995 14.3963 2.9562C14.0059 2.9732 13.6186 3.03314 13.2413 3.13495C13.184 3.14252 13.1289 3.16206 13.0796 3.19231C13.0303 3.22256 12.9879 3.26284 12.9552 3.31053C12.9225 3.35822 12.9001 3.41226 12.8896 3.46914C12.8792 3.52602 12.8808 3.58447 12.8943 3.64069C12.9079 3.69692 12.9331 3.74966 12.9684 3.79549C13.0037 3.84133 13.0482 3.87923 13.0991 3.90674C13.15 3.93426 13.2061 3.95076 13.2637 3.95519C13.3214 3.95962 13.3794 3.95187 13.4338 3.93245C13.7473 3.88146 14.0653 3.86302 14.3826 3.87745Z" fill="#3FBDCB"/>
<path d="M14.2583 16.8162C14.749 16.7341 15.2457 16.6927 15.7433 16.6925H18.0808C18.8508 16.6925 19.9233 16.7612 20.8308 16.7612C22.2058 16.7612 23.5808 16.6925 24.9558 16.665C26.3308 16.6375 27.8571 16.28 29.3283 16.1975C29.9232 16.1493 30.5209 16.1493 31.1158 16.1975C31.2374 16.2137 31.3607 16.183 31.4604 16.1114C31.56 16.0398 31.6286 15.9329 31.6521 15.8125C31.6618 15.751 31.6591 15.6882 31.6443 15.6277C31.6294 15.5673 31.6026 15.5104 31.5654 15.4605C31.5283 15.4105 31.4816 15.3685 31.428 15.3369C31.3744 15.3052 31.315 15.2846 31.2533 15.2762C30.6261 15.1732 29.9914 15.1226 29.3558 15.125C29.3558 15.125 21.6421 15.2075 21.5183 15.2075C20.3496 15.2075 19.1946 15.3587 18.0396 15.455C17.2558 15.5237 16.4583 15.565 15.6746 15.6612C15.1319 15.7309 14.5945 15.8366 14.0658 15.9775C14.0094 15.9885 13.9558 16.0112 13.9087 16.0441C13.8616 16.0771 13.8218 16.1195 13.792 16.1687C13.7622 16.2179 13.7431 16.2728 13.7358 16.3298C13.7285 16.3869 13.7332 16.4448 13.7496 16.5C13.7608 16.5549 13.7831 16.6069 13.8152 16.6529C13.8472 16.6989 13.8883 16.7379 13.9359 16.7675C13.9835 16.7971 14.0367 16.8167 14.0921 16.8251C14.1475 16.8334 14.2041 16.8304 14.2583 16.8162Z" fill="#3FBDCB"/>
<path d="M31.8986 27.995L27.0449 27.5L24.4461 27.2525C23.5661 27.2525 22.6861 27.1562 21.8199 27.1562C20.6384 27.1657 19.4585 27.2437 18.2861 27.39C17.3786 27.5138 16.4299 27.5413 15.5361 27.665C15.119 27.7163 14.7057 27.7944 14.2986 27.8988C14.1911 27.9225 14.0973 27.9879 14.038 28.0808C13.9787 28.1736 13.9587 28.2862 13.9824 28.3937C14.0061 28.5013 14.0716 28.5951 14.1644 28.6544C14.2572 28.7137 14.3698 28.7337 14.4774 28.71C14.8546 28.6455 15.236 28.6087 15.6186 28.6C16.5399 28.6 17.4886 28.6687 18.3686 28.6L26.9486 28.82H30.3586H31.7336C31.795 28.8263 31.8571 28.8205 31.9162 28.8028C31.9753 28.7852 32.0304 28.756 32.0783 28.7171C32.1262 28.6782 32.1659 28.6302 32.1953 28.5759C32.2246 28.5216 32.2429 28.462 32.2493 28.4006C32.2556 28.3392 32.2497 28.2772 32.2321 28.2181C32.2144 28.1589 32.1853 28.1038 32.1464 28.056C32.1074 28.0081 32.0594 27.9683 32.0051 27.939C31.9508 27.9097 31.8913 27.8913 31.8299 27.885L31.8986 27.995Z" fill="#3FBDCB"/>
<path d="M5.07234 7.01248C5.64226 7.10184 6.22566 7.03962 6.7639 6.83204C7.30214 6.62447 7.77626 6.27887 8.13859 5.82998C8.544 5.25683 8.74717 4.56507 8.71609 3.86373C8.78769 3.18098 8.65887 2.49217 8.34538 1.88144C8.03188 1.27071 7.54729 0.764523 6.9508 0.424716C6.35432 0.0849081 5.67177 -0.0738018 4.98655 -0.0320224C4.30134 0.00975702 3.64313 0.250217 3.09234 0.659976C2.68849 0.895187 2.3402 1.21486 2.07131 1.59712C1.80243 1.97939 1.61929 2.41522 1.53442 2.87481C1.44955 3.3344 1.46496 3.8069 1.57959 4.25998C1.69422 4.71307 1.90537 5.13604 2.19859 5.49998C2.55402 5.92933 2.99096 6.28404 3.4842 6.54364C3.97744 6.80323 4.5172 6.96258 5.07234 7.01248ZM3.84859 1.70498C4.39859 1.27873 7.46484 -0.137523 7.57484 3.46498C7.63043 4.01994 7.47316 4.57531 7.13484 5.01873C6.88804 5.24859 6.58765 5.41304 6.26103 5.49709C5.93441 5.58115 5.59194 5.58214 5.26484 5.49998C4.56314 5.42225 3.9182 5.07763 3.46359 4.53748C3.2876 4.33259 3.15703 4.09272 3.0805 3.83369C3.00396 3.57466 2.9832 3.30235 3.01958 3.03471C3.05595 2.76707 3.14865 2.51018 3.29154 2.28098C3.43444 2.05177 3.6243 1.85546 3.84859 1.70498Z" fill="#020202"/>
<path d="M2.90069 13.3512C1.96147 13.9455 1.26071 14.8506 0.920686 15.9087C0.797191 16.4048 0.773711 16.9204 0.851615 17.4256C0.92952 17.9308 1.10725 18.4155 1.37444 18.8512C1.91655 19.7144 2.75904 20.3462 3.73944 20.625C4.06364 20.7023 4.39616 20.7393 4.72944 20.735C5.04367 20.7251 5.35649 20.6883 5.66444 20.625C6.6056 20.4185 7.44822 19.8973 8.05318 19.1473C8.65815 18.3974 8.98929 17.4635 8.99194 16.5C8.98098 15.7966 8.77956 15.1093 8.40909 14.5113C8.03862 13.9133 7.51296 13.4269 6.88804 13.1038C6.26312 12.7808 5.56232 12.6332 4.86019 12.6768C4.15806 12.7203 3.48088 12.9534 2.90069 13.3512ZM5.36194 19.1262C5.14917 19.1695 4.93279 19.1925 4.71569 19.195C4.51632 19.2006 4.31719 19.1774 4.12444 19.1262C3.51065 18.9634 2.98057 18.5756 2.63944 18.04C2.26688 17.5135 2.11852 16.8607 2.22694 16.225C2.40127 15.429 2.8549 14.7217 3.50569 14.2312C3.90393 13.9139 4.38664 13.7205 4.89385 13.6752C5.40105 13.6299 5.91039 13.7346 6.35861 13.9762C6.80683 14.2179 7.17416 14.586 7.41498 15.0346C7.6558 15.4833 7.7595 15.9929 7.71319 16.5C7.69095 17.1438 7.44338 17.7594 7.01368 18.2394C6.58397 18.7193 5.9994 19.0332 5.36194 19.1262Z" fill="#020202"/>
<path d="M3.53296 25.4787C2.48314 25.9626 1.63644 26.7996 1.14046 27.8437C0.732277 28.6497 0.592555 29.5651 0.741709 30.4562C0.872416 31.1184 1.2268 31.7155 1.74546 32.1475C2.25764 32.5222 2.8444 32.7824 3.46596 32.9105C4.08751 33.0386 4.72935 33.0316 5.34796 32.89C5.97636 32.7934 6.57076 32.5417 7.07735 32.1576C7.58394 31.7734 7.98672 31.269 8.24921 30.69C8.58638 29.8328 8.58638 28.8797 8.24921 28.0225C6.87421 24.0487 3.87671 25.3137 3.53296 25.4787ZM7.08046 30.25C6.86843 30.5976 6.57476 30.8883 6.22492 31.0968C5.87508 31.3053 5.47966 31.4252 5.07296 31.4462C4.67083 31.5312 4.25511 31.5285 3.85411 31.4384C3.4531 31.3482 3.07625 31.1727 2.74921 30.9237C2.59054 30.7937 2.45995 30.6329 2.3654 30.4509C2.27085 30.2688 2.21431 30.0695 2.19921 29.865C2.15131 29.3696 2.22201 28.87 2.40546 28.4075C2.70178 27.599 3.26424 26.9153 4.00046 26.4687C6.17296 25.2587 7.09421 27.9812 7.20421 28.3662C7.4033 28.9871 7.35906 29.6604 7.08046 30.25Z" fill="#020202"/>
</g>
<defs>
<clipPath id="clip0_479_43280">
<rect width="33" height="33" fill="white"/>
</clipPath>
</defs>
</svg>
