<svg width="20" height="21" viewBox="0 0 20 21" fill="none" xmlns="http://www.w3.org/2000/svg">
<path d="M3.2036 3.70396C2.75309 4.15451 2.5 4.76556 2.5 5.40271C2.5 6.03986 2.75309 6.65091 3.2036 7.10146L4.5261 8.42479L4.55777 8.39146L7.8911 5.05813L7.92444 5.02646L6.6011 3.70396C6.15055 3.25345 5.5395 3.00036 4.90235 3.00036C4.26521 3.00036 3.65415 3.25345 3.2036 3.70396ZM8.8061 5.90813L8.77444 5.94146L5.4411 9.27479L5.40777 9.30646L13.3978 17.2965C13.851 17.7345 14.4582 17.977 15.0885 17.9716C15.7187 17.9662 16.3217 17.7135 16.7674 17.2678C17.2131 16.8221 17.4659 16.2191 17.4712 15.5888C17.4766 14.9585 17.2341 14.3514 16.7961 13.8981L8.8061 5.90813ZM13.4161 2.42229C13.4455 2.34679 13.4971 2.28193 13.564 2.2362C13.6309 2.19048 13.7101 2.16602 13.7911 2.16602C13.8721 2.16602 13.9513 2.19048 14.0182 2.2362C14.0851 2.28193 14.1367 2.34679 14.1661 2.42229L14.5244 3.33479C14.5444 3.38647 14.5748 3.43345 14.6138 3.47275C14.6528 3.51206 14.6996 3.54283 14.7511 3.56313L15.6603 3.92313C15.7356 3.95312 15.8001 4.005 15.8456 4.07208C15.8911 4.13915 15.9154 4.21833 15.9154 4.29938C15.9154 4.38042 15.8911 4.4596 15.8456 4.52667C15.8001 4.59375 15.7356 4.64564 15.6603 4.67563L14.7519 5.03563C14.7008 5.05657 14.6544 5.08748 14.6153 5.12653C14.5763 5.16559 14.5454 5.21202 14.5244 5.26313L14.1661 6.17479C14.1367 6.2503 14.0851 6.31515 14.0182 6.36088C13.9513 6.40661 13.8721 6.43107 13.7911 6.43107C13.7101 6.43107 13.6309 6.40661 13.564 6.36088C13.4971 6.31515 13.4455 6.2503 13.4161 6.17479L13.0578 5.26229C13.0368 5.21119 13.0059 5.16475 12.9669 5.1257C12.9278 5.08664 12.8814 5.05574 12.8303 5.03479L11.9219 4.67479C11.8466 4.6448 11.7821 4.59292 11.7366 4.52584C11.6911 4.45876 11.6668 4.37958 11.6668 4.29854C11.6668 4.2175 11.6911 4.13832 11.7366 4.07125C11.7821 4.00417 11.8466 3.95228 11.9219 3.92229L12.8303 3.56229C12.8815 3.54125 12.9279 3.51022 12.967 3.47101C13.0061 3.43181 13.0369 3.38522 13.0578 3.33396L13.4161 2.42229ZM16.6386 8.10813C16.668 8.03262 16.7196 7.96776 16.7865 7.92204C16.8534 7.87631 16.9326 7.85185 17.0136 7.85185C17.0946 7.85185 17.1738 7.87631 17.2407 7.92204C17.3076 7.96776 17.3592 8.03262 17.3886 8.10813L17.5186 8.44063C17.5603 8.54479 17.6419 8.62729 17.7461 8.66813L18.0778 8.79979C18.1528 8.82992 18.2171 8.88181 18.2624 8.94879C18.3077 9.01577 18.3319 9.09477 18.3319 9.17563C18.3319 9.25648 18.3077 9.33548 18.2624 9.40246C18.2171 9.46944 18.1528 9.52133 18.0778 9.55146L17.7461 9.68313C17.695 9.70407 17.6486 9.73498 17.6095 9.77403C17.5705 9.81309 17.5396 9.85952 17.5186 9.91063L17.3886 10.244C17.3592 10.3195 17.3076 10.3843 17.2407 10.43C17.1738 10.4758 17.0946 10.5002 17.0136 10.5002C16.9326 10.5002 16.8534 10.4758 16.7865 10.43C16.7196 10.3843 16.668 10.3195 16.6386 10.244L16.5078 9.91063C16.4869 9.8596 16.4561 9.81321 16.4172 9.77416C16.3783 9.73511 16.3321 9.70417 16.2811 9.68313L15.9494 9.55146C15.8744 9.52133 15.8101 9.46944 15.7648 9.40246C15.7195 9.33548 15.6953 9.25648 15.6953 9.17563C15.6953 9.09477 15.7195 9.01577 15.7648 8.94879C15.8101 8.88181 15.8744 8.82992 15.9494 8.79979L16.2811 8.66813C16.3321 8.64708 16.3783 8.61614 16.4172 8.57709C16.4561 8.53804 16.4869 8.49166 16.5078 8.44063L16.6386 8.10813ZM4.27694 13.2556C4.30638 13.1801 4.35792 13.1153 4.42483 13.0695C4.49174 13.0238 4.57089 12.9993 4.65194 12.9993C4.73298 12.9993 4.81213 13.0238 4.87904 13.0695C4.94595 13.1153 4.99749 13.1801 5.02694 13.2556L5.15777 13.589C5.17778 13.6405 5.20826 13.6873 5.24727 13.7265C5.28628 13.7656 5.33299 13.7963 5.38444 13.8165L5.7161 13.9473C5.79139 13.9773 5.85595 14.0292 5.90144 14.0962C5.94692 14.1633 5.97123 14.2425 5.97123 14.3235C5.97123 14.4046 5.94692 14.4838 5.90144 14.5508C5.85595 14.6179 5.79139 14.6698 5.7161 14.6998L5.38444 14.8315C5.33299 14.8517 5.28628 14.8823 5.24727 14.9215C5.20826 14.9606 5.17778 15.0074 5.15777 15.059L5.02694 15.3923C4.99749 15.4678 4.94595 15.5327 4.87904 15.5784C4.81213 15.6241 4.73298 15.6486 4.65194 15.6486C4.57089 15.6486 4.49174 15.6241 4.42483 15.5784C4.35792 15.5327 4.30638 15.4678 4.27694 15.3923L4.1461 15.059C4.12609 15.0074 4.09562 14.9606 4.0566 14.9215C4.01759 14.8823 3.97089 14.8517 3.91944 14.8315L3.58777 14.6998C3.51248 14.6698 3.44792 14.6179 3.40244 14.5508C3.35695 14.4838 3.33264 14.4046 3.33264 14.3235C3.33264 14.2425 3.35695 14.1633 3.40244 14.0962C3.44792 14.0292 3.51248 13.9773 3.58777 13.9473L3.91944 13.8165C3.97097 13.7962 4.01772 13.7654 4.05674 13.7261C4.09576 13.6868 4.12619 13.6398 4.1461 13.5881L4.27694 13.2556Z" fill="#151515"/>
</svg>
