<svg width="100" height="99" viewBox="0 0 100 99" fill="none" xmlns="http://www.w3.org/2000/svg">
<g clip-path="url(#clip0_1247_15063)">
<path d="M79.8358 79.6453C80.2219 80.4297 80.7537 81.1209 81.3985 81.6771C82.0432 82.2333 82.7874 82.6426 83.5856 82.88C84.3837 83.1173 85.219 83.1777 86.0403 83.0576C86.8614 82.9373 87.6514 82.639 88.3616 82.1807C91.4014 80.2627 92.4745 76.1581 90.7435 73.0459C89.8308 71.1883 88.3372 63.0502 98.6253 56.4217C106.715 51.152 120.409 63.3577 122.592 66.4282C123.493 67.9054 124.901 68.9431 126.513 69.318C128.124 69.6926 129.81 69.3743 131.205 68.4314C134.115 66.5733 134.951 62.2556 133.22 59.1434C130.265 54.1512 109.241 33.7728 92.2222 44.8754C90.6498 45.9394 89.1301 47.0904 87.6695 48.324C75.8037 58.9639 76.2761 72.7986 79.8358 79.6453Z" fill="#A7EBE6"/>
<path d="M39.5448 87.0554C50.0904 87.1414 49.623 82.0028 54.1527 80.8921C60.4451 79.416 64.6422 76.7336 64.748 72.6233C64.813 70.6787 64.1727 68.8319 62.968 67.4883C61.7632 66.1445 60.0925 65.414 58.3227 65.457C52.1698 65.5992 50.4519 67.5946 47.8232 70.7582C46.2535 72.7233 43.164 72.06 39.5119 72.987C35.8601 73.9139 33.5004 75.5524 33.2454 79.6971C33.2135 80.6785 33.3304 81.6492 33.5911 82.5694C34.0914 83.8614 34.9085 84.96 35.9567 85.7489C37.0048 86.5377 38.2448 86.9877 39.5459 87.0512L39.5448 87.0554Z" fill="#A7EBE6"/>
<path d="M5.53031 33.2638C13.561 38.9365 21.2602 39.6143 28.0098 40.3472C34.9103 41.0939 40.2606 41.5206 46.5648 46.999C49.4819 49.6311 53.9543 49.3476 56.5919 46.5347C59.2298 43.7215 58.8427 39.352 55.9203 36.7123C46.2479 28.2356 36.8237 27.3688 29.2943 26.5523C23.3318 25.9071 18.7801 25.4114 13.7034 22.0749C12.3548 21.1444 10.7272 20.6944 9.09847 20.8019C7.46978 20.9093 5.94105 21.5676 4.77323 22.6642C3.60542 23.7608 2.87094 25.2278 2.69521 26.8147C2.51947 28.4018 2.91339 30.0103 3.80968 31.3656C4.16465 32.1513 4.76376 32.811 5.52021 33.2492L5.53031 33.2638Z" fill="#A7EBE6"/>
<path d="M23.9143 110.674C24.4224 112.478 25.5559 113.998 27.0762 114.914C28.5968 115.83 30.3857 116.071 32.0668 115.586C33.9433 115.029 37.8244 110.857 40.6994 114.333C43.5297 117.658 39.3783 121.605 36.0341 126.725C35.0181 128.285 34.6154 130.219 34.9147 132.101C35.2139 133.983 36.1902 135.659 37.6291 136.761C39.0681 137.862 40.8518 138.299 42.5875 137.974C44.3233 137.65 45.8691 136.591 46.8852 135.031C52.1173 126.721 58.941 114.491 52.8904 106.112C44.3478 94.062 32.6223 100.667 28.362 102.042C26.7299 102.571 25.3518 103.767 24.5194 105.379C23.6871 106.99 23.466 108.889 23.903 110.674H23.9143Z" fill="#A7EBE6"/>
<path d="M87.2095 26.6154C73.6092 25.4143 68.5937 30.3813 71.06 34.9796C73.5263 39.5779 88.0397 38.9516 102.748 37.5117C117.595 36.0131 134.651 26.6696 137.85 18.5257C140.462 11.9297 133.357 9.81723 128.226 13.1201C124.319 15.7241 118.861 20.4554 111.554 23.1471C105.757 25.314 100.809 27.8133 87.2095 26.6154Z" fill="#A7EBE6"/>
<path d="M57.8363 20.8584C59.4192 25.8803 62.9708 27.0171 67.3015 25.8843C71.6321 24.7514 76.186 19.2389 71.1994 14.201C62.3868 5.08656 56.2568 15.8324 57.8363 20.8584Z" fill="#A7EBE6"/>
<path d="M89.4742 20.8421H58.6847C53.9479 20.8421 52.8953 19.8 48.6847 15.6316C45.2637 11.9842 42.1058 10.4211 37.1058 10.4211H10.5268C7.63209 10.4211 5.26367 12.7658 5.26367 15.6316V78.1579C5.26367 81.0237 7.63209 83.3685 10.5268 83.3685H15.79V78.1579H10.5268V15.6316C10.5268 15.6316 34.7374 15.6316 37.3689 15.6316C40.2637 15.6316 42.3689 16.1527 45.0005 19.0185C49.211 23.7079 51.8426 26.0527 58.6847 26.0527C63.9479 26.0527 89.4742 26.0527 89.4742 26.0527V78.1579H78.9479V46.8948C78.9479 44.029 76.5795 41.6842 73.6847 41.6842H26.3163C23.4216 41.6842 21.0531 44.029 21.0531 46.8948V83.3685H89.4742C92.3689 83.3685 94.7374 81.0237 94.7374 78.1579V26.0527C94.7374 23.1869 92.3689 20.8421 89.4742 20.8421ZM73.6847 78.1579H26.3163V59.4L48.6847 72.6869C48.9479 72.9474 49.4742 72.9474 50.0005 72.9474C50.5268 72.9474 51.0531 72.9474 51.3163 72.6869L73.6847 59.4V78.1579ZM73.6847 53.1474L50.0005 67.2158L26.3163 53.1474V46.8948H73.6847V53.1474Z" fill="#1F2323"/>
</g>
<defs>
<clipPath id="clip0_1247_15063">
<rect width="100" height="99" fill="white"/>
</clipPath>
</defs>
</svg>
