<svg width="26" height="26" viewBox="0 0 26 26" fill="none" xmlns="http://www.w3.org/2000/svg">
<path d="M11.6725 8.26528C12.1246 7.81319 12.1246 7.07825 11.6725 6.62616L10.0936 5.04732C9.64153 4.59523 8.90659 4.59523 8.4545 5.04732L6.87565 6.62616C6.42356 7.07825 6.42356 7.81319 6.87565 8.26528C6.87565 8.26528 8.48541 9.87427 8.50164 9.88818V11.4222C7.38571 11.7553 6.56962 12.7916 6.56962 14.0142C6.56962 15.2368 7.38571 16.2731 8.50164 16.6062V18.0714C7.64923 18.0714 6.95603 18.7646 6.95603 19.617V21.1626C6.95603 22.015 7.64923 22.7083 8.50164 22.7083H10.0472C10.8997 22.7083 11.5929 22.015 11.5929 21.1626V19.617C11.5929 18.7646 10.8997 18.0714 10.0472 18.0714V16.6062C11.1632 16.2731 11.9793 15.2368 11.9793 14.0142C11.9793 12.7916 11.1632 11.7553 10.0472 11.4222V9.88818C10.0635 9.87427 11.6725 8.26528 11.6725 8.26528ZM10.0465 21.1626H8.50086V19.617H10.0465V21.1626ZM8.2412 7.44534L9.27367 6.41287L10.3061 7.44534L9.27367 8.47781L8.2412 7.44534ZM10.4329 14.0142C10.4329 14.6533 9.91278 15.1734 9.27367 15.1734C8.63456 15.1734 8.11446 14.6533 8.11446 14.0142C8.11446 13.3751 8.63456 12.855 9.27367 12.855C9.91278 12.855 10.4329 13.3751 10.4329 14.0142ZM18.5473 9.18415V11.5026C18.5473 12.9941 17.334 14.2074 15.8425 14.2074H14.6833L15.2961 14.8202C15.5983 15.1224 15.5983 15.6108 15.2961 15.913C15.1454 16.0637 14.9476 16.1394 14.7498 16.1394C14.5519 16.1394 14.3541 16.0637 14.2034 15.913L12.8178 14.5273C12.215 13.9245 12.215 12.9446 12.8178 12.3418L14.2034 10.9562C14.5056 10.654 14.994 10.654 15.2961 10.9562C15.5983 11.2584 15.5983 11.7468 15.2961 12.0489L14.6833 12.6618H15.8425C16.4816 12.6618 17.0017 12.1417 17.0017 11.5026V9.18415C17.0017 8.54504 16.4816 8.02494 15.8425 8.02494H13.9105C13.4839 8.02494 13.1377 7.67872 13.1377 7.25214C13.1377 6.82555 13.4839 6.47933 13.9105 6.47933H15.8425C17.334 6.47933 18.5473 7.69263 18.5473 9.18415ZM5.72958 18.5243C6.33237 19.1263 6.33237 20.1078 5.72958 20.7098L4.34394 22.0954C4.19324 22.2461 3.99541 22.3218 3.79757 22.3218C3.59973 22.3218 3.40189 22.2461 3.25119 22.0954C2.94903 21.7933 2.94903 21.3048 3.25119 21.0027L3.86403 20.3898H2.70482C1.21331 20.3898 0 19.1765 0 17.685V15.3666C0 13.8751 1.21331 12.6618 2.70482 12.6618H4.63684C5.06342 12.6618 5.40964 13.008 5.40964 13.4346C5.40964 13.8612 5.06342 14.2074 4.63684 14.2074H2.70482C2.06571 14.2074 1.54561 14.7275 1.54561 15.3666V17.685C1.54561 18.3241 2.06571 18.8442 2.70482 18.8442H3.86403L3.25119 18.2314C2.94903 17.9292 2.94903 17.4408 3.25119 17.1386C3.55336 16.8365 4.04177 16.8365 4.34394 17.1386L5.72958 18.5243Z" fill="black"/>
</svg>
