<svg width="26" height="26" viewBox="0 0 26 26" fill="none" xmlns="http://www.w3.org/2000/svg">
<path d="M3.25 7.3125V9.75H9.07725C9.29232 9.74995 9.4986 9.66464 9.65088 9.51275L11.8511 7.3125L9.65088 5.11225C9.4986 4.96036 9.29232 4.87505 9.07725 4.875H5.6875C5.04103 4.875 4.42105 5.13181 3.96393 5.58893C3.50681 6.04605 3.25 6.66603 3.25 7.3125ZM1.625 7.3125C1.625 6.23506 2.05301 5.20175 2.81488 4.43988C3.57675 3.67801 4.61006 3.25 5.6875 3.25H9.07725C9.7235 3.25057 10.3431 3.50775 10.7997 3.965L13.3364 6.5H20.3125C21.3899 6.5 22.4233 6.92801 23.1851 7.68988C23.947 8.45175 24.375 9.48506 24.375 10.5625V11.7926C23.8738 11.3787 23.3289 11.0207 22.75 10.725V10.5625C22.75 9.91603 22.4932 9.29605 22.0361 8.83893C21.579 8.38181 20.959 8.125 20.3125 8.125H13.3364L10.8014 10.66C10.5749 10.8868 10.3058 11.0667 10.0097 11.1894C9.71358 11.3121 9.39616 11.3751 9.07563 11.375H3.25V18.6875C3.25 19.334 3.50681 19.954 3.96393 20.4111C4.42105 20.8682 5.04103 21.125 5.6875 21.125H10.0864C10.2478 21.6927 10.4607 22.2343 10.725 22.75H5.6875C4.61006 22.75 3.57675 22.322 2.81488 21.5601C2.05301 20.7983 1.625 19.7649 1.625 18.6875V7.3125ZM18.6875 11.375C20.6269 11.375 22.4869 12.1454 23.8582 13.5168C25.2296 14.8881 26 16.7481 26 18.6875C26 20.6269 25.2296 22.4869 23.8582 23.8582C22.4869 25.2296 20.6269 26 18.6875 26C16.7481 26 14.8881 25.2296 13.5168 23.8582C12.1454 22.4869 11.375 20.6269 11.375 18.6875C11.375 16.7481 12.1454 14.8881 13.5168 13.5168C14.8881 12.1454 16.7481 11.375 18.6875 11.375ZM22.5111 19.2628L22.516 19.2579C22.6647 19.1071 22.7487 18.9042 22.75 18.6924V18.6826C22.7487 18.4692 22.6635 18.2649 22.5128 18.1139L19.2628 14.8639C19.1104 14.7113 18.9037 14.6255 18.6881 14.6254C18.4725 14.6252 18.2656 14.7107 18.1131 14.8631C17.9605 15.0154 17.8747 15.2221 17.8745 15.4377C17.8744 15.6533 17.9599 15.8602 18.1122 16.0128L19.9761 17.875H15.4375C15.222 17.875 15.0153 17.9606 14.863 18.113C14.7106 18.2653 14.625 18.472 14.625 18.6875C14.625 18.903 14.7106 19.1097 14.863 19.262C15.0153 19.4144 15.222 19.5 15.4375 19.5H19.9761L18.1122 21.3622C18.0367 21.4378 17.9768 21.5275 17.9359 21.6262C17.895 21.7249 17.874 21.8307 17.874 21.9375C17.874 22.0443 17.895 22.1501 17.9359 22.2488C17.9768 22.3475 18.0367 22.4372 18.1122 22.5128C18.1878 22.5883 18.2775 22.6482 18.3762 22.6891C18.4749 22.73 18.5807 22.751 18.6875 22.751C18.7943 22.751 18.9001 22.73 18.9988 22.6891C19.0975 22.6482 19.1872 22.5883 19.2628 22.5128L22.5111 19.2628Z" fill="black"/>
</svg>
