<svg width="64" height="64" viewBox="0 0 64 64" fill="none" xmlns="http://www.w3.org/2000/svg">
<rect width="64" height="64" rx="32" fill="#243547"/>
<path d="M31.7435 35.3353C30.6322 35.3353 29.6876 34.9464 28.9096 34.1684C28.1317 33.3905 27.7427 32.4458 27.7427 31.3345V23.3329C27.7427 22.2215 28.1317 21.2769 28.9096 20.4989C29.6876 19.721 30.6322 19.332 31.7435 19.332C32.8549 19.332 33.7995 19.721 34.5775 20.4989C35.3554 21.2769 35.7444 22.2215 35.7444 23.3329V31.3345C35.7444 32.4458 35.3554 33.3905 34.5775 34.1684C33.7995 34.9464 32.8549 35.3353 31.7435 35.3353ZM30.4099 43.337V40.5697C28.3651 40.2808 26.6149 39.414 25.1595 37.9692C23.7041 36.5245 22.8204 34.7686 22.5083 32.7015C22.4639 32.3236 22.5639 32.0013 22.8084 31.7346C23.0529 31.4679 23.364 31.3345 23.7419 31.3345C24.1197 31.3345 24.4367 31.4625 24.6928 31.7186C24.9488 31.9746 25.1208 32.2912 25.2089 32.6681C25.52 34.224 26.2926 35.502 27.5267 36.5022C28.7607 37.5024 30.1663 38.0026 31.7435 38.0026C33.3439 38.0026 34.7553 37.4971 35.9778 36.4862C37.2002 35.4754 37.9671 34.2027 38.2782 32.6681C38.3671 32.2903 38.5396 31.9738 38.7957 31.7186C39.0517 31.4634 39.3682 31.3354 39.7452 31.3345C40.1222 31.3336 40.4333 31.467 40.6787 31.7346C40.9241 32.0022 41.0241 32.3245 40.9788 32.7015C40.6676 34.7241 39.7897 36.4689 38.3449 37.9359C36.9002 39.4028 35.1442 40.2808 33.0772 40.5697V43.337C33.0772 43.7148 32.9491 44.0318 32.6931 44.2878C32.437 44.5439 32.1205 44.6715 31.7435 44.6706C31.3666 44.6697 31.0501 44.5417 30.794 44.2865C30.538 44.0314 30.4099 43.7148 30.4099 43.337Z" fill="white"/>
</svg>
