<svg width="18" height="18" viewBox="0 0 18 18" fill="none" xmlns="http://www.w3.org/2000/svg">
<path d="M12.672 0.914144C13.8908 -0.304715 15.867 -0.304715 17.0858 0.914144C18.3047 2.133 18.3047 4.10917 17.0858 5.32803L11.1491 11.2648C10.3841 12.0297 9.3918 12.5259 8.32088 12.6789L6.14096 12.9903C5.8294 13.0348 5.51505 12.9301 5.2925 12.7075C5.06995 12.4849 4.96517 12.1705 5.00968 11.8591L5.32109 9.67912C5.47408 8.6082 5.97027 7.61578 6.7352 6.85089L12.672 0.914144ZM15.6717 2.32825C15.2339 1.89038 14.5239 1.89038 14.086 2.32825L8.14929 8.26503C7.69033 8.72399 7.39265 9.31935 7.30086 9.9619L7.17797 10.822L8.038 10.6991C8.68055 10.6074 9.27601 10.3097 9.73497 9.85071L15.6717 3.91392C16.1096 3.47605 16.1096 2.76613 15.6717 2.32825ZM7.9994 1.00056C7.9998 1.5528 7.55254 2.00082 7.00028 2.00126C6.00182 2.00203 5.2973 2.00946 4.74616 2.06183C4.20654 2.11309 3.88459 2.20235 3.63776 2.32812C3.07331 2.61572 2.61441 3.07462 2.32681 3.63906C2.19263 3.9024 2.10046 4.25007 2.05103 4.85518C2.00063 5.47198 1.99985 6.26424 1.99985 7.40079V10.6006C1.99985 11.7371 2.00063 12.5293 2.05103 13.1461C2.10046 13.7512 2.19263 14.0989 2.32681 14.3622C2.61441 14.9266 3.07331 15.3856 3.63776 15.6732C3.90109 15.8074 4.24875 15.8995 4.85388 15.949C5.47067 15.9993 6.26292 16.0001 7.39945 16.0001H10.5992C11.7357 16.0001 12.528 15.9993 13.1448 15.949C13.7499 15.8995 14.0975 15.8074 14.3609 15.6732C14.9254 15.3856 15.3843 14.9266 15.6718 14.3622C15.7976 14.1154 15.8869 13.7934 15.9381 13.2539C15.9905 12.7027 15.9979 11.9981 15.9987 10.9997C15.9991 10.4475 16.4472 10.0001 16.9994 10.0006C17.5517 10.001 17.999 10.4491 17.9986 11.0012C17.9978 11.9793 17.9919 12.7812 17.9291 13.4429C17.8651 14.1163 17.7372 14.7138 17.4537 15.2701C16.9744 16.2108 16.2096 16.9757 15.2689 17.455C14.6766 17.7568 14.0365 17.8826 13.3076 17.9421C12.5999 18 11.7257 18 10.642 18H7.35665C6.27292 18 5.39885 18 4.69103 17.9421C3.96223 17.8826 3.32209 17.7568 2.72985 17.455C1.78911 16.9757 1.02425 16.2108 0.54493 15.2701C0.243162 14.6778 0.117362 14.0377 0.057816 13.3089C-1.96532e-05 12.6011 -9.73636e-06 11.7271 2.62892e-07 10.6433V7.35799C-9.73636e-06 6.27424 -1.96532e-05 5.40016 0.057816 4.69233C0.117362 3.96354 0.243162 3.32339 0.54493 2.73115C1.02425 1.79041 1.78911 1.02557 2.72985 0.546232C3.28609 0.262813 3.8837 0.134913 4.55701 0.0709474C5.2188 0.00807211 6.02058 0.00217253 6.9987 0.00141258C7.55094 0.000982616 7.999 0.448309 7.9994 1.00056Z" fill="white"/>
</svg>
