<svg width="33" height="33" viewBox="0 0 33 33" fill="none" xmlns="http://www.w3.org/2000/svg">
<g clip-path="url(#clip0_479_43437)">
<path d="M33.0006 3.42374C33.0041 2.75861 32.7589 2.1162 32.3131 1.62249C31.9009 1.38438 31.4446 1.23237 30.972 1.17565C30.4993 1.11893 30.02 1.15868 29.5631 1.29249C27.8854 1.66258 26.2284 2.12156 24.5994 2.66749C23.7606 2.91499 22.9356 3.20374 22.1244 3.51999C20.9144 3.97374 19.7319 4.49624 18.5356 5.01874C16.3344 5.98002 14.1863 7.05865 12.1006 8.24999C10.008 9.42794 8.03674 10.8096 6.21563 12.375L1.49938 16.5962L0.41313 17.6825C0.279124 17.8231 0.163608 17.9802 0.0693803 18.15C0.0263524 18.27 0.0263524 18.4012 0.0693803 18.5212C0.0975541 18.6722 0.162471 18.8139 0.258395 18.9338C0.35432 19.0537 0.478299 19.1481 0.61938 19.2087C1.15062 19.3901 1.70804 19.483 2.26938 19.4837C2.87438 19.4837 3.94688 19.4837 4.86813 19.6212C5.33405 19.6073 5.79897 19.6723 6.24313 19.8137L6.50438 22.88C6.58688 23.76 6.62813 24.4475 6.62813 25.0937C6.62813 26.125 6.49063 27.9125 6.49063 29.315C6.49063 29.439 6.53989 29.5579 6.62756 29.6456C6.71523 29.7332 6.83414 29.7825 6.95813 29.7825C7.08212 29.7825 7.20103 29.7332 7.2887 29.6456C7.37638 29.5579 7.42563 29.439 7.42563 29.315C7.42563 27.94 7.60438 26.125 7.61813 25.0937C7.61813 24.42 7.61813 23.7187 7.52188 22.7975C7.42563 21.8762 7.42563 20.7212 7.31563 20.0475C7.20563 19.3737 7.19188 19.0025 5.47313 18.6725C4.45563 18.5487 3.05313 18.48 2.29688 18.4387L1.54063 18.3287L2.33813 17.545L7.08188 13.42C8.83781 11.8954 10.7453 10.5547 12.7744 9.41874C14.8255 8.31238 16.932 7.3119 19.0856 6.42124C20.2544 5.92624 21.4369 5.44499 22.6194 5.04624C25.1353 4.11461 27.7311 3.41503 30.3744 2.95624C31.6119 3.49249 31.4331 3.95999 31.4056 4.33124C31.3543 5.02532 31.2299 5.71205 31.0344 6.37999L29.2606 12.375C28.9031 13.5712 28.5181 14.685 28.1194 15.7712C27.1431 18.3975 26.0706 20.8587 25.0806 23.705C24.8487 24.3509 24.573 24.9803 24.2556 25.5887C23.7469 26.5512 23.1694 27.4725 22.6331 28.3387C22.4819 28.6189 22.3071 28.8857 22.1106 29.1362L21.9731 29.3012L21.8906 29.1775L20.5156 27.0187C19.8376 26.0886 19.1125 25.1936 18.3431 24.3375C17.5715 23.474 16.7497 22.6567 15.8819 21.89C15.2906 21.395 13.6269 20.02 13.1319 21.01C12.9944 21.1887 12.8431 21.5325 12.7606 21.6287L11.1519 23.9662L9.52938 26.84C8.95188 27.8437 8.26438 28.7925 7.64563 29.7962C7.38438 30.2362 7.12313 30.69 6.90313 31.1712C6.85585 31.2697 6.84956 31.3829 6.88565 31.486C6.92174 31.5892 6.99725 31.6737 7.09563 31.7212C7.09563 31.7212 7.48063 32.0375 8.04438 31.6112C8.60813 31.185 8.77313 31.075 9.08938 30.8275C9.40563 30.58 10.1344 30.0712 10.6431 29.7137C11.1519 29.3562 11.5644 29.095 12.0181 28.7787L14.1081 27.3212C15.2081 26.5375 16.2669 25.7262 17.2981 24.86L17.5319 25.1212C18.2744 25.9875 18.9756 26.895 19.5806 27.7475L20.8181 29.865C20.9441 30.0994 21.0865 30.3245 21.2444 30.5387C21.3231 30.622 21.4197 30.6864 21.5268 30.7269C21.634 30.7673 21.749 30.7829 21.8631 30.7725C22.1889 30.7189 22.4935 30.5761 22.7431 30.36C23.134 29.9811 23.4716 29.5509 23.7469 29.0812C24.3106 28.215 24.9294 27.2662 25.4656 26.3312C25.835 25.6742 26.1522 24.9892 26.4144 24.2825C27.4319 21.45 28.5594 19.0162 29.5494 16.4175C29.9894 15.29 30.3881 14.1487 30.7594 12.925L32.5469 6.87499C32.8804 5.75595 33.0335 4.59095 33.0006 3.42374ZM12.5406 26.4962C12.0659 26.8029 11.607 27.1333 11.1656 27.4862C10.6981 27.8575 10.2581 28.2425 9.79063 28.655L8.75938 29.7137C9.29563 28.9025 9.85938 28.1187 10.3544 27.2937L12.0594 24.5437L13.6406 22.275C13.7094 22.1925 13.9156 21.8487 13.9981 21.7112C14.0806 21.5737 14.2731 21.89 14.4244 22C14.5756 22.11 15.0431 22.5637 15.2219 22.715C15.6894 23.1412 16.1569 23.6225 16.5969 24.09C15.2906 24.9562 13.8744 25.6575 12.5406 26.4962Z" fill="#020202"/>
<path d="M18.839 13.2963C18.1103 14.0938 17.464 14.9325 16.749 15.7988C16.034 16.665 15.209 17.7788 14.5078 18.8238C14.3565 19.0438 14.219 19.2775 14.0815 19.4975C13.724 20.5838 14.2328 20.4188 15.1815 19.6075L15.3053 19.415C16.0753 18.4388 16.9415 17.5175 17.7528 16.665C19.059 15.1663 20.5028 13.7913 21.8778 12.43L24.9303 9.55625C26.429 8.18125 27.9278 6.72375 29.399 5.28C31.6265 1.375 25.5628 6.875 22.2903 9.85875C21.094 11 19.939 12.0863 18.839 13.2963Z" fill="#3FBDCB"/>
<path d="M18.2889 9.08874C16.3777 10.3812 14.5352 11.7562 12.6927 13.2137L8.34766 16.7475C8.07266 16.995 7.75641 17.2562 7.44016 17.5175C6.78016 18.3425 6.87641 18.645 8.37516 17.985C8.59516 17.8337 8.81516 17.6825 8.99391 17.5312L13.5314 14.2862L24.8339 6.48998C25.9477 5.73373 27.0202 4.97749 28.1339 4.24874C28.3952 3.32749 26.4427 3.97374 24.8339 4.92249L24.1052 5.36249C22.1527 6.58624 20.1864 7.78249 18.2889 9.08874Z" fill="#3FBDCB"/>
</g>
<defs>
<clipPath id="clip0_479_43437">
<rect width="33" height="33" fill="white"/>
</clipPath>
</defs>
</svg>
