<svg width="26" height="26" viewBox="0 0 26 26" fill="none" xmlns="http://www.w3.org/2000/svg">
<path d="M9.74999 17.75C9.9489 17.75 10.1397 17.829 10.2803 17.9697C10.421 18.1103 10.5 18.3011 10.5 18.5C10.5 18.6989 10.421 18.8897 10.2803 19.0303C10.1397 19.171 9.9489 19.25 9.74999 19.25H8.99999C8.80108 19.25 8.61032 19.171 8.46966 19.0303C8.32901 18.8897 8.24999 18.6989 8.24999 18.5C8.24999 18.3011 8.32901 18.1103 8.46966 17.9697C8.61032 17.829 8.80108 17.75 8.99999 17.75H9.74999ZM8.24999 16.25C8.05108 16.25 7.86032 16.171 7.71966 16.0303C7.57901 15.8897 7.49999 15.6989 7.49999 15.5V14.75H6V15.5C6 15.6989 5.92098 15.8897 5.78033 16.0303C5.63967 16.171 5.44891 16.25 5.25 16.25C5.05108 16.25 4.86032 16.171 4.71967 16.0303C4.57901 15.8897 4.5 15.6989 4.5 15.5V12.5C4.5 11.9033 4.73705 11.331 5.15901 10.909C5.58096 10.4871 6.15326 10.25 6.75 10.25C7.34673 10.25 7.91903 10.4871 8.34098 10.909C8.76294 11.331 8.99999 11.9033 8.99999 12.5V15.5C8.99999 15.6989 8.92098 15.8897 8.78032 16.0303C8.63967 16.171 8.44891 16.25 8.24999 16.25ZM7.49999 13.25V12.5C7.49999 12.3011 7.42098 12.1103 7.28032 11.9697C7.13967 11.829 6.94891 11.75 6.75 11.75C6.55108 11.75 6.36032 11.829 6.21967 11.9697C6.07901 12.1103 6 12.3011 6 12.5V13.25H7.49999ZM6.21675 17.225L5.00775 18.4475C4.97388 18.4816 4.92825 18.5013 4.88024 18.5027C4.83224 18.5041 4.78553 18.487 4.74975 18.455L4.28775 17.975C4.14851 17.8324 3.95832 17.7509 3.75901 17.7485C3.55971 17.7461 3.36762 17.823 3.225 17.9623C3.08238 18.1015 3.00091 18.2917 2.99852 18.491C2.99613 18.6903 3.07301 18.8824 3.21225 19.025L3.68175 19.508C3.99882 19.8245 4.42851 20.0022 4.8765 20.0022C5.32448 20.0022 5.75417 19.8245 6.07125 19.508L7.28325 18.275C7.40733 18.1308 7.47199 17.9449 7.46414 17.7548C7.45629 17.5648 7.37651 17.3848 7.24096 17.2513C7.10541 17.1179 6.92421 17.0409 6.73405 17.036C6.54389 17.0311 6.35897 17.0987 6.21675 17.225ZM13.5 9.99276V19.25C13.4988 20.2442 13.1033 21.1973 12.4003 21.9003C11.6973 22.6033 10.7442 22.9988 9.74999 23H3.75C2.7558 22.9988 1.80267 22.6033 1.09966 21.9003C0.396661 21.1973 0.00119089 20.2442 0 19.25V8.75001C0.00119089 7.75581 0.396661 6.80268 1.09966 6.09968C1.80267 5.39667 2.7558 5.0012 3.75 5.00001H8.50724C8.99998 4.99874 9.48807 5.0952 9.94328 5.2838C10.3985 5.4724 10.8118 5.74939 11.1592 6.09876L12.4012 7.34076C12.7506 7.68822 13.0276 8.10151 13.2162 8.55672C13.4048 9.01193 13.5013 9.50003 13.5 9.99276ZM10.0987 7.15926C9.99214 7.05325 9.87532 6.95804 9.74999 6.87501V8.75001H11.625C11.5417 8.62464 11.4463 8.50783 11.34 8.40126L10.0987 7.15926ZM12 10.25H9.74999C9.35217 10.25 8.97064 10.092 8.68933 9.81067C8.40803 9.52936 8.24999 9.14783 8.24999 8.75001V6.50001H3.75C3.15326 6.50001 2.58096 6.73706 2.15901 7.15902C1.73705 7.58098 1.5 8.15327 1.5 8.75001V19.25C1.5 19.8467 1.73705 20.419 2.15901 20.841C2.58096 21.2629 3.15326 21.5 3.75 21.5H9.74999C10.3467 21.5 10.919 21.2629 11.341 20.841C11.7629 20.419 12 19.8467 12 19.25V10.25Z" fill="black"/>
</svg>
