<svg width="26" height="26" viewBox="0 0 26 26" fill="none" xmlns="http://www.w3.org/2000/svg">
<path d="M17.7799 20.7197L15.8749 18.8148C16.2679 18.2215 16.4996 17.5127 16.4996 16.75C16.4996 14.6823 14.8174 13 12.7496 13C10.6819 13 8.99963 14.6823 8.99963 16.75C8.99963 18.8177 10.6819 20.5 12.7496 20.5C13.5124 20.5 14.2211 20.2682 14.8144 19.8752L16.7194 21.7803C16.8656 21.9265 17.0576 22 17.2496 22C17.4416 22 17.6336 21.9265 17.7799 21.7803C18.0731 21.487 18.0731 21.013 17.7799 20.7197ZM10.4996 16.75C10.4996 15.5095 11.5091 14.5 12.7496 14.5C13.9901 14.5 14.9996 15.5095 14.9996 16.75C14.9996 17.9905 13.9901 19 12.7496 19C11.5091 19 10.4996 17.9905 10.4996 16.75ZM8.62463 13.75C8.62463 14.371 8.12063 14.875 7.49963 14.875C6.87863 14.875 6.37463 14.371 6.37463 13.75C6.37463 13.129 6.87863 12.625 7.49963 12.625C8.12063 12.625 8.62463 13.129 8.62463 13.75ZM8.24963 8.5V10.75C8.24963 11.164 7.91438 11.5 7.49963 11.5C7.08488 11.5 6.74963 11.164 6.74963 10.75V8.5C6.74963 8.086 7.08488 7.75 7.49963 7.75C7.91438 7.75 8.24963 8.086 8.24963 8.5ZM7.49963 16.75C7.49963 17.164 7.16438 17.5 6.74963 17.5H2.30888C1.47488 17.5 0.727884 17.068 0.310884 16.3442C-0.106116 15.6198 -0.103116 14.7572 0.316884 14.035L5.47538 5.14825C5.89388 4.429 6.63938 4 7.47113 4C8.30138 4 9.04688 4.429 9.46313 5.14675L12.4886 10.3742C12.6964 10.7327 12.5734 11.1918 12.2156 11.3995C11.8556 11.6058 11.3981 11.4843 11.1911 11.1258L8.16638 5.89975C7.87163 5.39275 7.06988 5.39125 6.77288 5.902L1.61363 14.7887C1.46438 15.0452 1.46288 15.34 1.61063 15.5965C1.75763 15.8523 2.01263 16 2.30888 16H6.74963C7.16438 16 7.49963 16.336 7.49963 16.75Z" fill="black"/>
</svg>
