<svg width="26" height="26" viewBox="0 0 26 26" fill="none" xmlns="http://www.w3.org/2000/svg">
<path d="M15.5455 5H4.09091C1.83518 5 0 6.83518 0 9.09091V18.9091C0 21.1648 1.83518 23 4.09091 23H15.5455C17.8012 23 19.6364 21.1648 19.6364 18.9091V9.09091C19.6364 6.83518 17.8012 5 15.5455 5ZM4.09091 6.63636H15.5455C16.8987 6.63636 18 7.73764 18 9.09091V10.7273H1.63636V9.09091C1.63636 7.73764 2.73764 6.63636 4.09091 6.63636ZM15.5455 21.3636H4.09091C2.73764 21.3636 1.63636 20.2624 1.63636 18.9091V12.3636H18V18.9091C18 20.2624 16.8987 21.3636 15.5455 21.3636ZM2.45455 8.68182C2.45455 8.00436 3.00436 7.45455 3.68182 7.45455C4.35927 7.45455 4.90909 8.00436 4.90909 8.68182C4.90909 9.35927 4.35927 9.90909 3.68182 9.90909C3.00436 9.90909 2.45455 9.35927 2.45455 8.68182ZM5.72727 8.68182C5.72727 8.00436 6.27709 7.45455 6.95455 7.45455C7.632 7.45455 8.18182 8.00436 8.18182 8.68182C8.18182 9.35927 7.632 9.90909 6.95455 9.90909C6.27709 9.90909 5.72727 9.35927 5.72727 8.68182ZM8.76027 17.3374C9.08018 17.6573 9.08018 18.1744 8.76027 18.4943L7.13864 20.1159C6.85064 20.4039 6.47673 20.5479 6.10282 20.5479C5.742 20.5479 5.38036 20.4137 5.09645 20.1445L4.14491 19.2421C3.81682 18.932 3.80291 18.4133 4.11382 18.086C4.42473 17.7579 4.94264 17.744 5.26991 18.0549L6.10036 18.8404L7.60418 17.3365C7.92409 17.0166 8.44118 17.0166 8.76109 17.3365L8.76027 17.3374ZM15.5455 18.9091C15.5455 19.3615 15.1797 19.7273 14.7273 19.7273H11.4545C11.0021 19.7273 10.6364 19.3615 10.6364 18.9091C10.6364 18.4566 11.0021 18.0909 11.4545 18.0909H14.7273C15.1797 18.0909 15.5455 18.4566 15.5455 18.9091ZM8.76027 13.2465C9.08018 13.5664 9.08018 14.0835 8.76027 14.4034L7.13864 16.025C6.85064 16.313 6.47673 16.457 6.10282 16.457C5.742 16.457 5.38036 16.3228 5.09645 16.0536L4.14491 15.1512C3.81682 14.8411 3.80291 14.3232 4.11382 13.9951C4.42473 13.6662 4.94264 13.6531 5.26991 13.9632L6.10036 14.7486L7.60418 13.2448C7.92409 12.9249 8.44118 12.9249 8.76109 13.2448L8.76027 13.2465ZM15.5455 14.8182C15.5455 15.2706 15.1797 15.6364 14.7273 15.6364H11.4545C11.0021 15.6364 10.6364 15.2706 10.6364 14.8182C10.6364 14.3657 11.0021 14 11.4545 14H14.7273C15.1797 14 15.5455 14.3665 15.5455 14.8182Z" fill="black"/>
</svg>
