<svg width="33" height="33" viewBox="0 0 33 33" fill="none" xmlns="http://www.w3.org/2000/svg">
<path d="M9.83624 25.1288C9.6062 25.1824 9.45853 25.4068 9.50047 25.6392C9.54103 25.8718 9.76653 26.0242 9.99739 25.975C10.4907 25.9083 10.9665 26.1848 11.1524 26.6465C11.4054 27.1483 11.4946 27.7165 11.4076 28.2716C11.2199 29.2055 10.6629 30.0241 9.86305 30.5415C9.1343 31.1012 8.19628 31.3124 7.29785 31.119C5.90347 30.7503 4.98194 29.4251 5.12205 27.9896C5.12205 26.848 5.8607 25.1155 7.80825 25.4512C8.09247 25.5185 8.34299 25.2527 8.25898 24.9727C8.22007 24.8429 8.11474 24.7437 7.98274 24.7124C6.12938 24.2022 4.24907 25.2363 3.95358 27.9225C3.67734 29.9869 4.94963 31.944 6.9486 32.5292C8.25898 32.8135 9.62752 32.4874 10.6689 31.6427C11.7045 30.8617 12.3783 29.6935 12.5358 28.406C12.6315 27.4371 12.3367 26.4702 11.7166 25.7198C11.2515 25.1838 10.5243 24.9551 9.83624 25.1288Z" fill="#020202"/>
<path d="M14.3222 7.57488C13.769 7.01525 13.3148 6.36584 12.9791 5.65428C12.883 5.4615 12.659 5.36965 12.4552 5.43936C12.2396 5.54249 12.1446 5.79796 12.2404 6.017C12.6467 7.0378 13.2752 7.95548 14.0803 8.70306C15.8715 10.326 18.6016 10.326 20.3928 8.70306C21.6343 7.65105 22.2691 6.04904 22.085 4.43218C22.0142 1.83783 19.6393 -0.07741 17.0888 0.402877C14.8023 0.697402 12.9058 2.31481 12.2538 4.52609C12.1603 4.72629 12.2517 4.96403 12.4552 5.04996C12.6557 5.1106 12.867 4.99579 12.9253 4.79476C13.6076 2.98526 15.2924 1.7479 17.2231 1.63859C19.0175 1.38765 20.625 2.76815 20.648 4.57985C20.7462 5.72055 20.2917 6.83925 19.4258 7.58835C18.0149 8.99924 15.7255 8.99319 14.3222 7.57488Z" fill="#020202"/>
<path d="M29.0416 27.9224C28.8401 25.7333 27.2284 24.1216 25.0123 24.7125C24.728 24.7797 24.6231 25.1295 24.8234 25.3421C24.9165 25.4408 25.055 25.4823 25.187 25.4513C27.0673 25.1155 27.7791 26.7942 27.8059 27.9896C27.946 29.4251 27.0247 30.7504 25.6301 31.119C24.7318 31.3125 23.7937 31.1013 23.0649 30.5415C22.2651 30.0241 21.7081 29.2056 21.5204 28.2717C21.458 27.708 21.5755 27.1392 21.8562 26.6465C22.0422 26.1848 22.518 25.9082 23.0112 25.975C23.242 26.0242 23.4677 25.8719 23.5081 25.6392C23.55 25.4068 23.4024 25.1823 23.1723 25.1288C22.4766 24.9648 21.7478 25.2094 21.292 25.7601C20.672 26.5106 20.3771 27.4775 20.4728 28.4463C20.6302 29.7337 21.3041 30.902 22.3396 31.683C23.381 32.5277 24.7496 32.8538 26.06 32.5695C28.0706 31.9767 29.3407 29.9973 29.0416 27.9224Z" fill="#020202"/>
<path d="M23.0529 19.4477C23.9795 20.0453 24.6609 20.9555 24.9735 22.0129C25.0721 22.315 25.1438 22.6251 25.1884 22.9397C25.5107 24.2828 25.8867 24.2828 26.3166 22.9397C26.2669 22.2428 26.1224 21.5559 25.8867 20.8982C25.4954 19.8234 24.7943 18.8888 23.8722 18.212C22.997 17.6305 22.0425 17.1781 21.0384 16.8689C20.1171 16.6407 19.2181 16.3306 18.3522 15.9423C17.7505 15.6281 17.2761 15.1156 17.0091 14.4917C17.0154 14.4517 17.0154 14.411 17.0091 14.3708C17.0896 13.7262 17.1837 13.0949 17.2374 12.4502V11.631V11.4295C16.9956 10.2073 16.2435 10.0864 15.8138 11.4295V11.6445V12.4637C15.8138 13.0412 15.9614 14.2634 15.9346 14.3305C15.6858 15.0356 15.1696 15.6145 14.4975 15.9423C13.6315 16.3306 12.7325 16.6407 11.8114 16.8689C10.8071 17.1781 9.85259 17.6305 8.97754 18.212C8.05533 18.8886 7.35421 19.8234 6.96289 20.8982C6.73175 21.5658 6.59164 22.2615 6.54654 22.9665C6.31815 24.0947 6.54654 24.4439 7.67473 22.9665C7.71914 22.6431 7.79105 22.3241 7.88964 22.0129C8.20218 20.9555 8.88363 20.0453 9.81024 19.4477C10.6299 18.9172 11.5207 18.5057 12.456 18.2255C13.4196 17.8784 14.3427 17.4281 15.2093 16.8824C15.779 16.4992 16.2414 15.9768 16.5524 15.3648C16.8634 15.9768 17.3259 16.4992 17.8955 16.8824C18.7622 17.4281 19.6852 17.8784 20.6488 18.2255C21.5001 18.5261 22.3084 18.9369 23.0529 19.4477Z" fill="#3FBDCB"/>
</svg>
