<svg width="24" height="24" viewBox="0 0 24 24" fill="none" xmlns="http://www.w3.org/2000/svg">
<path d="M7.08742 7.49303H9.02438C9.20116 7.49303 9.3707 7.56325 9.4957 7.68825C9.6207 7.81326 9.69093 7.98279 9.69093 8.15957C9.69093 8.33635 9.6207 8.50589 9.4957 8.63089C9.3707 8.75589 9.20116 8.82611 9.02438 8.82611H5.9183C5.74153 8.82611 5.57199 8.75589 5.44699 8.63089C5.32199 8.50589 5.25176 8.33635 5.25176 8.15957V5.05616C5.25176 4.87938 5.32199 4.70984 5.44699 4.58484C5.57199 4.45984 5.74153 4.38962 5.9183 4.38962C6.09508 4.38962 6.26462 4.45984 6.38962 4.58484C6.51462 4.70984 6.58485 4.87938 6.58485 5.05616V6.10929C7.72866 5.05809 9.15385 4.36274 10.6863 4.10815C12.2188 3.85355 13.7923 4.05075 15.2146 4.67564C16.6368 5.30053 17.8463 6.32608 18.6954 7.62703C19.5444 8.92798 19.9962 10.448 19.9956 12.0015C19.9956 14.1226 19.1531 16.1569 17.6534 17.6568C16.1537 19.1568 14.1196 19.9996 11.9985 20C9.87716 20 7.84271 19.1573 6.3427 17.6573C4.8427 16.1573 4 14.1228 4 12.0015H5.33308C5.33308 13.7693 6.03533 15.4647 7.28533 16.7147C8.53534 17.9647 10.2307 18.6669 11.9985 18.6669C13.7663 18.6669 15.4616 17.9647 16.7116 16.7147C17.9617 15.4647 18.6639 13.7693 18.6639 12.0015C18.664 10.659 18.2587 9.34769 17.501 8.23937C16.7433 7.13106 15.6686 6.27738 14.4176 5.79012C13.1666 5.30286 11.7976 5.20473 10.4899 5.50859C9.18222 5.81244 7.99675 6.50411 7.08875 7.49303H7.08742Z" fill="black"/>
</svg>
