<svg width="40" height="40" viewBox="0 0 40 40" fill="none" xmlns="http://www.w3.org/2000/svg">
<rect x="0.5" y="0.5" width="39" height="39" rx="19.5" fill="#151515" fill-opacity="0.3"/>
<rect x="0.5" y="0.5" width="39" height="39" rx="19.5" stroke="black"/>
<path d="M19.3171 13.0146C19.3171 12.6375 19.6228 12.3317 20 12.3317C20.3772 12.3317 20.6829 12.6375 20.6829 13.0146H19.3171ZM20.4829 27.4675C20.2162 27.7342 19.7838 27.7342 19.5171 27.4675L15.1709 23.1213C14.9042 22.8546 14.9042 22.4222 15.1709 22.1555C15.4376 21.8888 15.87 21.8888 16.1367 22.1555L20 26.0188L23.8633 22.1555C24.13 21.8888 24.5624 21.8888 24.8291 22.1555C25.0958 22.4222 25.0958 22.8546 24.8291 23.1213L20.4829 27.4675ZM20.6829 13.0146L20.6829 26.9846H19.3171L19.3171 13.0146H20.6829Z" fill="black"/>
</svg>
