<svg width="18" height="19" viewBox="0 0 18 19" fill="none" xmlns="http://www.w3.org/2000/svg">
<path fill-rule="evenodd" clip-rule="evenodd" d="M0.310922 0.720552C0.445258 0.603856 0.611173 0.529603 0.787699 0.507176C0.964224 0.48475 1.14344 0.515158 1.30268 0.594557L17.5021 8.69424C17.6518 8.76888 17.7778 8.8838 17.8659 9.02608C17.9539 9.16837 18.0006 9.33238 18.0006 9.49971C18.0006 9.66704 17.9539 9.83106 17.8659 9.97334C17.7778 10.1156 17.6518 10.2305 17.5021 10.3052L1.30268 18.4049C1.14345 18.4845 0.964155 18.5152 0.787494 18.4929C0.610833 18.4707 0.444743 18.3965 0.310241 18.2799C0.175739 18.1632 0.0788709 18.0092 0.0318934 17.8375C-0.0150842 17.6657 -0.0100593 17.4839 0.0463321 17.315L2.35204 10.3997H7.20016C7.43884 10.3997 7.66775 10.3049 7.83653 10.1361C8.0053 9.96731 8.10012 9.7384 8.10012 9.49971C8.10012 9.26103 8.0053 9.03212 7.83653 8.86334C7.66775 8.69457 7.43884 8.59975 7.20016 8.59975H2.35204L0.045432 1.68441C-0.0106689 1.51559 -0.0154762 1.33393 0.031617 1.16237C0.0787103 0.990821 0.176491 0.837072 0.310922 0.720552Z" fill="white"/>
</svg>
