<svg width="26" height="26" viewBox="0 0 26 26" fill="none" xmlns="http://www.w3.org/2000/svg">
<path fill-rule="evenodd" clip-rule="evenodd" d="M0 7.2193C0 6.62044 0.485474 6.13496 1.08434 6.13496H5.42169C6.02055 6.13496 6.50602 6.62044 6.50602 7.2193C6.50602 7.81816 6.02055 8.30364 5.42169 8.30364H4.33735V20.2313H5.42169C6.02055 20.2313 6.50602 20.7168 6.50602 21.3157C6.50602 21.9146 6.02055 22.4 5.42169 22.4H1.08434C0.485474 22.4 0 21.9146 0 21.3157C0 20.7168 0.485474 20.2313 1.08434 20.2313H2.16867V8.30364H1.08434C0.485474 8.30364 0 7.81816 0 7.2193Z" fill="black"/>
<path fill-rule="evenodd" clip-rule="evenodd" d="M12.4699 10.4723C12.9366 10.4723 13.351 10.771 13.4986 11.2138L14.547 14.359L17.6923 15.4075C18.1351 15.5551 18.4337 15.9694 18.4337 16.4362C18.4337 16.9029 18.1351 17.3173 17.6923 17.4649L14.547 18.5133L13.4986 21.6586C13.351 22.1014 12.9366 22.4 12.4699 22.4C12.0031 22.4 11.5888 22.1014 11.4412 21.6586L10.3928 18.5133L7.24746 17.4649C6.80468 17.3173 6.50602 16.9029 6.50602 16.4362C6.50602 15.9694 6.80468 15.5551 7.24746 15.4075L10.3928 14.359L11.4412 11.2138C11.5888 10.771 12.0031 10.4723 12.4699 10.4723ZM12.4699 14.9856L12.2787 15.5592C12.1708 15.883 11.9167 16.1371 11.5929 16.245L11.0193 16.4362L11.5929 16.6274C11.9167 16.7353 12.1708 16.9894 12.2787 17.3132L12.4699 17.8867L12.6611 17.3132C12.769 16.9894 13.0231 16.7353 13.3469 16.6274L13.9204 16.4362L13.3469 16.245C13.0231 16.1371 12.769 15.883 12.6611 15.5592L12.4699 14.9856Z" fill="black"/>
<path fill-rule="evenodd" clip-rule="evenodd" d="M18.4337 4.40002C18.7138 4.40002 18.9624 4.57922 19.051 4.84489L19.7613 6.97604L21.8925 7.68642C22.1582 7.77498 22.3373 8.0236 22.3373 8.30364C22.3373 8.58368 22.1582 8.8323 21.8925 8.92085L19.7613 9.63124L19.051 11.7624C18.9624 12.0281 18.7138 12.2073 18.4337 12.2073C18.1537 12.2073 17.9051 12.0281 17.8165 11.7624L17.1061 9.63124L14.975 8.92085C14.7093 8.8323 14.5301 8.58368 14.5301 8.30364C14.5301 8.0236 14.7093 7.77498 14.975 7.68642L17.1061 6.97604L17.8165 4.84489C17.9051 4.57922 18.1537 4.40002 18.4337 4.40002Z" fill="black"/>
</svg>
