<svg width="33" height="33" viewBox="0 0 33 33" fill="none" xmlns="http://www.w3.org/2000/svg">
<g clip-path="url(#clip0_479_43414)">
<path fill-rule="evenodd" clip-rule="evenodd" d="M1.85568 1.5675C1.86901 1.4665 1.84449 1.36414 1.78686 1.28014C1.72922 1.19614 1.64254 1.13643 1.54351 1.11253C1.44448 1.08863 1.34011 1.10221 1.2505 1.15067C1.16089 1.19913 1.09238 1.27904 1.05818 1.375C-0.000574619 5.8025 0.123175 20.0337 1.03068 23.7875C1.62193 26.125 8.51068 26.1937 10.9994 26.2075C11.1079 26.1887 11.2063 26.1321 11.2772 26.0479C11.3482 25.9636 11.387 25.857 11.387 25.7469C11.387 25.6367 11.3482 25.5301 11.2772 25.4459C11.2063 25.3616 11.1079 25.3051 10.9994 25.2862C9.00568 25.19 4.53693 24.8875 2.74943 23.9112C2.22693 23.6225 2.14443 24.1725 1.82818 15.895C1.70443 12.6637 1.59443 10.2987 1.56693 7.3975C1.63568 7.13625 1.67693 2.5575 1.85568 1.5675Z" fill="#020202"/>
<path fill-rule="evenodd" clip-rule="evenodd" d="M26.5232 6.14625C19.9645 6.14625 16.5545 5.40375 2.8457 6.14625C2.76052 6.15692 2.68105 6.1948 2.61911 6.25426C2.55718 6.31372 2.51609 6.39157 2.50195 6.47625V6.6275C2.51856 6.71971 2.56822 6.8027 2.64162 6.86091C2.71503 6.91913 2.80714 6.94858 2.9007 6.94375C7.36945 6.86125 8.49695 7.71375 26.537 6.94375C26.6067 6.98006 26.6847 6.99762 26.7633 6.99471C26.8419 6.9918 26.9183 6.96852 26.9852 6.92715C27.0521 6.88577 27.107 6.82773 27.1447 6.75872C27.1824 6.6897 27.2015 6.61207 27.2002 6.53345C27.1988 6.45483 27.177 6.37791 27.137 6.31023C27.097 6.24255 27.04 6.18644 26.9718 6.1474C26.9035 6.10836 26.8263 6.08773 26.7476 6.08752C26.669 6.08732 26.5917 6.10756 26.5232 6.14625Z" fill="#3FBDCB"/>
<path fill-rule="evenodd" clip-rule="evenodd" d="M3.31278 1.29249C7.19028 1.08624 26.8665 1.59499 27.6365 2.24124C28.1315 2.65374 28.379 6.59999 28.5165 7.74124C28.764 9.85874 28.9565 11.6875 29.0665 13.8325C29.0841 13.9273 29.1342 14.0129 29.2083 14.0746C29.2824 14.1362 29.3758 14.17 29.4722 14.17C29.5686 14.17 29.6619 14.1362 29.736 14.0746C29.8101 14.0129 29.8603 13.9273 29.8778 13.8325C29.8778 11.88 29.754 9.58374 29.6165 7.65874C29.479 5.73374 29.6165 2.15874 28.5853 1.22374C26.619 -0.632509 6.35153 0.0962411 3.24403 0.371241C3.13546 0.396588 3.03952 0.459902 2.97352 0.549761C2.90752 0.639621 2.87581 0.750108 2.88411 0.861291C2.89241 0.972474 2.94017 1.07703 3.01877 1.1561C3.09738 1.23517 3.20165 1.28354 3.31278 1.29249Z" fill="#020202"/>
<path fill-rule="evenodd" clip-rule="evenodd" d="M4.78417 4.37249C4.88156 4.47269 4.99806 4.55235 5.12677 4.60674C5.25549 4.66113 5.39381 4.68916 5.53354 4.68916C5.67328 4.68916 5.8116 4.66113 5.94031 4.60674C6.06903 4.55235 6.18553 4.47269 6.28292 4.37249C6.40149 4.16966 6.44177 3.93046 6.39618 3.69998C6.35059 3.4695 6.22228 3.26366 6.03542 3.12124C5.10042 2.58499 3.94542 3.53374 4.78417 4.37249Z" fill="#020202"/>
<path fill-rule="evenodd" clip-rule="evenodd" d="M8.00272 4.04249C8.10031 4.14483 8.21765 4.22629 8.34764 4.28195C8.47763 4.33761 8.61756 4.3663 8.75897 4.3663C8.90038 4.3663 9.04031 4.33761 9.1703 4.28195C9.30029 4.22629 9.41763 4.14483 9.51522 4.04249C9.64256 3.83499 9.68777 3.58739 9.64198 3.34827C9.59619 3.10915 9.46271 2.89577 9.26772 2.74999C8.31897 2.24124 7.16397 3.18999 8.00272 4.04249Z" fill="#020202"/>
<path fill-rule="evenodd" clip-rule="evenodd" d="M11.5223 4.04249C11.6198 4.14483 11.7372 4.22629 11.8672 4.28195C11.9972 4.33761 12.1371 4.3663 12.2785 4.3663C12.4199 4.3663 12.5598 4.33761 12.6898 4.28195C12.8198 4.22629 12.9372 4.14483 13.0348 4.04249C13.1653 3.83589 13.2124 3.58737 13.1664 3.34734C13.1204 3.10731 12.9849 2.89375 12.7873 2.74999C11.8385 2.24124 10.6835 3.18999 11.5223 4.04249Z" fill="#020202"/>
<path fill-rule="evenodd" clip-rule="evenodd" d="M32.4769 30.1125C31.4254 28.229 30.2205 26.4355 28.8744 24.75C33.2056 17.875 24.1169 10.7937 17.2969 16.0325C15.8866 17.0609 14.9021 18.5705 14.5296 20.2757C14.1572 21.9809 14.4226 23.7635 15.2756 25.2862C17.3381 28.6275 21.3806 29.4112 21.3119 28.27C21.3084 28.2176 21.2946 28.1664 21.2712 28.1193C21.2479 28.0723 21.2155 28.0303 21.1759 27.9958C21.1363 27.9613 21.0902 27.935 21.0404 27.9183C20.9906 27.9017 20.938 27.895 20.8856 27.8988C18.9606 27.995 17.0494 26.2212 16.2244 24.7362C15.5967 23.4581 15.4514 21.9964 15.8151 20.6197C16.1789 19.243 17.0273 18.0438 18.2044 17.2425C22.1644 14.3275 27.5269 16.1012 28.5444 19.9925C29.4381 23.3887 26.5506 26.7025 23.6081 27.7337C23.4932 27.772 23.3983 27.8544 23.3441 27.9627C23.29 28.071 23.2811 28.1964 23.3193 28.3112C23.3576 28.4261 23.44 28.5211 23.5483 28.5752C23.6566 28.6294 23.782 28.6383 23.8968 28.6C24.4829 28.4124 25.0457 28.1586 25.5744 27.8437C26.0831 28.5587 27.3894 30.3462 27.5131 30.5937C30.3456 34.65 33.4944 33 32.4769 30.1125ZM31.1019 31.4875C30.0844 32.01 27.1694 28.4625 26.2481 27.4312C26.9892 26.9208 27.6516 26.3047 28.2144 25.6025C28.6406 26.2075 31.8169 31.075 31.1294 31.4325L31.1019 31.4875Z" fill="#020202"/>
<path fill-rule="evenodd" clip-rule="evenodd" d="M16.6505 11.4263C17.9155 11.2475 19.4005 12.3338 21.1605 11.8113C22.0998 11.5052 23.0924 11.3975 24.0755 11.495C23.9655 11.495 25.3267 11.495 25.258 11.0413C25.1892 10.5875 23.773 10.6425 23.223 10.505C22.8942 10.464 22.5617 10.464 22.233 10.505C20.6792 10.505 20.858 11.0138 19.0705 10.4088C15.6605 9.2675 15.7705 10.505 14.6292 10.725C13.488 10.945 11.728 9.47375 10.4355 10.175C9.72048 10.56 9.17048 11.55 9.85798 11.715C10.5455 11.88 10.1467 11.2888 10.8205 11.0138C11.4942 10.7388 13.5705 12.76 15.3992 12.045C15.7859 11.7822 16.2069 11.574 16.6505 11.4263Z" fill="#020202"/>
<path fill-rule="evenodd" clip-rule="evenodd" d="M13.8325 15.5925C11 15.9775 9.62498 14.8362 7.23248 15.125C7.47998 15.125 4.33123 15.0425 3.89123 15.9775C3.85654 16.0363 3.83698 16.1028 3.8343 16.171C3.83163 16.2392 3.84592 16.307 3.8759 16.3683C3.90588 16.4296 3.95061 16.4825 4.00608 16.5223C4.06155 16.5621 4.12603 16.5875 4.19373 16.5962C4.52373 16.5962 3.93248 16.3625 10.2025 16.8437H11.0275C11.96 16.9117 12.8964 16.7853 13.7775 16.4725C13.8705 16.4461 13.9531 16.3914 14.0138 16.3161C14.0744 16.2408 14.1103 16.1485 14.1163 16.0519C14.1223 15.9554 14.0983 15.8594 14.0474 15.7771C13.9966 15.6948 13.9215 15.6303 13.8325 15.5925Z" fill="#020202"/>
<path fill-rule="evenodd" clip-rule="evenodd" d="M9.62381 21.2712C9.74415 21.2712 9.85956 21.2234 9.94466 21.1383C10.0298 21.0532 10.0776 20.9378 10.0776 20.8175C10.0776 20.6972 10.0298 20.5817 9.94466 20.4966C9.85956 20.4115 9.74415 20.3637 9.62381 20.3637C7.88929 20.2745 6.1512 20.446 4.46756 20.8725C4.19256 21.1337 4.22006 21.34 4.46756 21.4775C4.71506 21.615 4.56381 21.6012 4.68756 21.6012C6.33841 21.8246 8.01738 21.7124 9.62381 21.2712Z" fill="#020202"/>
</g>
<defs>
<clipPath id="clip0_479_43414">
<rect width="33" height="33" fill="white"/>
</clipPath>
</defs>
</svg>
