<svg width="33" height="33" viewBox="0 0 33 33" fill="none" xmlns="http://www.w3.org/2000/svg">
<path d="M5.60154 11.0369C6.3442 11.41 7.0867 11.8615 7.70967 12.486C8.01658 12.7989 8.28627 13.1462 8.51337 13.521C8.73428 13.8898 8.92195 14.2776 9.07414 14.6797C9.38962 15.5249 9.56083 16.3992 9.69366 17.256C9.72847 17.4686 9.75986 17.681 9.78941 17.8928L9.87446 18.5269L9.09962 18.6234C8.97539 17.626 8.87807 16.6011 8.96334 15.5613C9.04452 14.5262 9.31657 13.4714 9.86846 12.5476C10.007 12.3153 10.1629 12.0938 10.3348 11.885C10.5071 11.6724 10.6987 11.476 10.907 11.2984C10.9577 11.2517 11.0129 11.2112 11.0668 11.169C11.1215 11.1278 11.1741 11.0832 11.2308 11.0451C11.3438 10.9685 11.4558 10.8895 11.5741 10.8229C11.8061 10.6848 12.048 10.564 12.2977 10.4613C12.543 10.3599 12.7936 10.2722 13.0486 10.1985C13.3011 10.128 13.5546 10.0628 13.8074 10.0118C14.3135 9.90429 14.8165 9.8318 15.3124 9.76057L15.3613 10.7004L14.9194 10.6909C14.4392 10.6819 13.9547 10.6562 13.4664 10.6167C12.9666 10.5808 12.4702 10.5074 11.9814 10.3972C11.4661 10.2821 10.9723 10.0859 10.5184 9.816C10.2839 9.67119 10.0672 9.49951 9.87249 9.30446C9.67861 9.10832 9.50984 8.88886 9.37008 8.6511C9.09399 8.1866 8.92468 7.70062 8.77995 7.23314C8.63381 6.76277 8.5121 6.28516 8.4153 5.80222C8.31609 5.3201 8.24523 4.83258 8.20309 4.34217C8.18279 4.09706 8.16697 3.85168 8.15932 3.60603L8.15369 3.42184C8.15223 3.36046 8.15379 3.29895 8.14862 3.23766C8.14157 3.11497 8.14004 2.99209 8.13554 2.86922L8.96869 2.90866C8.89867 3.80517 8.82374 4.71701 8.65098 5.6333C8.62741 5.74763 8.60586 5.86245 8.58043 5.9765L8.49497 6.31814L8.39735 6.65839L8.28633 6.99643C8.129 7.45047 7.92817 7.88825 7.68662 8.30365C7.21956 9.08891 6.57897 9.75684 5.81391 10.2563C5.51813 10.4552 5.19454 10.6092 4.85365 10.7133C4.72918 10.7489 4.60205 10.7746 4.47349 10.79C4.4162 10.7963 4.36221 10.8003 4.31152 10.8022L4.27408 10.8033L4.24379 10.7995C4.22252 10.7966 4.202 10.7938 4.18224 10.7911C3.93712 10.7553 3.80103 10.7126 3.98987 10.527C4.01719 10.5012 4.04608 10.4772 4.07637 10.455C4.09221 10.4427 4.11459 10.4287 4.12887 10.4171C4.14214 10.406 4.156 10.3944 4.17045 10.3823C4.2282 10.3344 4.29797 10.2876 4.375 10.2322C4.45137 10.1755 4.54015 10.1216 4.63339 10.0549C4.68069 10.0234 4.73012 9.99039 4.78166 9.95599C4.83223 9.92017 4.88515 9.88381 4.94044 9.84691C5.22653 9.65068 5.49948 9.43594 5.75752 9.20406C6.02106 8.97099 6.26623 8.71795 6.49087 8.44718C6.79705 8.07376 7.05441 7.66286 7.25673 7.22439C7.46124 6.77658 7.62396 6.31085 7.7428 5.83311C7.9979 4.87025 8.11324 3.85749 8.22149 2.83671L8.22155 2.83613C8.23056 2.75156 8.27155 2.67363 8.33614 2.6183C8.40074 2.56297 8.48404 2.53444 8.56899 2.53853C8.65394 2.54263 8.73411 2.57905 8.79308 2.64034C8.85204 2.70162 8.88535 2.78313 8.88617 2.86818C8.88769 3.03378 8.88221 3.1997 8.89382 3.36516C8.90432 3.53056 8.91676 3.69576 8.93352 3.86053C8.96552 4.1902 9.01309 4.51789 9.06738 4.84386C9.17482 5.4954 9.33229 6.1377 9.53838 6.76505C9.6702 7.19408 9.84143 7.60998 10.0499 8.00746C10.1479 8.1871 10.2635 8.35661 10.3949 8.51349C10.5232 8.66089 10.6652 8.79568 10.8192 8.91601C10.9637 9.02414 11.1171 9.11982 11.2777 9.20201C11.4458 9.28474 11.6193 9.35601 11.797 9.41531C12.1689 9.534 12.551 9.61763 12.9385 9.66513C13.7321 9.7684 14.5569 9.78348 15.3864 9.81411L15.3913 9.81429C15.4952 9.81812 15.5939 9.86087 15.6678 9.93406C15.7416 10.0073 15.7853 10.1055 15.7901 10.2094C15.7949 10.3133 15.7605 10.4152 15.6936 10.4949C15.6268 10.5746 15.5325 10.6262 15.4294 10.6396C14.7996 10.7214 14.1798 10.8069 13.5843 10.9456C12.9912 11.0874 12.4169 11.2732 11.9097 11.5648C11.6933 11.6884 11.4891 11.832 11.2995 11.9937C11.1112 12.159 10.9386 12.3416 10.7841 12.5389C10.4757 12.9471 10.2332 13.4011 10.0655 13.8844C9.8939 14.3748 9.7832 14.8844 9.73589 15.4018C9.6867 15.9277 9.67577 16.4565 9.70318 16.9841C9.72519 17.4976 9.77743 18.0142 9.83802 18.5326L9.83841 18.536C9.84926 18.629 9.8228 18.7225 9.76483 18.796C9.70686 18.8695 9.62211 18.917 9.52917 18.9281C9.43622 18.9392 9.34267 18.913 9.26901 18.8552C9.19535 18.7975 9.1476 18.7129 9.13622 18.62C9.03445 17.7873 8.92704 16.9618 8.73455 16.166C8.64413 15.77 8.52859 15.3801 8.38863 14.9987C8.24889 14.624 8.07422 14.2634 7.86692 13.9215C7.81251 13.8388 7.76198 13.7531 7.70475 13.6726L7.52787 13.4349C7.40346 13.282 7.27117 13.1357 7.13151 12.9966C6.84247 12.7196 6.52572 12.473 6.18625 12.2608C6.01531 12.1523 5.83909 12.0499 5.65909 11.9524C5.56911 11.9037 5.47825 11.856 5.38651 11.8095L5.24835 11.7404L5.17929 11.7065L5.11368 11.6772C5.02808 11.636 4.93416 11.6027 4.84291 11.5666C4.74797 11.5357 4.65516 11.5005 4.5577 11.4739C4.36586 11.4142 4.16776 11.3689 3.9698 11.326C3.58583 11.246 3.19625 11.1957 2.80455 11.1756C2.42489 11.1569 2.05025 11.1792 1.73888 11.2871L1.64939 10.931L1.6491 10.9075H1.64945H1.65164H1.65457H1.66044L1.67217 10.9076C1.67978 10.9077 1.68757 10.9079 1.69853 10.9073L1.75912 10.9054L1.88235 10.9003C1.96501 10.8966 2.0472 10.8929 2.12892 10.8892C2.29299 10.8827 2.45506 10.8763 2.61512 10.8699C2.93577 10.8583 3.24882 10.8514 3.55469 10.8449C3.65875 10.841 3.76297 10.8451 3.86641 10.8571C3.90653 10.8603 3.93051 10.8724 3.96751 10.8722C3.9916 10.8716 4.01532 10.8783 4.03549 10.8914L4.09621 10.8206C4.08763 10.8529 4.07575 10.8672 4.08141 10.8701C4.08528 10.873 4.10636 10.8638 4.12563 10.8329C4.12796 10.8292 4.12944 10.825 4.12997 10.8206C4.13049 10.8163 4.13004 10.8119 4.12865 10.8077C4.12727 10.8035 4.12498 10.7997 4.12195 10.7965C4.11892 10.7934 4.11523 10.7909 4.11113 10.7893C4.10704 10.7877 4.10265 10.7871 4.09827 10.7874C4.09389 10.7877 4.08964 10.789 4.08581 10.7912C4.08199 10.7933 4.07869 10.7963 4.07615 10.7999C4.0736 10.8034 4.07189 10.8075 4.07111 10.8118L4.0522 10.9187C4.04868 10.9384 4.02199 10.9686 3.97246 11.0022C3.93808 11.0302 3.90063 11.0543 3.86083 11.0739C3.73817 11.1338 3.60881 11.179 3.47547 11.2084C3.18662 11.2748 2.89571 11.3335 2.60048 11.3894C2.45295 11.4172 2.3044 11.444 2.15482 11.4697L1.92844 11.5072L1.8121 11.525L1.75155 11.5336C1.7288 11.5366 1.69479 11.5396 1.66683 11.542C1.56668 11.5507 1.46666 11.524 1.38411 11.4666C1.30156 11.4092 1.24168 11.3248 1.21485 11.2279C1.18801 11.1311 1.19591 11.0278 1.23718 10.9362C1.27844 10.8445 1.35047 10.7702 1.44079 10.726L1.46966 10.7121C1.7023 10.6039 1.94942 10.5299 2.20329 10.4926C2.32088 10.4783 2.44083 10.46 2.55613 10.4557C2.61421 10.4526 2.67289 10.4478 2.73057 10.4463L2.90276 10.4449C3.35967 10.4495 3.81479 10.5026 4.26043 10.6036C4.4856 10.6522 4.7082 10.712 4.9274 10.7829L5.09365 10.8384L5.26063 10.9019C5.31587 10.9216 5.37272 10.9484 5.42885 10.9728L5.51313 11.0102L5.58821 11.0464C5.59254 11.0431 5.5966 11.0401 5.60154 11.0369Z" fill="#3FBDCB"/>
<path d="M25.3429 12.9635C25.7301 13.4278 26.0423 13.9497 26.2683 14.5104C26.296 14.5806 26.3258 14.6498 26.3513 14.7208L26.4193 14.9371C26.4409 15.0095 26.4663 15.0805 26.4844 15.1539L26.5342 15.3753C26.5494 15.4493 26.57 15.522 26.5803 15.5971L26.6111 15.8221L26.6261 15.9345C26.6313 15.9716 26.6364 16.0091 26.639 16.0503C26.6451 16.1312 26.6481 16.2148 26.6461 16.3017C26.644 16.4581 26.6185 16.6132 26.5706 16.7621C26.5409 16.8488 26.501 16.9317 26.452 17.0092C26.3973 17.0918 26.3311 17.166 26.2553 17.2298L26.2499 17.2343C26.1871 17.2869 26.1099 17.3194 26.0284 17.3274C25.9469 17.3354 25.8649 17.3185 25.7931 17.2791C25.7213 17.2396 25.6632 17.1793 25.6262 17.1062C25.5893 17.0331 25.5754 16.9505 25.5863 16.8693C25.6371 16.4932 25.7092 16.1202 25.8023 15.7523C25.9538 15.1371 26.1885 14.5455 26.4999 13.9938C26.8191 13.4297 27.2361 12.927 27.7315 12.5092C28.2388 12.0901 28.8247 11.7766 29.4547 11.587C30.102 11.3946 30.7863 11.3624 31.4488 11.4933C31.5461 11.5134 31.6347 11.5632 31.7025 11.6358C31.7703 11.7085 31.8138 11.8004 31.827 11.8988C31.8403 11.9973 31.8226 12.0975 31.7765 12.1855C31.7304 12.2734 31.6581 12.3449 31.5695 12.39L31.5608 12.3944C31.3452 12.501 31.1142 12.5729 30.8762 12.6076C30.6574 12.6383 30.4361 12.6471 30.2156 12.6339C30.0042 12.6234 29.8028 12.5984 29.6093 12.5706C29.4163 12.5422 29.2321 12.5146 29.0321 12.4781C28.7445 12.4297 28.4631 12.3501 28.1928 12.2407C28.0448 12.1786 27.9033 12.1021 27.7704 12.0122C27.6346 11.9196 27.5093 11.8125 27.3966 11.6929C27.1874 11.4636 27.0165 11.2022 26.8904 10.9185C26.7735 10.6566 26.6818 10.3841 26.6165 10.1048C26.3528 9.0224 26.3751 7.89006 26.6812 6.81891L26.6816 6.81734C26.7084 6.72398 26.7619 6.6405 26.8355 6.57717C26.9092 6.51384 26.9997 6.47344 27.0961 6.46093C27.1924 6.44843 27.2902 6.46437 27.3776 6.50679C27.465 6.54921 27.538 6.61626 27.5878 6.69968C27.7437 6.97063 27.8282 7.27682 27.8331 7.58942C27.8381 7.86345 27.8042 8.13681 27.7323 8.40129C27.7006 8.52891 27.6594 8.6469 27.6202 8.76615C27.5763 8.88378 27.5336 9.00201 27.4816 9.11607C27.3823 9.34599 27.2659 9.56812 27.1332 9.78057C26.6063 10.6386 25.8423 11.3259 24.9336 11.7596C24.3555 12.0306 23.7277 12.1795 23.0894 12.197C22.839 12.2057 22.5889 12.1713 22.3501 12.0954C22.3017 12.0792 22.2564 12.0625 22.2142 12.0449C22.172 12.0255 22.1329 12.0057 22.0968 11.9855C22.0307 11.9502 21.9693 11.9069 21.9138 11.8565C21.7678 11.725 21.7955 11.6191 21.9405 11.5499C22.0861 11.4822 22.349 11.4464 22.7062 11.4105L22.8774 11.3921L23.0506 11.3689C23.1665 11.3512 23.2839 11.3365 23.4008 11.3146C23.6343 11.2733 23.8651 11.2181 24.092 11.1494C24.5299 11.0132 24.941 10.8024 25.3072 10.5264C26.0473 9.97016 26.5848 9.18684 26.8376 8.29623C26.8979 8.09331 26.9286 7.88271 26.9285 7.67101C26.9312 7.49628 26.8843 7.32438 26.7932 7.17524L27.5716 7.07287C27.4924 7.38796 27.4428 7.70979 27.4236 8.03414C27.3866 8.63299 27.4682 9.24876 27.5713 9.81457C27.6428 10.2178 27.7679 10.5995 27.9712 10.8929C28.0669 11.034 28.1883 11.156 28.3289 11.2524C28.4823 11.3499 28.6494 11.424 28.8246 11.4722C29.0245 11.5274 29.2275 11.5706 29.4325 11.6014C29.6509 11.6367 29.8684 11.6722 30.073 11.693C30.4846 11.7373 30.8638 11.7205 31.1536 11.5785L31.2538 12.3842L31.1101 12.3569L31.0383 12.3427L30.9654 12.3342L30.8196 12.3165L30.6724 12.3091C30.3376 12.2964 30.0029 12.3356 29.6802 12.4253C29.3516 12.5176 29.0365 12.6525 28.7431 12.8268C28.4478 13.0014 28.1753 13.2119 27.9316 13.4534C27.6857 13.6985 27.4672 13.9698 27.2801 14.2624C26.7663 15.0562 26.4633 15.9961 26.3375 16.9568L25.769 16.6505C25.8029 16.622 25.8286 16.5848 25.8433 16.543C25.8669 16.4779 25.8804 16.4095 25.8833 16.3403C25.8878 16.2543 25.8855 16.1681 25.8765 16.0824L25.8356 15.7959C25.8216 15.7001 25.8022 15.6053 25.7776 15.5118L25.7451 15.3701C25.7352 15.3226 25.7166 15.2774 25.7028 15.2308C25.6721 15.1388 25.6458 15.045 25.6118 14.9539L25.5002 14.6836C25.3384 14.3265 25.1374 13.9886 24.9007 13.6761C24.6584 13.3657 24.3841 13.0817 24.0825 12.8286C23.7015 12.5171 23.2869 12.2492 22.8463 12.0301C22.8198 12.0162 22.7937 12.0013 22.7671 11.9881L22.6858 11.9524L22.5243 11.8793C22.4183 11.8254 22.3079 11.7897 22.1996 11.7461L22.0374 11.6814C21.9843 11.6623 21.9317 11.6451 21.8787 11.6317C21.7741 11.5991 21.6622 11.5986 21.5573 11.6303C21.5316 11.6401 21.5083 11.6521 21.4899 11.6605C21.4895 11.6607 21.4891 11.6609 21.4888 11.6612C21.4886 11.6615 21.4883 11.6619 21.4882 11.6623L21.4861 11.6682C21.4791 11.6898 21.4806 11.7132 21.4902 11.7338C21.4989 11.7526 21.5114 11.7695 21.5268 11.7833C21.5547 11.8083 21.5896 11.824 21.6268 11.8283C21.6443 11.8307 21.6622 11.8293 21.6792 11.8243C21.6944 11.8214 21.7094 11.8173 21.724 11.8122C21.7486 11.8029 21.7665 11.797 21.7767 11.8036C21.7866 11.8097 21.7895 11.8291 21.775 11.8621C21.7643 11.8823 21.7502 11.9004 21.7332 11.9157C21.7127 11.9401 21.6861 11.9586 21.6562 11.9693C21.5842 11.9984 21.5043 12.001 21.4306 11.9766C21.3762 11.9585 21.3273 11.9267 21.2887 11.8842C21.2611 11.8533 21.2392 11.8177 21.2243 11.7791C21.2072 11.7332 21.1994 11.6844 21.2015 11.6355C21.2029 11.5984 21.215 11.5625 21.2363 11.5321L21.2897 11.4556C21.3176 11.4154 21.3504 11.3787 21.3873 11.3464C21.4079 11.3284 21.4297 11.3119 21.4527 11.2971C21.4772 11.2834 21.5025 11.2713 21.5287 11.2611C21.6521 11.2142 21.7834 11.1914 21.9154 11.1941C22.0186 11.1946 22.1215 11.2036 22.2232 11.2212L22.5027 11.2657L22.573 11.2777L22.6419 11.2952L22.7802 11.3308C23.153 11.4277 23.513 11.5684 23.8528 11.75C24.4139 12.0641 24.9138 12.477 25.3283 12.9687C25.333 12.967 25.3374 12.9655 25.3429 12.9635Z" fill="#3FBDCB"/>
<path d="M16.6405 22.9385L16.9349 23.1034L17.2182 23.2871L17.2887 23.3334L17.3564 23.3841L17.4914 23.4857C17.5362 23.5199 17.5818 23.5529 17.6257 23.5881L17.7536 23.6989C17.9247 23.8459 18.0874 24.0023 18.241 24.1676L18.4618 24.4238C18.5341 24.51 18.5978 24.6029 18.6658 24.6923C18.9267 25.0563 19.148 25.4471 19.3257 25.8581C19.4977 26.2686 19.628 26.6953 19.7147 27.1319C19.7345 27.2479 19.7586 27.3633 19.7735 27.4801L19.8124 27.8313L19.8296 28.1844C19.8356 28.302 19.8279 28.4202 19.8276 28.5379C19.8122 29.0099 19.745 29.4787 19.6271 29.9359L19.5349 30.2577C19.5084 30.3501 19.4494 30.4299 19.3687 30.4822C19.2881 30.5346 19.1912 30.5561 19.096 30.5427C19.0007 30.5294 18.9135 30.482 18.8504 30.4095C18.7873 30.3369 18.7525 30.244 18.7525 30.1478L18.7526 30.1292C18.7535 29.091 18.7513 28.0203 18.9509 26.9449C19.0489 26.4006 19.2094 25.8694 19.429 25.3618C19.6534 24.8401 19.961 24.3584 20.3399 23.9353C20.7285 23.5164 21.185 23.166 21.6902 22.899C22.1805 22.643 22.6963 22.4392 23.2292 22.2908C23.4911 22.216 23.7537 22.152 24.0173 22.0955C24.2816 22.0396 24.5522 21.9904 24.8317 21.9599C25.1175 21.9261 25.4056 21.9176 25.6929 21.9344C25.9942 21.9521 26.292 22.0085 26.5789 22.102C26.6735 22.1328 26.7563 22.1921 26.8159 22.2717C26.8755 22.3513 26.9091 22.4474 26.9121 22.5468C26.9151 22.6462 26.8874 22.7442 26.8326 22.8272C26.7779 22.9103 26.6989 22.9744 26.6063 23.0109L26.5959 23.0149C26.144 23.1831 25.6662 23.271 25.1841 23.2746C24.6725 23.2777 24.1615 23.2371 23.6568 23.1532C23.1565 23.0838 22.661 22.9823 22.1737 22.8494C21.9218 22.7796 21.6744 22.6945 21.4329 22.5946C21.1841 22.4937 20.9441 22.3724 20.7153 22.2321C20.4805 22.0888 20.2602 21.9232 20.0574 21.7374C19.8556 21.5506 19.673 21.3441 19.5122 21.1211C19.2064 20.69 18.9582 20.2209 18.7737 19.7256C18.4111 18.7741 18.1871 17.7754 18.1086 16.7602C18.0994 16.6336 18.0916 16.5069 18.0872 16.38C18.0844 16.3166 18.0823 16.2531 18.0815 16.1896C18.0805 16.1256 18.0782 16.0664 18.0795 15.9885C18.0795 15.8175 18.1048 15.6474 18.1546 15.4838C18.1887 15.3757 18.2396 15.2736 18.3056 15.1814C18.3843 15.0723 18.4861 14.9819 18.6037 14.9166L18.6086 14.9139C18.6662 14.8825 18.7294 14.8628 18.7945 14.8558C18.8597 14.8488 18.9256 14.8548 18.9885 14.8733C19.0514 14.8918 19.11 14.9225 19.161 14.9636C19.212 15.0048 19.2544 15.0556 19.2858 15.1131C19.3195 15.1755 19.3398 15.2442 19.3454 15.3148C19.4926 17.3375 18.9705 19.3525 17.8595 21.0492C17.6009 21.4434 17.2943 21.804 16.9468 22.1227C16.7688 22.2836 16.5782 22.4298 16.3767 22.56C16.1744 22.6908 15.9604 22.8026 15.7375 22.8938C15.3838 23.044 15.0009 23.1123 14.6172 23.0937C14.3712 23.0846 14.131 23.0165 13.9169 22.8951C13.6865 22.7484 13.7321 22.6471 13.9327 22.5999C14.0347 22.5705 14.1773 22.5523 14.3563 22.5181C14.5726 22.4778 14.7861 22.4234 14.9954 22.3554C15.3166 22.2468 15.6203 22.092 15.8969 21.8958C16.1847 21.6897 16.4476 21.4509 16.6803 21.1842C17.0163 20.7942 17.3048 20.3657 17.5396 19.9076C17.783 19.4478 17.9806 18.9652 18.1298 18.4667C18.4302 17.4696 18.5378 16.4244 18.4466 15.387L19.0401 15.7057C19.0403 15.706 19.0412 15.7072 19.0403 15.7058L19.038 15.7027C19.0384 15.7033 19.0389 15.7039 19.0393 15.7045C19.0406 15.7061 19.0417 15.7072 19.0411 15.7064V15.7076C19.0377 15.7124 19.0349 15.7176 19.0326 15.7231C19.0172 15.7596 19.0072 15.7982 19.003 15.8376C18.9951 15.8994 18.992 15.9617 18.9936 16.024L19.0024 16.2599C19.0188 16.5806 19.0527 16.9001 19.0992 17.2174C19.1947 17.8509 19.3544 18.4731 19.576 19.0743C19.7289 19.5013 19.9285 19.9101 20.171 20.2934C20.2868 20.4735 20.4166 20.6443 20.5593 20.8041C20.6279 20.881 20.7004 20.9544 20.7764 21.024C20.8148 21.058 20.8506 21.0944 20.8899 21.1272L21.008 21.225C21.3619 21.4961 21.7585 21.7064 22.1814 21.8473C22.6289 21.9985 23.0883 22.112 23.5547 22.1866C24.0221 22.2734 24.495 22.3277 24.9699 22.3489C25.411 22.3703 25.8521 22.3063 26.269 22.1605L26.284 22.968C25.8713 22.8276 25.4051 22.8046 24.9263 22.8528C24.6869 22.8755 24.4437 22.9151 24.1981 22.9624C23.9521 23.0104 23.7077 23.0645 23.4675 23.1266C22.9529 23.2534 22.4563 23.4447 21.9897 23.696C21.5361 23.9393 21.1338 24.2679 20.8048 24.6637C20.4787 25.0701 20.2211 25.527 20.0422 26.0164C19.8577 26.5174 19.7289 27.0372 19.658 27.5664C19.5391 28.4 19.5264 29.2609 19.5153 30.1335L18.8109 30.0178C19.2801 28.6346 19.1164 27.0402 18.4142 25.7434C18.3682 25.6635 18.3275 25.5803 18.2775 25.5029L18.1273 25.2707C18.0763 25.194 18.0178 25.1228 17.9635 25.0483C17.9353 25.0119 17.9093 24.9736 17.8795 24.9386L17.7888 24.8346C17.6686 24.6951 17.5414 24.5618 17.4077 24.4351C17.2674 24.3154 17.1315 24.19 16.9796 24.0839C16.9067 24.0268 16.831 23.9735 16.7527 23.924C16.6744 23.8747 16.5979 23.8221 16.5181 23.775L16.2744 23.6403C16.1938 23.5941 16.1071 23.5597 16.0238 23.5186C15.6859 23.3614 15.3327 23.2398 14.9696 23.1556C14.1046 22.9525 13.2064 22.9351 12.3342 23.1044L12.325 22.7582C12.8474 22.9171 13.3956 22.9727 13.9392 22.922C14.2477 22.8929 14.4044 22.8846 14.4031 22.951C14.401 22.9803 14.3602 23.0311 14.2724 23.089C14.2191 23.1241 14.1633 23.1552 14.1055 23.1822C14.0717 23.1987 14.0349 23.2153 13.9946 23.2308C13.9745 23.2385 13.9538 23.2474 13.932 23.2545C13.91 23.2609 13.8872 23.2672 13.8638 23.2734C13.3186 23.4166 12.7491 23.4412 12.1936 23.3456C12.1016 23.3295 12.0177 23.2831 11.9552 23.2137C11.8927 23.1444 11.8552 23.0562 11.8487 22.9631C11.8421 22.8699 11.867 22.7773 11.9192 22.6999C11.9714 22.6226 12.048 22.5649 12.1367 22.5361L12.172 22.5248C12.7238 22.3488 13.2997 22.2596 13.8789 22.2602C14.3545 22.2588 14.8283 22.3194 15.2883 22.4404C15.7515 22.5603 16.2002 22.7303 16.6265 22.9473C16.631 22.9442 16.6353 22.9414 16.6405 22.9385Z" fill="#151515"/>
</svg>
