<svg width="48" height="48" viewBox="0 0 48 48" fill="none" xmlns="http://www.w3.org/2000/svg">
<rect width="48" height="48" rx="24" fill="#151515"/>
<path d="M23.9267 15C22.104 15 20.6333 15 19.4773 15.156C18.2773 15.316 17.2667 15.6627 16.464 16.464C15.6613 17.2667 15.3173 18.2773 15.156 19.4773C15 20.6333 15 22.104 15 23.9267V24.0733C15 25.896 15 27.3667 15.156 28.5227C15.316 29.7227 15.6627 30.7333 16.464 31.536C17.2667 32.3387 18.2773 32.6827 19.4773 32.8453C20.6333 33 22.104 33 23.9267 33H24.0733C25.896 33 27.3667 33 28.5227 32.8453C29.7227 32.6827 30.7333 32.3387 31.536 31.536C32.3387 30.7333 32.6827 29.7227 32.8453 28.5227C33 27.3667 33 25.896 33 24.0733V23.9267C33 22.104 33 20.6333 32.8453 19.4773C32.6827 18.2773 32.3387 17.2667 31.536 16.464C30.7333 15.6613 29.7227 15.3173 28.5227 15.156C27.3667 15 25.896 15 24.0733 15H23.9267Z" fill="#00BED3"/>
</svg>
