<svg width="26" height="26" viewBox="0 0 26 26" fill="none" xmlns="http://www.w3.org/2000/svg">
<g clip-path="url(#clip0_479_43428)">
<path d="M18 17.875V19.375C18 20.8225 16.8225 22 15.375 22H2.625C1.1775 22 0 20.8225 0 19.375V17.875C0 16.4275 1.1775 15.25 2.625 15.25H4.125C4.53975 15.25 4.875 15.5852 4.875 16C4.875 16.4148 4.53975 16.75 4.125 16.75H2.625C2.00475 16.75 1.5 17.2548 1.5 17.875V19.375C1.5 19.9952 2.00475 20.5 2.625 20.5H15.375C15.9952 20.5 16.5 19.9952 16.5 19.375V17.875C16.5 17.2548 15.9952 16.75 15.375 16.75H13.875C13.4602 16.75 13.125 16.4148 13.125 16C13.125 15.5852 13.4602 15.25 13.875 15.25H15.375C16.8225 15.25 18 16.4275 18 17.875ZM18 6.625V7.375C18 8.8225 16.8225 10 15.375 10H15V10.75C15 11.9905 13.9905 13 12.75 13H9.75V15.5463L10.7213 14.5758C11.0145 14.2825 11.4885 14.2825 11.7817 14.5758C12.075 14.869 12.075 15.343 11.7817 15.6363L9.9255 17.4932C9.4155 18.0025 8.5875 18.0032 8.0775 17.4932L6.2205 15.6363C5.92725 15.343 5.92725 14.869 6.2205 14.5758C6.51375 14.2825 6.98775 14.2825 7.281 14.5758L8.25 15.5448V12.9992H5.25C4.0095 12.9992 3 11.9897 3 10.7492V9.99925H2.625C1.1775 9.99925 0 8.82175 0 7.37425V6.62425C0 5.1775 1.1775 4 2.625 4H4.875C6.3225 4 7.5 5.1775 7.5 6.625V7.375C7.5 8.8225 6.3225 10 4.875 10H4.5V10.75C4.5 11.1632 4.836 11.5 5.25 11.5H12.75C13.164 11.5 13.5 11.1632 13.5 10.75V10H13.125C11.6775 10 10.5 8.8225 10.5 7.375V6.625C10.5 5.1775 11.6775 4 13.125 4H15.375C16.8225 4 18 5.1775 18 6.625ZM4.875 8.5C5.49525 8.5 6 7.99525 6 7.375V6.625C6 6.00475 5.49525 5.5 4.875 5.5H2.625C2.00475 5.5 1.5 6.00475 1.5 6.625V7.375C1.5 7.99525 2.00475 8.5 2.625 8.5H4.875ZM16.5 6.625C16.5 6.00475 15.9952 5.5 15.375 5.5H13.125C12.5048 5.5 12 6.00475 12 6.625V7.375C12 7.99525 12.5048 8.5 13.125 8.5H15.375C15.9952 8.5 16.5 7.99525 16.5 7.375V6.625Z" fill="black"/>
<path fill-rule="evenodd" clip-rule="evenodd" d="M20.5526 7.70526C20.7565 7.70526 20.9375 7.83573 21.002 8.02916L21.6968 10.1137L23.7814 10.8085C23.9748 10.873 24.1053 11.054 24.1053 11.2579C24.1053 11.4618 23.9748 11.6428 23.7814 11.7073L21.6968 12.4021L21.002 14.4866C20.9375 14.6801 20.7565 14.8105 20.5526 14.8105C20.3487 14.8105 20.1677 14.6801 20.1033 14.4866L19.4084 12.4021L17.3239 11.7073C17.1305 11.6428 17 11.4618 17 11.2579C17 11.054 17.1305 10.873 17.3239 10.8085L19.4084 10.1137L20.1033 8.02916C20.1677 7.83573 20.3487 7.70526 20.5526 7.70526ZM20.5526 9.67687L20.2323 10.6379C20.1851 10.7794 20.0741 10.8904 19.9327 10.9375L18.9716 11.2579L19.9327 11.5783C20.0741 11.6254 20.1851 11.7364 20.2323 11.8778L20.5526 12.8389L20.873 11.8778C20.9201 11.7364 21.0311 11.6254 21.1726 11.5783L22.1337 11.2579L21.1726 10.9375C21.0311 10.8904 20.9201 10.7794 20.873 10.6379L20.5526 9.67687Z" fill="black"/>
<path fill-rule="evenodd" clip-rule="evenodd" d="M24.3421 6C24.4644 6 24.573 6.07828 24.6117 6.19434L24.9813 7.30294L26.0899 7.67248C26.2059 7.71116 26.2842 7.81977 26.2842 7.94211C26.2842 8.06444 26.2059 8.17305 26.0899 8.21173L24.9813 8.58127L24.6117 9.68988C24.573 9.80593 24.4644 9.88421 24.3421 9.88421C24.2198 9.88421 24.1112 9.80593 24.0725 9.68988L23.7029 8.58127L22.5943 8.21173C22.4783 8.17305 22.4 8.06444 22.4 7.94211C22.4 7.81977 22.4783 7.71116 22.5943 7.67248L23.7029 7.30294L24.0725 6.19434C24.1112 6.07828 24.2198 6 24.3421 6Z" fill="black"/>
</g>
<defs>
<clipPath id="clip0_479_43428">
<rect width="26" height="26" rx="6" fill="white"/>
</clipPath>
</defs>
</svg>
