<svg width="18" height="20" viewBox="0 0 18 20" fill="none" xmlns="http://www.w3.org/2000/svg">
<path d="M1 8.2C1 4.8061 1 3.1087 2.0548 2.0548C3.1096 1.0009 4.8061 1 8.2 1H10C13.3939 1 15.0913 1 16.1452 2.0548C17.1991 3.1096 17.2 4.8061 17.2 8.2V11.8C17.2 15.1939 17.2 16.8913 16.1452 17.9452C15.0904 18.9991 13.3939 19 10 19H8.2C4.8061 19 3.1087 19 2.0548 17.9452C1.0009 16.8904 1 15.1939 1 11.8V8.2Z" stroke="black" stroke-width="1.5"/>
<path d="M5.5 8.20001H12.7M5.5 11.8H10" stroke="black" stroke-width="1.5" stroke-linecap="round"/>
</svg>
