<svg width="33" height="33" viewBox="0 0 33 33" fill="none" xmlns="http://www.w3.org/2000/svg">
<path d="M23.0713 10.2565L16.8416 23.2772M16.8416 6.14988C16.4918 6.23243 16.1817 6.34208 15.9267 6.46058L9 20.7613C9.27144 20.7523 9.53581 20.7526 9.79308 20.7613M16.8416 6.14988C18.6634 5.71992 21.5635 6.02457 23.3762 9.63852C25.0432 9.4966 28.7721 9.91598 30.7856 12.6399M16.8416 6.14988L9.79308 20.7613M9.79308 20.7613C13.5657 20.8893 15.8133 22.8318 16.4931 23.851C20.9412 23.6606 23.6343 25.9757 24.6927 27.5145M30.7856 12.6399C30.8595 12.7398 30.931 12.8427 31 12.9489L24.9881 28C24.9102 27.8511 24.8118 27.6877 24.6927 27.5145M30.7856 12.6399L24.6927 27.5145M16.8416 8.00541C17.5241 8.12311 19.0808 8.61452 19.8475 9.63852L18.105 12.9489L15.0554 11.6689L16.8416 8.00541ZM21.7208 17.6717L19.8475 21.4234C20.9785 21.6588 23.4941 22.4033 24.5089 23.4979L26.2515 19.8344C25.7287 19.2312 24.0907 17.9542 21.7208 17.6717Z" stroke="#151515" stroke-width="0.533333"/>
<path d="M12.0938 19.2165C13.2409 19.3195 15.7793 19.9404 16.7551 21.6" stroke="#3FBDCB" stroke-width="0.8"/>
<path d="M12.8789 17.6719C14.0261 17.7749 16.5645 18.3958 17.5403 20.0554" stroke="#3FBDCB" stroke-width="0.8"/>
<path d="M13.6621 15.8179C14.8093 15.9209 17.3477 16.5418 18.3235 18.2014" stroke="#3FBDCB" stroke-width="0.8"/>
<path d="M14.4434 14.0524C15.5906 14.1554 18.1289 14.7762 19.1047 16.4358" stroke="#3FBDCB" stroke-width="0.8"/>
<path d="M22.2891 15.8179C23.4363 15.9209 25.9746 16.5418 26.9504 18.2014" stroke="#3FBDCB" stroke-width="0.8"/>
<path d="M22.9844 14.0524C24.1316 14.1554 26.6699 14.7762 27.6458 16.4358" stroke="#3FBDCB" stroke-width="0.8"/>
<path d="M23.7695 12.1105C24.9167 12.2135 27.4551 12.8344 28.4309 14.494" stroke="#3FBDCB" stroke-width="0.8"/>
<circle cx="4.10483" cy="5.10483" r="1.85483" stroke="black" stroke-width="0.5"/>
<circle cx="8.31382" cy="7.28202" r="1.85483" stroke="black" stroke-width="0.5"/>
<circle cx="9.69512" cy="10.6935" r="1.05645" stroke="black" stroke-width="0.5"/>
</svg>
