<svg width="26" height="26" viewBox="0 0 26 26" fill="none" xmlns="http://www.w3.org/2000/svg">
<path fill-rule="evenodd" clip-rule="evenodd" d="M4.14627 9.04001L5.04 9.04001C5.43765 9.04001 5.76 9.36236 5.76 9.76001C5.76 10.1577 5.43765 10.48 5.04 10.48H4.176C3.55926 10.48 3.14001 10.4806 2.81595 10.507C2.50029 10.5328 2.33886 10.5796 2.22625 10.637C1.9553 10.775 1.73501 10.9953 1.59695 11.2663C1.53957 11.3789 1.49283 11.5403 1.46704 11.856C1.44056 12.18 1.44 12.5993 1.44 13.216V16.83L2.43022 16.0378C2.69318 15.8274 3.06682 15.8274 3.32978 16.0378L4.62656 17.0752L6.69088 15.0109C6.97206 14.7297 7.42794 14.7297 7.70912 15.0109C7.99029 15.2921 7.99029 15.7479 7.70912 16.0291L5.18912 18.5491C4.9297 18.8085 4.5167 18.8314 4.23022 18.6022L2.88 17.5221L1.52978 18.6022C1.50235 18.6242 1.4738 18.6438 1.44439 18.6611C1.44804 18.8627 1.45475 19.0337 1.46704 19.1841C1.49283 19.4997 1.53957 19.6611 1.59695 19.7738C1.73501 20.0447 1.9553 20.265 2.22625 20.4031C2.33886 20.4604 2.50029 20.5072 2.81595 20.533C3.14001 20.5594 3.55926 20.56 4.176 20.56H8.784C9.40074 20.56 9.81999 20.5594 10.1441 20.533C10.4597 20.5072 10.6211 20.4604 10.7337 20.4031C11.0047 20.265 11.225 20.0447 11.363 19.7738C11.4204 19.6611 11.4672 19.4997 11.493 19.1841C11.5194 18.86 11.52 18.4407 11.52 17.824V16.96C11.52 16.5624 11.8424 16.24 12.24 16.24C12.6376 16.24 12.96 16.5624 12.96 16.96V17.8538C12.96 18.4333 12.96 18.9117 12.9282 19.3013C12.8951 19.706 12.8241 20.0781 12.6461 20.4275C12.37 20.9694 11.9294 21.41 11.3875 21.6861C11.0381 21.8642 10.666 21.9351 10.2613 21.9682C9.87166 22 9.39332 22 8.81375 22H4.14625C3.56668 22 3.08834 22 2.69869 21.9682C2.29398 21.9351 1.92195 21.8642 1.57251 21.6861C1.0306 21.41 0.590017 20.9694 0.313902 20.4275C0.135852 20.0781 0.0648862 19.706 0.0318201 19.3013C-1.64258e-05 18.9117 -8.87335e-06 18.4333 3.10529e-07 17.8537V13.1863C-8.87335e-06 12.6067 -1.64258e-05 12.1284 0.0318201 11.7387C0.0648862 11.334 0.135852 10.962 0.313902 10.6125C0.590017 10.0706 1.0306 9.63003 1.57251 9.35391C1.92195 9.17586 2.29398 9.10489 2.69869 9.07183C3.08835 9.03999 3.56669 9.04 4.14627 9.04001Z" fill="black"/>
<path fill-rule="evenodd" clip-rule="evenodd" d="M16.5754 11.4056C16.0079 11.4056 15.3999 11.9752 15.3999 12.875C15.3999 13.7748 16.0079 14.3444 16.5754 14.3444C17.1428 14.3444 17.7509 13.7748 17.7509 12.875C17.7509 11.9752 17.1428 11.4056 16.5754 11.4056ZM14.2244 12.875C14.2244 11.5025 15.1952 10.2301 16.5754 10.2301C17.9555 10.2301 18.9264 11.5025 18.9264 12.875C18.9264 14.2475 17.9555 15.5199 16.5754 15.5199C15.1952 15.5199 14.2244 14.2475 14.2244 12.875Z" fill="black"/>
<path fill-rule="evenodd" clip-rule="evenodd" d="M14.8121 4C14.9639 4 15.0987 4.09713 15.1467 4.24113L15.6052 5.61669L16.9808 6.07521C17.1248 6.12322 17.2219 6.25798 17.2219 6.40977C17.2219 6.56156 17.1248 6.69632 16.9808 6.74432L15.6052 7.20284L15.1467 8.5784C15.0987 8.7224 14.9639 8.81953 14.8121 8.81953C14.6603 8.81953 14.5256 8.7224 14.4776 8.5784L14.019 7.20284L12.6435 6.74432C12.4995 6.69632 12.4023 6.56156 12.4023 6.40977C12.4023 6.25798 12.4995 6.12322 12.6435 6.07521L14.019 5.61669L14.4776 4.24113C14.5256 4.09713 14.6603 4 14.8121 4Z" fill="black"/>
<path fill-rule="evenodd" clip-rule="evenodd" d="M18.7054 15.5153C18.3833 15.5556 18.0895 15.3271 18.0493 15.005L17.4615 10.303C17.4213 9.98093 17.6497 9.68718 17.9718 9.64692C18.2939 9.60666 18.5877 9.83513 18.6279 10.1572L19.2157 14.8592C19.2559 15.1813 19.0275 15.4751 18.7054 15.5153Z" fill="black"/>
<path fill-rule="evenodd" clip-rule="evenodd" d="M10.2579 8.32569C10.3229 8.06339 10.5583 7.87914 10.8285 7.87914H11.7428C12.013 7.87914 12.2484 8.06339 12.3133 8.3257L13.9132 14.7909C13.9912 15.106 13.799 15.4247 13.4839 15.5027C13.1688 15.5806 12.8501 15.3884 12.7721 15.0733L12.4463 13.7566H10.1249L9.79905 15.0733C9.72107 15.3884 9.40242 15.5806 9.08732 15.5027C8.77222 15.4247 8.58 15.106 8.65797 14.7909L10.2579 8.32569ZM10.4158 12.5811H12.1554L11.2856 9.06632L10.4158 12.5811Z" fill="black"/>
</svg>
