<svg width="33" height="33" viewBox="0 0 33 33" fill="none" xmlns="http://www.w3.org/2000/svg">
<g clip-path="url(#clip0_479_43451)">
<path fill-rule="evenodd" clip-rule="evenodd" d="M18.1916 20.2125C17.2703 17.0913 16.6241 13.5712 15.6203 10.2987C15.2 8.85462 14.662 7.4474 14.0116 6.09125C13.5678 5.1778 13.0187 4.31945 12.3753 3.53375C11.8743 2.89293 11.195 2.41454 10.4228 2.15875C10.0093 2.03948 9.57171 2.03133 9.15408 2.13514C8.73645 2.23894 8.35357 2.45102 8.04405 2.75C7.15599 3.89073 6.51029 5.20085 6.14655 6.6C5.03018 9.52258 4.06638 12.5012 3.25905 15.5238C2.4203 18.5625 1.71905 21.6562 1.11405 24.5987L0.000303751 30.36C-0.0202079 30.4219 -0.0275496 30.4874 -0.0212495 30.5523C-0.0149495 30.6172 0.00485283 30.68 0.0368856 30.7368C0.0689184 30.7936 0.112473 30.843 0.164753 30.882C0.217033 30.9209 0.276881 30.9485 0.340455 30.963C0.404028 30.9774 0.46992 30.9784 0.5339 30.9659C0.597879 30.9533 0.658531 30.9276 0.71196 30.8902C0.765388 30.8529 0.810412 30.8047 0.84414 30.7489C0.877868 30.6931 0.899553 30.6309 0.907804 30.5662L2.2828 24.86C2.70905 23.1412 3.1903 21.3675 3.6578 19.5938H4.1528H6.3253L12.8153 18.8925L14.9741 18.7413H16.3491C16.5278 19.3738 16.7066 20.0063 16.9128 20.6112C17.1741 21.4363 17.5316 22.7425 17.8616 24.1312C18.3566 26.125 18.8378 28.2562 19.0991 29.5212C19.1121 29.5906 19.139 29.6566 19.1782 29.7153C19.2174 29.774 19.2681 29.8241 19.3272 29.8626C19.3863 29.9012 19.4526 29.9273 19.5221 29.9396C19.5916 29.9518 19.6628 29.9498 19.7316 29.9338C19.867 29.9039 19.9856 29.8229 20.0625 29.7075C20.1394 29.5921 20.1686 29.4515 20.1441 29.315C19.9103 28.0912 19.4841 25.8775 19.0578 23.815C18.7553 22.4125 18.4391 21.065 18.1916 20.2125ZM14.9603 17.5588L12.8016 17.4213C11.8857 17.3657 10.9674 17.3657 10.0516 17.4213C9.25405 17.4213 8.4428 17.5863 7.65905 17.71C7.1228 17.7925 6.61405 17.9163 6.09155 18.0125L3.97405 18.3975C4.2078 17.5863 4.44155 16.7613 4.68905 15.95C5.6103 12.9663 6.6278 10.01 7.76905 7.26C8.06015 6.24984 8.46614 5.2764 8.97905 4.35875C9.07103 4.18461 9.21794 4.04573 9.39696 3.96368C9.57599 3.88162 9.7771 3.861 9.96905 3.905C10.3855 4.06054 10.745 4.33859 11.0003 4.7025C11.5653 5.36739 12.0499 6.09659 12.4441 6.875C13.0825 8.14164 13.6205 9.45653 14.0528 10.8075C14.7953 13.0075 15.4278 15.345 16.0053 17.5725L14.9603 17.5588Z" fill="#020202"/>
<path fill-rule="evenodd" clip-rule="evenodd" d="M32.5199 26.8125C32.2174 25.1763 31.9011 23.8425 31.6811 22.7838C31.3598 21.3752 30.9229 19.9955 30.3749 18.6588C29.8661 17.3663 29.2611 16.0188 28.6424 14.7675C28.1886 13.8463 27.7211 12.98 27.2674 12.2375C26.8044 11.2624 26.1711 10.3777 25.3974 9.625C25.2132 9.50187 25.002 9.42506 24.7818 9.40112C24.5615 9.37718 24.3387 9.40681 24.1324 9.4875C23.6993 9.6414 23.3116 9.9014 23.0049 10.2438C22.6234 10.6627 22.2912 11.1241 22.0149 11.6188C21.4374 12.65 21.0249 13.7913 20.3511 14.7813C20.315 14.8309 20.2891 14.8872 20.2747 14.9469C20.2603 15.0066 20.2579 15.0685 20.2674 15.1292C20.277 15.1898 20.2984 15.248 20.3305 15.3004C20.3626 15.3527 20.4046 15.3983 20.4543 15.4344C20.5039 15.4705 20.5602 15.4965 20.6199 15.5108C20.6796 15.5252 20.7415 15.5277 20.8022 15.5181C20.8628 15.5085 20.921 15.4871 20.9734 15.455C21.0257 15.423 21.0713 15.3809 21.1074 15.3313C21.8636 14.3825 22.3586 13.255 23.0461 12.265C23.2988 11.8682 23.6041 11.5074 23.9536 11.1925C24.0733 11.0766 24.2131 10.9834 24.3661 10.9175C24.4349 10.9175 24.5174 10.8213 24.5861 10.9175C25.0797 11.5703 25.4907 12.2815 25.8099 13.035C26.3599 14.1075 26.9924 15.4138 27.6249 16.775C28.5351 18.625 29.3385 20.5256 30.0311 22.4675H29.9624C29.839 22.4544 29.7145 22.4544 29.5911 22.4675C28.9586 22.3713 27.4049 22.2475 27.1161 22.2338H24.9849C23.8574 22.2338 22.7711 22.4675 21.6849 22.605C21.5609 22.605 21.442 22.6543 21.3543 22.7419C21.2666 22.8296 21.2174 22.9485 21.2174 23.0725C21.2174 23.1965 21.2666 23.3154 21.3543 23.4031C21.442 23.4907 21.5609 23.54 21.6849 23.54C22.7711 23.6775 23.8574 23.9388 24.9711 23.9938C25.7199 24.012 26.469 23.9752 27.2124 23.8838C27.4874 23.8838 28.9449 23.6225 29.5499 23.5813H29.6461C29.7556 23.6187 29.8744 23.6188 29.9839 23.5814C30.0934 23.5441 30.1874 23.4715 30.2511 23.375C30.2551 23.3476 30.2551 23.3199 30.2511 23.2925C30.5399 24.31 30.9249 25.575 31.3236 27.1425C31.5436 27.94 31.7499 28.8338 31.9561 29.7963C31.966 29.8648 31.9897 29.9307 32.026 29.9898C32.0622 30.0489 32.1101 30.0999 32.1667 30.1399C32.2234 30.1798 32.2876 30.2077 32.3554 30.2219C32.4232 30.2361 32.4932 30.2363 32.5611 30.2225C32.6991 30.1958 32.821 30.116 32.9008 30.0003C32.9805 29.8845 33.0116 29.7422 32.9874 29.6038C32.8499 28.5588 32.6849 27.6513 32.5199 26.8125Z" fill="#3FBDCB"/>
</g>
<defs>
<clipPath id="clip0_479_43451">
<rect width="33" height="33" fill="white"/>
</clipPath>
</defs>
</svg>
