<svg width="64" height="64" viewBox="0 0 64 64" fill="none" xmlns="http://www.w3.org/2000/svg">
<rect width="64" height="64" rx="32" fill="#472424"/>
<path d="M38.633 34.7943C38.3399 34.6269 38.1515 34.3706 38.0678 34.0256C37.984 33.6807 38.0259 33.3612 38.1934 33.0673C38.3399 32.837 38.4605 32.5913 38.5551 32.33C38.6497 32.0688 38.7175 31.8017 38.7586 31.5287C38.8423 31.1728 39.0047 30.8798 39.2459 30.6495C39.4871 30.4192 39.7851 30.3041 40.1402 30.3041C40.4952 30.3041 40.7883 30.4297 41.0194 30.6809C41.2505 30.9321 41.3447 31.2356 41.302 31.5915C41.2392 32.073 41.1295 32.544 40.9729 33.0045C40.8163 33.465 40.612 33.9047 40.36 34.3233C40.1925 34.6164 39.9363 34.8102 39.5913 34.9049C39.2463 34.9995 38.9269 34.9626 38.633 34.7943ZM34.2369 29.6133L29.5583 24.9346C29.328 24.7044 29.1501 24.4377 29.0245 24.1346C28.8989 23.8315 28.8361 23.512 28.8361 23.1762V22.768C28.8361 21.7214 29.2024 20.8317 29.9351 20.099C30.6678 19.3663 31.5574 19 32.6041 19C33.6508 19 34.5405 19.3663 35.2731 20.099C36.0058 20.8317 36.3722 21.7214 36.3722 22.768V28.7027C36.3722 29.2679 36.1159 29.6606 35.6035 29.8808C35.091 30.101 34.6355 30.0119 34.2369 29.6133ZM31.3481 41.6082V38.9706C29.4222 38.7194 27.7739 37.9134 26.4032 36.5527C25.0325 35.1921 24.2002 33.5383 23.9063 31.5915C23.8644 31.2356 23.9586 30.9321 24.1889 30.6809C24.4191 30.4297 24.7122 30.3041 25.0681 30.3041C25.4239 30.3041 25.7224 30.4247 25.9636 30.6658C26.2047 30.907 26.3668 31.2051 26.4497 31.5601C26.7427 33.0254 27.4704 34.2291 28.6326 35.1711C29.7948 36.1131 31.1187 36.5841 32.6041 36.5841C33.3159 36.5841 33.9912 36.4744 34.6301 36.2551C35.269 36.0357 35.8497 35.7267 36.3722 35.3281L38.162 37.1179C37.5549 37.5994 36.89 38.0026 36.1674 38.3275C35.4448 38.6524 34.6757 38.8667 33.8601 38.9706V41.6082C33.8601 41.964 33.7396 42.2626 33.4984 42.5037C33.2572 42.7449 32.9592 42.865 32.6041 42.8642C32.2491 42.8634 31.951 42.7428 31.7098 42.5025C31.4687 42.2621 31.3481 41.964 31.3481 41.6082ZM41.5218 43.9946L20.1696 22.6424C19.9394 22.4122 19.8242 22.1191 19.8242 21.7632C19.8242 21.4074 19.9394 21.1143 20.1696 20.884C20.3999 20.6537 20.693 20.5386 21.0488 20.5386C21.4047 20.5386 21.6978 20.6537 21.928 20.884L43.2802 42.2362C43.5105 42.4665 43.6256 42.7595 43.6256 43.1154C43.6256 43.4713 43.5105 43.7643 43.2802 43.9946C43.0499 44.2249 42.7569 44.34 42.401 44.34C42.0451 44.34 41.7521 44.2249 41.5218 43.9946Z" fill="#FF3F3F"/>
</svg>
